<?xml version="1.0" encoding="UTF-8" standalone="no"?>
<svg
   width="210mm"
   height="297mm"
   viewBox="0 0 210 297"
   version="1.1"
   id="svg95"
   inkscape:version="1.1-alpha (17bc9184, 2021-03-28)"
   sodipodi:docname="basketball.svg"
   xmlns:inkscape="http://www.inkscape.org/namespaces/inkscape"
   xmlns:sodipodi="http://sodipodi.sourceforge.net/DTD/sodipodi-0.dtd"
   xmlns="http://www.w3.org/2000/svg"
   xmlns:svg="http://www.w3.org/2000/svg">
  <sodipodi:namedview
     id="namedview97"
     pagecolor="#ffffff"
     bordercolor="#666666"
     borderopacity="1.0"
     objecttolerance="10.0"
     gridtolerance="10.0"
     guidetolerance="10.0"
     inkscape:pageshadow="2"
     inkscape:pageopacity="0.0"
     inkscape:pagecheckerboard="0"
     inkscape:document-units="mm"
     showgrid="false"
     inkscape:zoom="0.67081229"
     inkscape:cx="397.27954"
     inkscape:cy="579.1486"
     inkscape:window-width="1312"
     inkscape:window-height="1003"
     inkscape:window-x="150"
     inkscape:window-y="23"
     inkscape:window-maximized="0"
     inkscape:current-layer="layer1" />
  <defs
     id="defs92" />
  <g
     inkscape:label="Layer 1"
     inkscape:groupmode="layer"
     id="layer1">
    <path
       id="path181"
       style="fill:#d45500;stroke-width:0.999999"
       transform="scale(0.26458333)"
       d="m 377.1543,207.23633 c -10e-6,3.06575 -6e-5,6.13151 0,9.19726 0,5.86907 -6.7e-4,11.73836 0,17.60743 0.003,9.47194 0.003,18.94407 -0.006,28.41601 0,7.11213 0.0715,14.22414 -0.01,21.33594 -0.17389,2.04346 0.0147,4.97058 -0.082,4.96875 -0.62045,-0.0117 -1.00365,-0.76928 -1.37109,-1.48242 0.0135,0.30934 0.0183,0.61884 0.008,0.92968 1.85661,1.40822 4.27613,3.13508 1.83594,4.27149 -1.18062,2.17936 -1.41627,5.31711 -3.35547,6.72851 v 5.00782 c 0.34121,0.65771 0.65231,1.33153 0.95508,2.00976 1.64314,-0.7568 1.43293,-0.48817 0.11132,0.2461 0.15725,0.35094 0.31223,0.7027 0.47852,1.04882 0.3124,2.91655 0.5463,3.32754 -0.13281,4.83399 0.2026,1.89221 0.0877,3.82046 0.0664,5.97656 0.0443,2.22762 -0.24025,2.38132 -1.47461,5.75391 -0.22331,0.61016 -0.72972,1.094 -0.93359,1.71094 -0.06,0.18157 0.37088,-0.0928 0.55664,-0.13868 0.51379,3.99377 0.47478,7.99903 0.36914,12.01368 -0.0486,2.27959 0.01,4.56012 0.01,6.83984 -0.0144,2.70385 -0.006,5.40735 -0.006,8.11133 0.17756,3.70695 -0.007,7.03776 -1.01367,10.65625 -1.04264,3.74832 -1.17663,1.46172 -0.91993,3.57226 0.28294,3.89993 0.60627,7.79506 0.48438,11.70703 -0.13667,4.62093 -0.0485,9.24771 -0.0371,13.8711 -0.004,4.37355 -0.008,8.74754 -0.006,13.12109 0.002,2.75358 1.3e-4,5.50811 0,8.26172 10e-6,4.10574 -2e-5,8.21063 0,12.31641 10e-6,2.06071 -0.62503,1.78545 0.39648,2.01562 2.49457,1.73499 1.05541,11.58759 1,14.49805 -0.0285,2.89746 0.10056,5.79057 0.11719,8.6875 0.004,0.78697 -0.24608,1.6143 0.002,2.36133 0.0804,0.24264 0.50866,-0.0338 0.76367,-0.0527 4.41233,4.6335 2.74309,11.50628 2.0332,17.16211 0.17376,-0.177 0.10654,0.78001 0.11914,1.13672 0.0471,1.33897 0.0693,2.6798 0.0859,4.01953 0.003,0.25336 -0.005,0.74983 -0.004,1.10547 3.59768,0.12993 7.19067,0.38151 10.80469,0.75 3.80731,0.38823 7.60695,1.18124 11.45312,1.08789 3.27376,-0.74003 7.48647,-0.43465 11.15821,-0.37305 4.88096,0.065 9.76361,-0.006 14.64453,-0.006 4.0953,0.005 8.19022,0.002 12.28516,0.002 -0.24815,-2.42879 0.97292,-2.65887 2.86523,-1.83594 0.18754,-0.70957 0.4309,-1.22947 0.84961,-1.54102 0.0399,-1.07129 0.1356,-2.00968 0.0801,-2.30664 -0.32315,-2.23948 -1.0521,-5.32662 -0.26172,-7.51757 0.55694,-1.54388 0.98686,-2.67994 1.36523,-3.65625 -0.0394,-1.87709 0.47977,-3.76535 1.40625,-5.45899 0.74438,8.3e-4 -0.34977,-0.0607 0.64844,1.38867 0.18066,0.26219 -0.19619,-0.62814 -0.15234,-0.94336 0.40229,-2.88858 0.38752,-5.92068 1.48437,-8.62304 0.13893,-0.34228 0.44847,-0.77739 0.8086,-1.17969 0.42998,-3.55825 -0.49655,-7.34852 1.61523,-10.57813 0.40694,-0.95565 1.71776,-3.28788 1.79297,-4.4746 0.0601,-0.94765 -0.19021,-1.89058 -0.21289,-2.83985 -0.10643,-4.64338 0.003,-4.46703 0.44726,-8.79883 0.79677,-5.35381 1.68001,-9.96775 3.62696,-15.04687 0.59463,-1.55123 1.89265,-2.81911 2.26758,-4.4375 0.20064,-0.86525 1e-4,-1.77588 0,-2.66406 -0.0129,-7.69652 -0.0926,-15.39411 0.0469,-23.08985 0.0971,-6.59547 -0.58771,-13.17445 -0.2793,-19.76172 0.4924,-1.34342 0.98517,-2.68747 1.47657,-4.03125 -2.4e-4,-0.0124 -0.007,-0.0321 -0.006,-0.043 0.0273,-0.27857 0.23813,-0.80673 0.39257,-1.15039 -0.0851,-2.17658 -0.64661,-4.51912 -0.49804,-6.59179 0.27322,-8.6016 2.14614,-17.083 4.68164,-25.29688 2.029,-6.99894 3.68329,-14.05932 5.16797,-21.19336 0.67253,-1.73661 1.29474,-3.49466 2.01758,-5.21094 0.10074,-0.23926 1.60974,-2.15329 1.61132,-2.16992 0.082,-0.86498 -0.0636,-1.73526 -0.0977,-2.60351 0.12688,-1.36885 0.18243,-2.7471 0.38086,-4.10742 0.29178,-2.00078 0.93584,-3.93525 1.32226,-5.91993 0.672,-3.45125 0.31066,-2.94464 1.41016,-6.92773 0.21279,-0.77087 0.55222,-1.50129 0.82812,-2.25195 0.56346,-1.16386 1.07748,-2.35116 1.68946,-3.49024 1.04477,-1.94456 1.26425,-1.32382 2.22656,-3.68164 0.41106,-1.00716 0.45599,-2.15064 0.93164,-3.1289 0.42541,-0.875 0.93271,-1.70669 1.44922,-2.53321 0.0124,-0.54604 0.12082,-1.11325 0.19726,-1.64062 0.55021,-3.79787 1.46935,-5.38471 3.1836,-7.88672 0.0496,-0.18851 -0.0236,0.0855 0.0351,-0.13867 0.0239,-0.0327 0.0421,-0.056 0.0723,-0.0977 0.15857,-0.53829 0.31002,-1.0352 0.38477,-1.19727 0.47938,-1.03913 1.21458,-1.94326 1.9082,-2.85351 0.30845,-0.40478 0.89274,-1.54781 1.08398,-1.07617 4.16051,10.26453 -2.52109,5.25157 6.26563,9.74218 -0.14135,-1.98095 -0.0819,-4.00379 -0.0566,-6.01953 -0.30775,-0.12985 -0.60608,-0.27673 -0.88477,-0.46875 -2.05845,-1.41821 -3.2873,-4.10197 -3.28711,-6.71484 -0.12543,0.0888 -0.25154,0.17717 -0.36523,0.23633 -0.0236,0.0122 0.21936,-0.19466 0.36523,-0.31641 0.0132,-1.34604 0.34848,-2.66989 1.07813,-3.78711 0.67557,-1.03443 1.71892,-1.70362 2.83203,-2.30664 A 307.09039,291.4377 0 0 0 377.1543,207.23633 Z m 107.25781,37.82617 c -0.0183,0.0622 -0.0282,0.0824 -0.0469,0.14648 0.29794,-0.43388 0.56685,-0.8294 0.91797,-1.33984 0.27918,-0.40588 -0.50414,0.68717 -0.87109,1.19336 z m -0.0469,0.14648 c -0.0199,0.029 -0.0409,0.0609 -0.0605,0.0899 -0.89886,3.41794 -0.43853,1.62561 0.0605,-0.0899 z m -26.5625,104.72461 c 0.002,0.0439 0.003,0.0871 0.004,0.13086 0.0435,-0.11983 0.0875,-0.23949 0.13086,-0.35937 0.072,-0.1993 -0.0178,-0.0317 -0.13477,0.22851 z m 0.004,0.13086 c -0.12861,0.35468 -0.26105,0.70817 -0.39062,1.0625 0.005,0.26626 0.28976,0.84945 0.32226,0.61719 0.0763,-0.54108 0.0856,-1.10574 0.0684,-1.67969 z m -16.55078,125.08203 c -0.008,0.21041 -0.0245,0.37834 -0.0254,0.59961 0.1825,-0.2748 0.34815,-0.56351 0.52148,-0.8457 -0.18624,0.0612 -0.35435,0.14063 -0.49609,0.24609 z m 0.49609,-0.24609 c 0.63918,-0.20995 1.56967,-0.15952 2.97071,0.13477 1.50214,-1.06724 3.4222,-2.83973 5.86523,-5.83399 0.51345,-0.6294 -1.51851,-0.65412 -2.32812,-0.71875 -0.81506,-0.0651 -1.86114,-0.24776 -2.42969,0.33985 -1.69734,1.75417 -2.79563,3.99016 -4.07813,6.07812 z m 2.97071,0.13477 c -2.20567,1.56707 -3.50487,1.60715 -4.1875,1.70703 0.90055,0.40715 1.95502,1.06328 3.04492,1.7832 0.84634,-1.2e-4 1.69271,1.5e-4 2.53906,0 0.76916,-0.91222 1.56168,-1.85608 2.16992,-2.55273 -1.41427,-0.41198 -2.62984,-0.74078 -3.5664,-0.9375 z m -4.1875,1.70703 c -0.0435,-0.0197 -0.0861,-0.0361 -0.12891,-0.0547 -0.007,0.0248 -0.0112,0.0606 -0.0176,0.0859 0.0486,-0.0102 0.0896,-0.0229 0.14649,-0.0312 z M 360.02344,207.55273 a 307.09039,291.4377 0 0 0 -111.50196,25.37696 c 0.37805,0.76534 0.71879,1.53043 0.94532,2.27734 0.0122,0.0402 0.037,0.11723 0.0508,0.16211 0.43318,0.56059 0.84945,1.13443 1.27734,1.69922 2.80268,4.63741 3.9137,9.96825 5.53125,15.07422 0.9739,5.42509 0.1092,-1.07771 -0.44531,7.08398 -0.0135,0.19888 0.54066,-0.33993 0.58008,-0.14453 0.15553,0.77097 -0.11625,1.56918 -0.13477,2.35547 -0.0627,2.69307 -0.0197,5.39252 0.006,8.08594 0.12828,6.91085 0.0915,13.82293 0.0703,20.73437 -0.006,11.2027 0.006,22.40472 0.004,33.60742 -0.002,8.41713 -4.2e-4,16.83484 0,25.25196 3e-5,9.35166 -2e-5,18.70302 0,28.05469 3e-5,11.58464 0,23.16923 0,34.7539 v 27.14063 c 0.32595,4.39903 -1.1093,8.66755 -1.60742,12.99023 -0.34583,3.00125 -0.27211,4.84312 -0.25586,7.68555 0.0599,1.36475 0.1061,2.73163 0.17969,4.0957 0.25647,4.75321 0.65751,2.53228 -1.48633,9.97266 -0.31627,0.78927 -0.29544,0.72174 -0.4961,1.20703 0.75798,0.1663 1.46174,0.35003 2.18165,0.5293 0.35545,-10e-6 0.71093,-10e-6 1.0664,0 h 19.70117 19.66797 7.74024 6.18945 c 4.12429,-0.21638 8.03273,0.19621 12.12891,0.82421 1.45795,0.22353 2.8872,0.64456 4.35546,0.78516 2.18502,0.20939 4.3868,0.17636 6.58008,0.26367 6.71592,-0.0102 13.37772,-0.50446 20.09375,-0.42773 3.2746,0.0357 6.55043,0.0738 9.82617,0.0762 -0.0139,-2.48444 -0.0515,-4.96687 -0.1582,-7.44531 0.4516,-3.77949 -0.0569,0.32773 0.55078,-4.01563 0.116,-0.82919 0.098,-1.68357 0.32227,-2.49023 0.039,-0.1403 0.13237,0.31338 0.27539,0.33984 0.16565,0.0321 0.54409,-0.0453 0.4668,-0.19531 -0.60386,-1.17215 -1.4976,-2.17038 -2.2461,-3.25586 -0.73106,-2.10493 -1.63989,-4.15604 -2.19336,-6.31445 -0.18524,-0.72242 0.002,-1.49251 0,-2.23829 -0.01,-3.06376 -0.16925,-6.12463 -0.11328,-9.18945 0.0497,-1.65207 -0.064,-5.8428 0.46289,-7.76953 0.0537,-0.19638 0.0634,0.41359 0.17188,0.58594 0.0748,0.11905 0.39849,0.371 0.34765,0.24023 -0.35684,-0.9188 -0.85796,-1.77475 -1.28711,-2.66211 -0.36509,-1.5343 -0.83476,-3.04809 -1.0957,-4.60351 -0.1062,-0.633 0,-1.28398 0,-1.92578 -2e-5,-4.10604 10e-6,-8.21228 0,-12.31836 1.3e-4,-2.75142 0.002,-5.50245 0,-8.25391 -0.002,-4.36327 0.002,-8.72657 0.006,-13.08984 -0.0117,-4.80337 -0.0981,-9.6109 0.0449,-14.41211 0.16587,-4.42127 -0.64427,-8.81111 -0.35351,-13.23438 0.28527,-1.50383 0.49935,-3.02309 0.85546,-4.51172 0.15163,-0.63363 0.8144,-1.07507 0.9375,-1.71484 0.36947,-1.91848 -0.25009,-4.02746 0,-5.96875 -6.4e-4,-3.09886 -0.002,-5.50718 0.006,-8.11328 10e-5,-2.41094 -0.0593,-4.82144 -0.002,-7.23242 0.10319,-3.8951 0.0825,-7.75696 -0.375,-11.63672 0.04,-0.9042 -0.0455,-1.82095 0.11914,-2.71094 0.27356,-1.47882 0.72058,-2.92392 1.1875,-4.35352 0.11627,-0.35585 0.34766,-1.28988 0.55274,-0.97656 0.0115,-0.92069 0.0246,-1.84103 0.0371,-2.76172 0.0281,-2.05904 -0.10066,-2.25618 0.64062,-0.58398 -0.91568,-2.01151 -1.14482,-2.93349 -0.71875,-4.10156 -0.89777,-0.45749 -1.44657,-1.30481 -1.44727,-2.69141 v -0.2793 c -0.093,-0.005 -0.0871,-0.24641 0,-0.27929 v -10.25 c 0,-2.79886 0.53731,-5.06387 1.40626,-6.80078 0.0469,-1.12629 0.35783,-2.28122 0.0859,-3.37305 0.0402,-2.03395 0.0184,-3.35699 0.3086,-4.78906 -0.14941,-0.2588 -0.30011,-0.5183 -0.44532,-0.7793 -0.45182,-1.56022 -0.97335,-3.10095 -1.35547,-4.67969 -0.0721,-0.29792 10e-6,-0.6134 0,-0.91992 10e-6,-0.45549 -0.45021,-1.29893 0,-1.36719 0.0436,-0.007 0.0943,-0.006 0.13868,-0.0117 -0.0214,-0.0614 -0.0383,-0.12707 -0.0547,-0.19336 -0.0267,0.002 -0.0576,0.007 -0.084,0.008 v -0.4961 c 10e-6,-0.0671 0,-0.13411 0,-0.20117 1.8e-4,-3.19536 10e-4,-6.39057 0,-9.58594 -6.3e-4,-2.98829 -0.001,-5.97656 0.004,-8.96484 -0.009,-3.39164 -0.0667,-6.78519 0.0332,-10.17578 0.0828,-4.53023 -0.30714,-9.03282 -0.21484,-13.55469 0.32167,-1.26169 0.60995,-2.53253 0.96484,-3.78515 0.0536,-0.18903 0.70594,1.34213 0.64649,1.0039 -0.55204,-3.14101 -1.22132,-3.68482 -2.88281,-7.00781 -3.46579,-6.93158 -1.4501,-12.035 2.20703,-13.42774 z m -0.75782,65.49805 c 1.4e-4,0.25714 0.0327,0.48253 0.084,0.68945 0.84618,-0.0484 1.85185,-0.26271 2.9043,-0.52734 -9.9e-4,-0.43426 -4.5e-4,-0.86848 -0.002,-1.30273 -1.74548,-0.38604 -2.98693,-0.25942 -2.98633,1.14062 z m 2.98829,0.16211 c 5.8e-4,0.25977 -5.5e-4,0.51953 0,0.7793 1.42568,0.16893 2.96227,0.47447 4.46093,0.75976 0.88688,-0.16874 1.77673,-0.33371 2.66407,-0.48828 -1.54267,-0.49286 -3.23438,-1.14407 -4.81055,-1.67969 -0.79536,0.2342 -1.56203,0.43972 -2.31445,0.62891 z m 0,0.7793 c -1.04139,-0.1234 -2.01314,-0.16687 -2.84961,-0.0586 0.36053,1.03417 1.42608,1.3797 2.85156,1.38672 -7.5e-4,-0.44272 -4.5e-4,-0.8854 -0.002,-1.32812 z M 252.74023,475.01758 c -0.45293,-0.0994 -0.9034,-0.19994 -1.36328,-0.29297 0.0562,0.24936 0.0919,0.52598 0.11914,0.82227 0.3418,-10e-6 0.6836,0 1.02539,0 0.0797,-0.19237 0.13037,-0.31555 0.21875,-0.5293 z M 494.34375,230.53516 c -0.1178,0.11397 -0.23574,0.22787 -0.35352,0.34179 -0.31056,1.24228 -1.77058,2.75915 -0.93164,3.72657 0.67999,0.78414 1.51484,1.81923 2.41602,2.86328 0.0626,-0.87694 0.11143,-1.75257 0.10742,-2.61914 0.37217,0.22243 0.80337,0.40135 1.24805,0.56836 -0.37335,-1.41505 -0.58143,-2.82376 -0.5293,-4.125 a 307.09039,291.4377 0 0 0 -1.95703,-0.75586 z m 4.49609,1.84179 c 2.24709,3.35884 4.19147,5.05299 5.03125,6.58399 0.27759,-1.41923 -0.0214,-3.00747 -0.60351,-4.6211 a 307.09039,291.4377 0 0 0 -4.42774,-1.96289 z m -6.23242,2.15235 c -0.42886,-0.024 -1.09045,0.54357 -1.75586,1.11914 1.00626,1.17154 2.01131,2.34408 3.01758,3.51562 -0.13391,-1.4618 -0.37979,-2.89992 -0.87109,-4.28711 -0.0831,-0.23468 -0.21859,-0.33802 -0.39063,-0.34765 z m 15.89453,2.12695 c -0.61863,0.6777 -1.27959,1.38119 -1.99218,2.08203 -0.23585,0.36438 -0.45184,0.72774 -0.5918,1.08399 3.73046,-0.94249 1.29467,0.43972 -1.80469,1.80273 -0.20253,0.6071 -0.55137,1.28282 -1.11523,2.09961 -0.32102,0.46498 -1.87888,2.55299 -2.90821,3.51758 -0.17692,0.61438 -0.35857,1.23143 -0.51953,1.83203 -0.21876,0.8163 -1.0492,1.28386 -1.70117,1.86523 -0.23171,0.59581 -0.45548,1.19389 -0.68359,1.79102 -0.66675,1.03114 -1.86115,2.00561 -1.85743,2.94531 10e-4,0.30073 0.77551,-0.84989 0.70899,-0.55664 -0.35974,1.58432 -0.80035,3.14822 -1.20117,4.72266 -0.97145,1.09293 -2.2468,1.97816 -2.91406,3.27929 -0.25021,0.48782 1.25131,-1.05888 1.53515,-0.58984 0.38222,0.63162 -0.32118,1.44876 -0.60351,2.13086 -1.35965,3.28374 -3.33227,6.05171 -4.70704,9.27734 -0.68503,4.56331 -2.53126,9.38678 -2.58984,13.95508 0.48098,3.66 -1.24685,7.58096 -3.05664,10.66211 -1.35723,2.31061 -1.21867,0.87514 -1.12305,2.76367 -1.3381,7.04783 -3.08262,13.97847 -5.07031,20.86719 -1.85737,6.92588 -4.19888,14.13835 -4.0957,21.38867 0.35387,4.22049 0.90031,8.31952 -0.7168,12.39649 -0.47622,1.20065 -1.56115,2.08409 -2.0918,3.26172 -0.22945,0.50921 0.77779,-0.80349 1.16602,-1.20508 0.48302,5.65693 0.63525,11.4062 0.55664,17.10351 -0.13757,7.6164 -0.0582,15.23434 -0.0469,22.85157 1.6e-4,0.89584 0.17311,1.80845 0,2.6875 -1.73327,8.81025 -1.21556,4.34728 -3.70703,10.83007 -1.35197,3.5178 -1.83579,7.05642 -2.33593,10.76367 -0.34999,3.53273 -0.43937,3.16837 -0.29688,6.68946 0.0215,0.53337 0.19871,1.06136 0.16016,1.59375 -0.12412,1.70528 -0.32863,3.40789 -0.64649,5.08789 -0.40138,2.1216 -1.42522,4.34749 -2.2207,6.31836 -0.31317,0.672 -0.76824,1.29422 -0.93945,2.01562 -0.0347,0.14627 0.32216,-0.0207 0.44726,0.0625 0.10507,0.0699 0.16772,0.21594 0.16016,0.3418 -0.10662,1.71489 -0.26378,3.42898 -0.5,5.13086 -0.45019,3.24247 -0.77839,3.57569 -2.08008,5.96289 -0.14241,1.75377 -0.39781,3.50737 -0.85937,5.20313 -0.13467,0.49473 -0.3625,0.95384 -0.61329,1.40429 0.0309,0.20463 0.0474,0.5057 0.10743,1.54492 5.65864,-5.32905 1.26505,1.1388 -1.89063,5.13477 0.16363,0.5981 0.11809,1.25659 0.2168,1.875 0.3617,1.70343 0.0472,3.4163 0.0586,5.12109 -0.49537,0.60117 -0.96005,1.2346 -1.41601,1.87696 -0.001,0.3681 -0.0106,0.57122 -0.0215,0.89843 10.95152,-5.3e-4 21.90418,0 32.85547,0 11.25914,-1.9e-4 22.51821,-3e-5 33.77734,0 h 25.36719 c 3.96791,0.24098 7.91968,0.63546 11.86328,1.11133 -0.005,-0.84665 0.1354,-1.72122 0.58203,-2.7832 0.61973,-1.4736 1.70838,-2.70361 2.63282,-4.00781 0.0485,-0.0684 0.14604,-0.17853 0.23632,-0.26563 -0.0588,-0.31906 0.10004,-0.68528 -0.0488,-0.97461 -0.0265,-0.0515 -0.0877,0.0118 -0.14844,0.0937 0.0802,-0.14348 0.15699,-0.27631 0.24023,-0.42187 -0.0283,-0.77616 -0.0478,-1.41783 0.0879,-0.57227 0.18999,-0.73382 0.73126,-1.10437 1.49414,-1.23437 -0.67669,-0.0265 -1.32085,-0.10703 -1.91406,-0.26758 -0.471,-0.12749 0.80033,-5.44542 1.04297,-6.11719 0.7098,-1.8229 0.30662,-0.61091 0.87695,-3.73242 0.43539,-1.25661 0.80054,-2.08668 1.0918,-2.54492 -0.18327,-3.68242 0.32015,-4.46582 2.07813,-9.81055 0.28414,-0.86385 -0.95968,3.49864 -0.60743,2.66016 0.47789,-1.13813 0.69444,-2.36996 1.04102,-3.55469 0.37297,-0.35793 -0.005,0.004 0.31641,-0.30469 0.12842,-2.56259 0.35637,-3.00904 1.1289,-5.48437 0.47139,-1.19845 0.90428,-2.41114 1.41407,-3.59375 0.90263,-2.09428 2.50583,-3.88846 2.88476,-6.21094 0.65575,-1.73121 1.39367,-4.15518 2.70313,-5.54688 4.82956,-5.133 4.95349,-4.82492 4.19531,-3.3457 1.52535,-2.74349 3.1188,-5.41066 3.72265,-8.56641 0.92425,-1.66998 1.84724,-3.33978 2.77149,-5.00976 0.0189,0.004 0.0377,0.008 0.0566,0.0117 0.13912,-0.12435 0.27888,-0.2487 0.41797,-0.37305 0.11718,-0.15385 0.89257,-1.36758 1.36133,-2.08594 0.0237,-0.90162 0.0809,-1.7619 0.25586,-2.11914 1.04833,-2.14048 3.00984,-3.68622 4.5957,-5.47656 0.62165,-1.25087 1.0337,-2.16334 1.82226,-3.32227 0.60093,-0.88317 0.94408,-1.34545 1.18946,-1.65429 0.10245,-0.37915 0.38137,-1.14025 1.09961,-2.77149 1.19478,-1.79672 2.37628,-3.60393 3.58593,-5.39062 0.16895,-0.57575 0.3319,-1.15316 0.50782,-1.72656 3.99957,-4.81452 2.86014,-3.81834 7.21484,-6.48829 0.92289,-0.56585 1.70213,-1.50755 2.76758,-1.69921 0.6778,-0.12189 1.36436,-0.1727 2.05469,-0.20118 1.95519,-2.42868 4.22108,-4.75977 7.14062,-5.94726 1.1201,-0.53311 2.39767,-1.07444 3.41992,-1.79883 0.70829,-0.5019 1.22621,-1.34481 2.05664,-1.59766 0.2461,-0.0749 0.49491,-0.13975 0.74414,-0.20117 1.52978,-1.44844 3.45855,-2.68298 4.53907,-3.38281 1.21595,-0.78756 2.48427,-1.49096 3.72656,-2.23633 v 0.002 c 2.76815,-1.66089 5.2972,-2.34767 7.42773,-2.32617 0.10323,10e-4 0.2014,0.009 0.30274,0.0137 A 307.09039,291.4377 0 0 0 508.50195,236.65625 Z m 53.55664,234.62305 c 0.0175,0.47965 0.0349,0.97827 0.0254,1.24218 0.0796,-0.0634 0.14718,-0.0958 0.14649,-0.0156 -0.053,6.11955 -1.01859,6.81671 -0.97266,7.48242 0.40152,0.0519 0.80372,0.10109 1.20508,0.1543 0.0267,-3.04102 0.1388,-6.08599 -0.10156,-9.11524 -0.0164,-0.20661 -0.14825,-0.0182 -0.30274,0.25196 z m 0.0254,1.24218 c -0.0244,0.0195 -0.0418,0.0351 -0.0684,0.0605 0.005,0.0258 0.002,0.0531 0.01,0.0781 0.0379,0.11922 0.0527,0.0254 0.0586,-0.13868 z M 234.9375,239.10742 A 307.09039,291.4377 0 0 0 114.4082,343.5293 c 1.68512,0.53722 2.8547,1.36207 3.57813,2.37109 0.32919,-0.65969 0.81772,-0.93817 1.56055,-0.60742 0.0895,-0.16238 -0.16804,-0.2856 -0.4668,-0.38477 -0.27626,-0.0573 -0.55344,-0.11057 -0.82813,-0.17382 -0.28277,-0.0652 0.34525,0.0136 0.82813,0.17382 1.1399,0.23623 2.28618,0.44537 3.40039,0.7793 0.69507,0.20831 1.27091,0.74754 1.97851,0.9082 0.14529,0.033 -0.008,-0.37928 0.13282,-0.42773 0.38595,-0.13262 0.8167,-0.0262 1.22461,-0.0391 4.49865,0.13832 6.91766,2.42163 10.45898,4.50781 1.50635,0.88739 3.13234,1.55453 4.69727,2.33398 7.88326,6.04604 1.94663,1.16248 7.33593,6.2461 0.10935,0.10312 -0.15872,-0.25529 -0.23828,-0.38282 0.75323,0.74523 1.64251,1.37511 2.25977,2.23633 2.113,2.94812 0.2275,2.88704 1.83789,2.81836 2.82128,3.24778 6.6562,8.44585 8.4043,9.91797 3.1494,2.02231 3.74109,5.90926 5.05664,9.04688 0.77402,1.84603 2.21469,3.6753 3.25781,5.375 1.80658,3.29416 2.39561,6.94737 4.25195,10.21289 2.75068,4.11062 3.96807,8.93451 4.55469,13.78711 1.97728,3.01746 2.1463,3.93752 3.17187,8.14453 -0.0482,1.01756 -0.0551,2.03797 -0.14453,3.05273 -0.49689,5.64132 -0.5258,0.82232 -0.375,6.22852 0.12034,4.24701 0.0333,8.49648 0.0254,12.74414 0.0119,3.14271 0.009,6.28502 0.008,9.42773 -0.002,2.02205 -9e-5,4.04436 0,6.06641 -9e-5,2.27366 -1e-5,4.54665 0,6.82031 0.5383,0.40154 1.05385,0.82655 1.5039,1.32422 1.02201,1.13018 0.13896,4.77516 -0.11523,6.14062 0.047,0.34408 0.0883,0.68884 0.13281,1.03321 0.098,0.62938 -0.0423,1.2596 -0.12891,1.88476 0.0135,0.0165 0.0276,0.0323 0.041,0.0488 0.0153,-0.0567 0.0283,-0.12281 0.0488,-0.1582 1e-4,-1.7e-4 -1.4e-4,0.20067 0,0.21679 l 0.006,0.006 c 0.0677,0.0834 0.0671,0.19137 0.0508,0.30469 2.60346,0.0299 5.20767,0.0556 7.8125,0.0449 8.5892,-0.0148 17.17831,-0.0353 25.76758,-0.01 0.0192,-3.2e-4 0.0352,-0.004 0.0547,-0.004 0.02,-10e-6 0.0369,0.004 0.0566,0.004 0.14313,4.6e-4 0.28645,-5e-4 0.42968,0 -3.4e-4,0.0104 -0.002,0.0227 -0.002,0.0332 0.41123,0.0638 0.74247,0.21294 1.00586,0.43359 0.0232,-0.15597 0.0353,-0.32174 0.0684,-0.46874 0.13098,-0.58288 1.19554,1e-5 1.79297,0 5.93495,-7.8e-4 11.86976,-2.4e-4 17.80468,0 0.15151,-0.70083 0.39594,-1.42649 0.97461,-3 0.34956,-0.95056 0.79101,-1.86378 1.20703,-2.78711 0.36459,-0.80916 0.98,-1.53431 1.13477,-2.40821 0.44289,-2.50038 -1.38186,-5.1215 -0.39062,-7.60937 0.0184,-4.33059 -0.0692,-5.44937 0.48828,-10.30274 0.17545,-1.52753 1.14479,-5.95487 1.375,-7.59375 0.12884,-0.91736 -0.1982,-1.86676 0,-2.77929 0,-9.04672 -1e-5,-18.09391 0,-27.14063 0,-11.58467 3e-5,-23.16925 0,-34.7539 -2e-5,-9.35143 3e-5,-18.70328 0,-28.05469 -4.3e-4,-8.41808 -2.1e-4,-16.83583 0.002,-25.25391 0.002,-11.2173 -0.0121,-22.43504 -0.006,-33.65234 0.0211,-6.8507 0.0597,-13.70067 -0.0684,-20.55078 -0.0392,-4.42238 -0.2681,-8.97717 0.375,-13.39258 -0.10063,-0.24629 -0.11257,-0.58103 -0.084,-0.94922 -0.98447,-3.2811 -1.84306,-6.60757 -3.17969,-9.76367 0.0806,-0.76683 -0.0226,0.66868 -1.00586,-1.20899 -0.7437,-1.42014 -1.31266,-2.54199 -1.77148,-3.4707 0.002,0.0686 0.0126,0.145 0.006,0.20508 -0.0646,0.55591 -0.29611,-0.23206 -0.58984,-1.43555 -0.11207,-0.23904 -0.15121,-0.34334 -0.23828,-0.53711 z m 6.7793,16.21094 c 0.0522,0.17388 0.10322,0.34791 0.15625,0.52148 0.182,-1.14324 0.40797,-2.27818 0.73242,-3.39648 0.28296,-0.97531 -0.76509,1.28542 -0.88867,2.875 z m 0.15625,0.52148 c -0.0228,0.14286 -0.0514,0.28458 -0.0723,0.42774 0.0675,0.16524 0.16543,0.29744 0.3125,0.37109 -0.0838,-0.26505 -0.15899,-0.53286 -0.24023,-0.79883 z m -24.83008,220.17578 c -0.28948,1.94565 0.13077,4.53127 0.49805,6.99805 0.45424,-3.05791 0.80126,-5.90909 -0.49805,-6.99805 z m 0.49805,6.99805 c -0.36482,2.45594 -0.77956,5.02594 -0.49219,6.96289 1.28712,-1.09099 0.94492,-3.92213 0.49219,-6.96289 z m -0.49219,6.96289 c -0.27545,0.23348 -0.62333,0.3892 -1.0625,0.44922 2.6e-4,0.008 0.002,0.0174 0.002,0.0254 -0.1263,-4.1e-4 -0.2527,4e-4 -0.3789,0 -0.0197,3.4e-4 -0.0366,0.004 -0.0566,0.004 -0.0209,10e-6 -0.038,-0.004 -0.0586,-0.004 -8.56591,-0.0262 -17.13152,-0.003 -25.69726,0.0117 -3.04717,0.0134 -6.09276,-0.0228 -9.13868,-0.0586 0.64802,1.90271 0.84799,4.32615 0.36328,7.23437 -0.36478,2.18873 -0.55453,3.306 -0.72265,4.43945 0.0241,9.2e-4 0.0482,0.003 0.0723,0.004 0.0885,0.67075 0.10397,1.34138 0.0996,2.01172 0.16369,0.22124 0.13236,0.70999 -0.0215,1.08984 -0.0443,1.09331 -0.11739,2.18494 -0.084,3.2793 0.0318,1.55868 0.0155,3.11899 0.0117,4.67773 -0.22164,2.54949 0.40284,5.23428 0.002,7.75586 -0.24776,1.55736 -0.73296,3.06787 -1.09961,4.60157 -0.24068,0.63484 -0.40185,1.02389 -0.58008,1.46484 0.0845,0.83792 0.16007,1.67763 0.24414,2.51563 -0.30444,3.47051 -0.10594,1.60997 -0.0566,4.45898 0.0144,1.50089 -3e-5,3.00106 0,4.50195 0.34058,5.85551 -0.5769,9.11043 -5.87305,13.35938 -0.19287,1.47541 -1.40452,2.46192 -2.13867,3.66211 -0.19774,0.3233 -0.2085,0.73179 -0.37109,1.07422 -1.67601,2.78276 -4.0624,4.95103 -6.45313,7.11328 0.71974,3.28529 0.27108,5.70568 -3.2793,3.08594 1.04861,-1.06668 2.16363,-2.07689 3.2793,-3.08594 -0.93863,-4.28448 -3.86554,-10.04297 -4.51758,-8.03516 -1.40028,4.31195 0.58677,9.13916 -0.22461,13.59961 -0.16013,0.88015 -1.58406,0.78783 -2.40234,1.19141 -0.0694,0.12994 -0.14755,0.24786 -0.24219,0.3457 -0.0962,0.76328 -0.22273,1.52023 -0.45703,2.25195 -0.3,0.93691 -1.30502,1.47228 -1.95703,2.20899 -0.66647,2.64158 -3.37621,4.86477 -5.47266,6.47265 -2.99929,0.94173 -4.46579,1.43598 -5.29687,1.73047 -0.55317,0.24717 -1.03573,0.39481 -0.66016,0.24024 -1.97917,0.84307 -3.24638,1.30596 -5.22265,2.04882 0.90692,-0.54655 2.34577,-0.64836 2.7207,-1.63867 0.89126,-2.354 2.54217,-9.27711 0.74414,-7.51562 -2.8507,2.79273 -2.35433,7.71323 -4.42773,11.12305 -0.65067,1.06997 -2.53844,0.64765 -3.43555,1.52148 -2.38582,1.6314 -3.98583,2.39455 -6.74805,2.85937 -1.25998,1.46215 -3.25252,2.22023 -5.35742,3.44141 -0.90519,0.52513 -2.024,0.54613 -3.00586,0.9082 -0.16206,0.0597 -0.55629,0.38338 -0.38867,0.3418 0.0989,-0.0246 0.18657,-0.079 0.27734,-0.125 -0.8492,0.50001 -1.67037,1.11432 -2.59179,1.32227 -0.71914,0.4461 -1.44728,0.87494 -2.23047,1.1875 -0.85657,0.34197 -1.82188,0.29161 -2.73242,0.4375 0.93095,0.37024 0.21802,-0.038 -0.42579,0.58203 -0.12179,0.11716 0.3376,-0.0357 0.50586,-0.0508 0.18378,-0.14113 0.72464,-0.57728 0.55078,-0.42383 -3.71715,3.27912 -2.48455,2.29953 -5.66796,4.56445 -3.57847,1.4934 -3.569,1.78651 -6.054692,1.58594 1.35e-4,0.008 -1.34e-4,0.0138 0,0.0215 0.01816,1.04221 -2.041761,1.577 -2.941406,1.05274 -0.756656,-0.44093 -1.324716,-0.76866 -1.970703,-1.14258 0.114347,0.56557 -0.583511,0.81743 -3.179688,2.08203 -0.575885,0.19448 -0.966557,0.32748 -1.455078,0.49609 a 307.09039,291.4377 0 0 0 82.589847,109.76563 c 0.59534,-0.5783 1.15219,-1.18278 1.52539,-1.91406 0.82441,-1.61541 0.5518,-3.63165 1.29687,-5.28516 2.91691,-6.47339 3.55848,-6.38056 8.01367,-10.35156 2.40959,-2.55538 4.93782,-5.00357 7.22852,-7.66602 2.38244,-2.76911 4.539,-5.72448 6.77734,-8.61133 6.99501,-9.02146 13.93901,-18.12608 19.8418,-27.91796 3.11335,-5.41637 5.83163,-10.77723 8.39453,-16.48243 0.87694,-1.95212 3.29539,-7.68944 3.81445,-9.56836 0.32294,-1.16889 0.32153,-2.40354 0.48243,-3.60546 0.86311,-5.84535 1.72593,-11.66137 3.09375,-17.41797 1.15012,-4.84041 1.36484,-1.98484 1.92382,-8.78516 0.1877,-2.28087 0.0202,-4.57669 0.0293,-6.86523 0.34128,-3.44425 0.47429,-6.91669 1.02344,-10.33399 0.12577,-0.78262 2.57702,-8.75896 2.79102,-9.77539 0.45502,-2.16117 -0.33657,-4.59558 -0.27149,-6.76367 -0.2314,-5.50027 -0.31163,-10.84844 0.36328,-16.3418 0.33222,-2.70406 0.8575,-2.94609 1.30664,-5.41601 0.0589,-0.32364 0,-0.65947 0,-0.98828 v -13.27344 -11.15821 -10.58789 -14.8125 c 0,-1.37039 0.13009,-2.61262 0.36328,-3.72851 -0.69793,-3e-5 -1.3958,5e-5 -2.09375,0 -6.45559,-1.9e-4 -12.91158,-7.9e-4 -19.36718,0 -0.59713,7e-5 -1.65983,0.58404 -1.79102,0.002 -0.0335,-0.14893 -0.0468,-0.31647 -0.0703,-0.47461 z m -73.56836,93.4375 c 0.8892,-0.39732 1.58634,-0.95013 -2.44336,-0.55468 -0.86165,0.0844 1.75515,0.091 2.57031,0.38281 0.20913,0.0748 -0.3779,0.24044 -0.58203,0.32812 0.10224,-0.0368 0.33534,-0.11382 0.45508,-0.15625 z M 156.66406,570.75 c 0.008,-0.0668 0.0137,-0.13426 0.0215,-0.20117 -0.24214,0.17259 -0.52947,0.43454 -0.73243,0.62305 0.30964,-0.10471 0.53499,-0.23998 0.71094,-0.42188 z m 0.0215,-0.20117 c 0.0492,-0.035 0.10715,-0.0894 0.15039,-0.11328 0.0214,-0.0118 0.0479,-0.0204 0.0703,-0.0312 0.29256,-0.54786 0.40646,-1.40236 0.68555,-2.83789 0.12546,-0.64528 -0.10517,-2.59013 -0.26758,-1.95313 -0.40895,1.60408 -0.44599,3.28763 -0.63867,4.93555 z m 58.80859,-80.09766 c 0.0384,1.2e-4 0.0768,-1.2e-4 0.11524,0 0.13121,-0.002 0.25884,-0.009 0.37695,-0.0254 -0.0645,-1.99116 -0.92761,-4.75823 -1.63867,-7.37695 -1.05692,3.86199 -1.7351,7.35526 1.14648,7.40234 z m -1.14648,-7.40234 c 0.72376,-2.64463 1.61533,-5.45143 1.68945,-7.4668 -0.13363,-0.0207 -0.2768,-0.0308 -0.42773,-0.0332 -0.0371,-1.2e-4 -0.0742,1.2e-4 -0.11133,0 -2.91038,0.0481 -2.20968,3.59886 -1.15039,7.5 z M 483.18164,250.9082 c -0.0251,-0.11143 -1.34013,1.92729 -1.86133,2.64258 -0.01,0.15399 -0.001,0.39345 0.006,0.625 0.63372,-1.00517 1.26406,-2.011 1.78125,-3.07812 0.0552,-0.11378 0.0778,-0.17354 0.0742,-0.18946 z m 14.64648,0.0703 c -0.1211,0.11055 -0.24876,0.21667 -0.3496,0.33984 -0.042,0.0514 0.13968,0.16303 0.16992,0.10352 0.0472,-0.0953 0.12055,-0.30466 0.17968,-0.44336 z m -135.57031,26.72265 c -0.74235,0.97635 -1.26443,1.76131 -1.1289,3.18945 0.0107,0.11311 0.0353,0.22518 0.0508,0.3379 0.21286,-0.8635 0.54033,-1.79148 1.08008,-2.96094 -7e-5,-0.18881 -0.002,-0.3776 -0.002,-0.56641 z m -0.86914,4.57031 c 0.0354,0.13467 0.0623,0.27159 0.10352,0.4043 0.0436,0.14049 0.35816,0.46195 0.29297,0.33008 -0.12342,-0.24957 -0.26077,-0.49126 -0.39649,-0.73438 z m 14.25781,7.00586 c -0.0309,0.57392 -0.0526,1.14824 0.0117,1.7168 0.0573,0.50612 0.22859,-1.04864 0.0547,-1.52734 -0.0216,-0.0595 -0.0445,-0.12731 -0.0664,-0.18946 z m -12.21679,15.8125 c -0.0166,-0.0267 -0.17496,0.13666 -0.3086,0.29883 0.0649,-0.026 0.13038,-0.0502 0.19532,-0.0762 0.0367,-0.0686 0.0623,-0.11115 0.0996,-0.18164 0.0124,-0.0234 0.017,-0.0356 0.0137,-0.041 z m -1.28125,2.30469 c -0.0322,0.0673 -0.0573,0.12061 -0.0879,0.18359 0.0378,-0.0656 0.0644,-0.11347 0.10351,-0.18164 -0.005,-5.2e-4 -0.0101,-5e-4 -0.0156,-0.002 z m 7.60156,1.58594 c -3.12864,1.18782 -6.58939,2.06693 -8.6543,1.31836 0.0529,0.3403 0.17532,0.78934 0.35157,1.53125 0.30743,0.4032 0.61461,0.80565 0.92187,1.20898 3.09139,-1.73927 5.40665,-3.00137 7.38086,-4.05859 z m 5.32422,0.81836 c 0.23975,0.78414 0.38638,1.56121 0.48047,2.34179 0.18632,-0.5548 0.0232,-1.17333 -0.48047,-2.34179 z M 117,354.87305 c -0.75204,1.05354 -1.63502,1.9397 -2.55469,2.49414 0.14996,0.0973 0.3087,0.18934 0.48438,0.26953 1.32372,0.60418 1.83028,-0.75755 2.07031,-2.76367 z m -11.45703,2.93945 A 307.09039,291.4377 0 0 0 68.126953,475.81836 c 0.149732,1.79387 0.221463,3.59465 0.267578,5.39648 -0.05467,-2.38014 -0.03812,-4.75637 0.248047,-7.11523 0.0697,-0.57596 1.157611,-0.004 1.736328,-0.008 3.099058,-0.0212 6.197697,-0.0429 9.296875,-0.043 2.080517,0.0104 4.159703,0.009 6.240235,0.008 6.048087,-0.001 12.096414,0 18.144534,0 8.18202,-3e-4 16.36485,0 24.54687,0 4.36276,4e-5 8.72513,0 13.08789,0 0.7978,0 1.61563,-0.17272 2.39453,0 1.54291,0.34193 3.06074,0.78231 4.5918,1.17383 0.72644,0.30474 1.39982,0.80257 2.17969,0.91406 0.91963,0.13153 1.85098,-0.17484 2.77929,-0.20508 1.25239,-0.0416 2.50685,0.003 3.75977,-0.0195 3.1807,-0.0574 6.35988,-0.15054 9.53906,-0.24219 -0.0318,-0.27126 -0.0902,-0.61755 0.0215,-0.47656 0.0254,0.0321 0.0489,0.0655 0.0742,0.0977 0.007,-0.11466 0.008,-0.18318 0.0156,-0.30469 -0.14189,-0.49582 -0.21342,-1.94624 -0.2207,-2.57617 -0.0186,-1.58073 -0.0246,-2.18442 0.0781,-2.70508 -0.48318,-0.97676 -0.93522,-1.97665 -1.4375,-2.91406 -0.17852,-0.33317 1e-5,-0.75678 0,-1.13477 -3e-5,-2.5906 -9e-5,-5.18088 0,-7.77148 -7e-5,-2.02432 -0.002,-4.04795 0,-6.07227 0.001,-3.15038 0.004,-6.30078 -0.008,-9.45117 0.008,-4.12233 0.0947,-8.24546 -0.0195,-12.36719 -0.0409,-2.43757 -0.39968,-5.94563 0.46875,-8.29687 0.0579,-0.15681 0.10267,0.31744 0.1543,0.47656 0.22522,0.26661 0.67436,1.14963 0.67578,0.80078 0.004,-0.89408 -2.43255,-3.50824 -2.63281,-4.29101 -1.27729,-4.99072 -0.68868,-9.9353 -1.1543,-4.25977 -3.9e-4,-3.16668 -1.12673,-6.13116 -2.8457,-8.74414 -1.24294,-2.26613 -2.2582,-4.39446 -3.06836,-6.86914 -0.19386,-0.59214 -0.0676,-1.26232 -0.28125,-1.84766 -0.12659,-0.34681 -0.38733,-0.62852 -0.58008,-0.94336 -1.02842,-1.67576 -5.69483,-9.09429 -5.15821,-10.16796 0.13715,-0.27447 0.93504,0.45968 0.90821,0.15429 -0.0368,-0.41813 -0.64321,-0.53911 -0.96485,-0.80859 -4.15283,-3.50347 -6.94506,-8.20526 -10.58984,-12.19727 -0.55246,-0.83919 -1.10369,-1.67845 -1.65625,-2.51758 -1.60011,-1.2534 -2.83455,-2.84563 -4.41016,-4.18554 -2.78171,-1.39394 -6.23763,-2.57386 -8.44336,-4.84766 -0.0999,-0.10315 1.12921,-0.11641 -0.0957,-0.42187 -0.93756,-0.0171 -1.88304,0.0733 -2.8125,-0.0508 -1.69985,-0.22703 -3.37411,-0.62002 -5.04687,-0.99805 -0.12125,-0.0274 -0.41958,-0.15908 -0.30664,-0.21094 0.32722,-0.15039 1.42483,-0.0777 1.07031,-0.14062 -7.68506,-1.36426 3.23755,1.65478 -6.16992,-1.20313 -0.35514,-0.20006 -0.56593,-0.31858 -0.85743,-0.48047 -1.29921,0.11392 -4.84252,0.52604 -5.89648,-0.0156 -0.0716,-0.0368 -0.1364,-0.0847 -0.20703,-0.12305 z m 527.15039,6.34961 c -0.0176,0.0356 -0.0334,0.0735 -0.0508,0.10937 0.12848,-0.0214 0.2587,-0.0351 0.38672,-0.0586 0.11138,-0.0204 -0.22369,-0.0338 -0.33594,-0.0508 z m 4.36133,2.11133 c -1.77095,0.18787 -4.73886,7.87455 -7.02344,12.02734 1.07787,0.0218 2.15939,0.11523 3.23633,0.0801 0.17106,-0.006 0.31543,-0.13427 0.47265,-0.20117 -0.86721,0.59743 -1.71911,1.2163 -2.60156,1.79101 -1.48985,0.97036 -2.44293,1.37428 -4.11133,2.20899 -0.52278,0.23304 -1.10517,0.36284 -1.56836,0.69922 -0.10204,0.0741 0.15158,0.24611 0.10547,0.36328 -0.10076,0.25527 -0.33496,0.4342 -0.5039,0.65039 -2.39205,3.06062 -0.4041,1.00824 -7.50586,4.15039 0.12403,0.0789 0.24828,0.15598 0.36719,0.24219 0.48208,0.34956 -0.98819,0.66305 -1.49219,0.98046 -0.42857,0.26979 -1.20294,0.77788 -1.90821,1.23829 -0.79217,2.32164 -2.13953,3.9978 -4.09179,5.66406 -0.39833,0.33997 -1.80753,0.98303 -1.29102,0.89648 0.66267,-0.11108 1.17558,-0.64957 1.76367,-0.97461 -0.67407,3.40335 -3.20611,5.80168 -4.63281,8.85157 -0.16562,0.36948 -0.22964,0.80241 -0.49609,1.10742 -1.01193,1.15867 -2.03205,2.33089 -3.16992,3.36523 -0.0941,0.70222 10e-4,-0.0441 -0.13672,1.00782 -1.2296,2.68694 -2.78745,5.20723 -4.76758,7.4082 -0.38188,0.42448 -1.06033,0.64767 -1.22852,1.19336 -0.11448,0.37183 0.68769,-0.36433 1.03125,-0.54688 -0.80908,3.92893 -2.93281,7.31456 -4.80273,10.78711 -1.56869,4.0331 -4.53118,4.43697 -7.54297,6.14649 -0.54614,0.30999 1.19931,-0.37757 1.76953,-0.64063 0.18456,-0.0852 0.44607,-0.5944 0.46875,-0.39258 0.0488,0.4108 -0.24832,0.78913 -0.37305,1.1836 -0.74687,3.58563 -3.30659,6.41866 -4.32226,9.86914 -1.56745,4.15279 3.05117,-0.24511 -1.69531,7.44922 -0.32988,0.53473 -0.78033,0.96038 -1.28125,1.34375 -0.16742,0.41248 -0.34553,0.82025 -0.55078,1.21484 -0.2772,0.53272 -1.67676,1.67258 -1.14649,1.39062 2.20244,-1.17082 1.19567,-3.38108 1.69336,0.61524 -0.28619,-3.02283 0.16882,1.17871 -1.38672,6.0625 -0.11886,0.37316 -0.35171,0.68819 -0.60742,0.99219 -0.16336,0.74122 -0.33625,1.47883 -0.49609,2.2207 0.21226,0.43788 -0.005,0.92631 -0.25586,1.42773 0.0553,1.23515 0.0708,2.20574 0.082,2.5879 0.10586,3.32602 -0.89778,6.60101 -2.85742,9.30859 -0.20498,0.2832 -0.52896,0.8477 -0.81446,1.26953 -0.029,0.16542 -0.0663,0.30009 -0.10742,0.42578 0.62242,0.10042 1.24583,0.18944 1.875,0.22852 4.81149,0.29858 11.04167,0.0465 15.95313,-0.082 4.78938,0.56655 9.77109,-1.15629 14.57226,-0.46289 3.59237,0.51871 5.75222,1.03482 9.15625,1.76953 11.17542,0.42954 22.36627,-0.2948 33.55469,-0.29102 10.80257,0.1234 21.60522,0.12091 32.4082,0.10547 A 307.09039,291.4377 0 0 0 648.06836,367.06641 c -1.00046,1.83762 -2.76508,3.68678 -5.45508,5.30078 -2.77889,1.66735 -3.42066,1.9431 -5.40039,3.44726 -0.0827,0.0917 -0.17502,0.18086 -0.24609,0.27539 -0.0397,0.053 -0.24394,0.0915 -0.19141,0.0508 0.17452,-0.13527 0.28194,-0.20798 0.4375,-0.32617 0.58272,-0.6461 1.36914,-1.24482 1.36914,-2.07812 0,-5.60218 -0.59971,-7.5613 -1.52734,-7.46289 z M 573.38281,481.3125 c 0.0711,-0.40502 0.12064,-0.92832 0.14063,-1.73828 -0.003,-0.0152 -0.003,-0.0148 -0.006,-0.0293 -0.18521,0.71653 -0.38438,1.42767 -0.59375,2.13672 0.0508,0.009 0.10154,0.0169 0.15234,0.0254 0.0894,-0.0915 0.19375,-0.22773 0.30664,-0.39453 z M 137.64648,368.86133 c -0.26063,-0.39688 0.43264,0.7924 0.7754,1.17969 -0.25876,-0.39316 -0.51703,-0.78628 -0.7754,-1.17969 z m 480.00586,4.44922 c -0.80776,0.45437 -1.59874,0.94369 -2.39453,1.42187 2.02424,0.0295 4.05331,0.11679 5.9961,-0.38086 1.21077,-0.31014 -2.40077,-0.69424 -3.60157,-1.04101 z m -16.91406,11.65625 c -0.17973,0.31565 -0.39657,0.72428 -0.50195,1.06836 -0.0605,0.19748 -0.10709,0.8134 -0.0371,0.61914 0.19959,-0.55535 0.37202,-1.1213 0.53906,-1.6875 z m -7.66992,13.04492 c -0.0143,0.0203 -0.044,0.0481 -0.0527,0.0644 -0.31419,0.59256 -0.56236,1.21724 -0.82617,1.83399 -0.22424,0.52433 0.47277,-1.03753 0.70899,-1.55664 0.0665,-0.1316 0.1085,-0.21827 0.16992,-0.3418 z m -4.85156,8.19531 c -0.0377,0.0708 -0.0897,0.15277 -0.11133,0.21094 0.21039,3.02672 0.10169,1.57492 0.11133,-0.21094 z m -141.83594,42.02735 c -0.14345,0.0956 -0.27382,0.195 -0.38477,0.29882 -0.004,0.32353 -0.14362,1.26967 -0.0195,0.97071 0.17272,-0.41649 0.29831,-0.84149 0.4043,-1.26953 z m 134.77344,2.60546 c -0.0118,0.007 -0.043,0.0575 -0.0977,0.16211 -0.47739,0.91335 -0.81651,1.89171 -1.19141,2.85352 0.0614,-0.0493 0.18054,-0.14609 0.23243,-0.1875 0.27984,-0.77737 1.13913,-2.87632 1.05664,-2.82813 z m -3.6211,4.90235 c -0.17959,0.13199 -0.36908,0.25399 -0.53515,0.39843 -0.42593,0.37067 -0.0459,0.0704 0.53515,-0.39843 z m -120.64062,1.97851 c -8.61603,5.31643 -0.83451,1.38303 -0.39453,0.71875 0.15147,-0.22869 0.27915,-0.47022 0.39453,-0.71875 z m -0.14063,1.05078 c -0.003,0.005 -0.001,0.0264 0.01,0.0684 0.17361,0.72109 0.26511,1.02443 0.37695,1.42969 -0.0112,-0.15148 -0.0124,-0.30419 -0.0273,-0.45508 -0.0298,-0.30081 -0.33706,-1.07817 -0.35938,-1.04297 z m -283.20898,0.57422 c -0.27037,0.0233 -0.35243,0.15271 -0.11914,0.43164 1.59957,1.91255 4.00378,2.96112 6.10937,4.33789 -0.40859,-1.07468 -0.99447,-2.24567 -1.90625,-3.16601 -0.76775,-0.77511 -3.27288,-1.67338 -4.08398,-1.60352 z m 283.35156,4.07422 c -0.0227,0.0435 -0.0504,0.0851 -0.0723,0.12891 -0.22755,0.68405 -0.0908,0.33487 0.0723,-0.12891 z m 120.65235,1.28906 c -0.22689,0.25858 -0.45815,0.51467 -0.64258,0.79688 -0.18981,0.29042 0.45393,-0.4432 0.64258,-0.79688 z m -409.66993,2.18555 c 0.1304,-0.38528 -0.28124,0.76288 -0.42187,1.14453 -9.2e-4,0.0113 -6.8e-4,0.0181 -0.002,0.0293 0.12659,-0.33927 0.24028,-0.63149 0.42383,-1.17383 z m 404.29688,2 c -2.16566,-0.0631 -4.79051,0.45692 -7.1836,0.56445 2.48487,0.23899 6.01839,1.69694 8.52539,2.45899 0.003,-0.0338 0.007,-0.0677 0.01,-0.10156 0.034,0.0492 0.0848,0.093 0.125,0.14062 2.02005,0.60194 3.32618,0.71174 2.7207,-0.77148 -0.69816,-1.71027 -2.26261,-2.23467 -4.19726,-2.29102 z m 4.42578,0.0684 c -0.0909,0.2613 -0.13618,0.52187 -0.0801,0.77539 0.0559,0.25221 0.36084,-0.69388 0.11328,-0.76758 -0.0102,-0.003 -0.023,-0.005 -0.0332,-0.008 z m -394.97656,2.08984 c 0.0228,0.22528 0.0572,0.44924 0.0859,0.67383 0.003,-0.008 0.009,-0.0238 0.0117,-0.0312 0.016,-0.0506 0.0509,0.20683 0.043,0.1543 -0.0408,-0.26646 -0.16784,-1.06522 -0.14062,-0.79688 z m -14.48243,1.82422 c -0.0135,-0.0582 -0.0667,0.28805 -0.13476,0.79688 0.0214,0.10715 0.0647,0.21595 0.10156,0.32422 0.0325,-0.58805 0.0512,-1.04385 0.0332,-1.1211 z m 73.5,0.61133 c -1.74806,0.0657 -2.91578,0.39862 -3.07226,1.10938 -0.11119,0.50502 -0.13594,0.58821 -0.22266,0.94922 0.31055,0 0.62109,-10e-6 0.93164,0 1.25849,5e-5 2.51693,-2e-5 3.77539,0 0.16837,-0.684 0.33015,-1.36982 0.51368,-2.03907 -0.69561,-0.0333 -1.34309,-0.0414 -1.92579,-0.0195 z m 328.66797,0.63867 c -1.36416,-0.008 -1.94194,3.14614 -2.45312,6.61524 1.10173,0.1556 2.20364,0.30778 3.30469,0.46679 0.88105,0.12725 1.75697,0.30059 2.63476,0.45313 -0.0948,-1.17315 -0.0391,-2.34761 0.0566,-3.52149 -0.18568,-0.26714 -0.43158,-0.63772 -0.78125,-1.22265 -1.18314,-1.97917 -2.07233,-2.78722 -2.76172,-2.79102 z m -500.896481,7.75586 c 0.05242,2.3342 0.07177,4.66962 0.171875,7 0.0091,-2.32953 -0.106381,-4.66582 -0.171875,-7 z m -0.509765,6.51367 c 0.01292,0.16482 0.03074,0.32937 0.04297,0.49414 0.01177,0.15761 -0.319435,-0.01 -0.478515,-0.008 -0.100094,0.002 -0.03768,0.004 -0.123047,0.006 a 307.09039,291.4377 0 0 0 -0.261719,9.75977 307.09039,291.4377 0 0 0 17.195313,95.83398 c 0.878872,-0.30365 1.755424,-0.61591 2.636718,-0.91211 1.583796,-0.38459 2.941753,-0.75103 4.144532,-1.05664 1.669478,-1.62887 1.870976,-1.24043 7.875,-1.90039 0.06427,-0.007 0.127054,0.005 0.189453,0.0156 0.05756,-0.0311 0.114761,-0.0634 0.164062,-0.10743 0.632856,-0.56451 1.050801,-1.34531 1.695311,-1.89648 2.54517,-2.17648 4.96297,-3.10582 8.12696,-3.82617 2.14381,-1.56431 1.96835,-1.59491 4.93164,-2.74219 0.39166,-0.15194 1.24394,-0.7048 1.22656,-0.28516 0.6091,-1.04859 1.10071,-1.84882 0.53515,-0.67578 1.04924,-0.89076 1.89773,-2.09522 3.14649,-2.67382 13.42616,-6.22179 4.09061,-0.57989 3.64453,-0.22461 -0.56648,0.45097 2.68501,-1.67137 1.87891,-1.08985 0.32194,-0.21424 2.70373,-1.77297 4.06836,-2.39648 0.83592,-1.28273 2.62409,-1.92454 3.82031,-2.96485 1.24961,-0.4676 3.07592,-1.13893 4.26953,-1.64062 0.60965,-0.25622 1.17506,-0.6405 1.79687,-0.85352 -0.3189,-0.3614 1.10108,-0.61692 2.67969,-0.77343 0.6698,-0.90885 1.19651,-1.98874 1.88281,-2.94727 0.52011,-2.6077 1.63092,-4.04972 3.74805,-6.06445 -0.74543,-3.09784 -0.20606,-5.23555 3.44531,-3.22461 2.20791,-2.21677 4.50037,-4.39682 6.84375,-6.46875 0.0689,-0.0609 -0.24967,0.37649 0.0566,0.26953 1.81895,-3.71709 3.84607,-6.74736 6.80664,-10.0332 0.0435,-0.0306 0.0472,-0.0317 0.0879,-0.0606 -2.6e-4,-0.50323 1.7e-4,-1.00655 0,-1.50977 1e-5,-1.41649 0.0125,-2.83159 0.002,-4.24804 -0.008,-0.48883 0.0487,-2.17889 0.0957,-3.53125 -0.36277,-3.35426 -1.19406,-7.35838 1.06445,-10.25 0.11324,-0.14499 -0.0405,0.36394 -0.0605,0.54687 0.1305,-0.0208 0.36908,0.0679 0.39062,-0.0625 0.41705,-2.5279 -0.23174,-5.23295 -0.002,-7.79101 0.004,-1.42844 0.0204,-2.85688 -0.008,-4.28516 -0.0277,-1.34244 -0.0589,-2.83418 0.17968,-4.11328 -0.1806,-0.0318 -0.36262,-0.0607 -0.54296,-0.0937 -0.54772,-0.10103 0.006,-1.1155 0.0586,-1.66992 0.25661,-2.68044 0.7153,-5.07309 1.16211,-7.75391 0.29533,-1.77199 0.77467,-3.28577 1.38086,-4.5625 -7.58778,0.28832 -15.18177,0.52148 -22.68945,-0.77148 -0.47137,-0.0812 -0.8745,-0.38418 -1.3125,-0.57618 0.13083,-0.10507 0.5111,-0.19735 0.39257,-0.3164 -0.16633,-0.16706 -0.47321,0 -0.70898,0 h -1.68555 -13.08789 c -8.18201,-4e-5 -16.36486,-3e-4 -24.54687,0 -6.045781,0 -12.090974,-10e-4 -18.136722,0 -2.082867,0.004 -4.165194,0.004 -6.248047,-0.008 -3.099103,-2.7e-4 -6.197912,0.0354 -9.296875,0.043 -0.780011,0 -2.136845,0.74705 -2.339844,-0.008 -0.0528,-0.19586 -0.08869,-0.39503 -0.136718,-0.5918 z m 73.205076,80.08204 c -0.0945,0.12829 -0.19733,0.24684 -0.29883,0.36718 0.63503,-0.0663 1.27071,-0.12728 1.90625,-0.1914 -0.008,-0.11192 -0.006,-0.19684 -0.01,-0.29883 -0.51871,0.029 -1.05181,0.0689 -1.59766,0.12305 z m -0.29883,0.36718 c -0.68756,0.0718 -1.37352,0.15636 -2.04882,0.30078 -0.11427,0.0245 -0.22217,0.0678 -0.33204,0.10547 0.13263,0.1503 0.5628,0.31905 1.41016,0.50391 0.37183,-0.25086 0.68263,-0.56859 0.9707,-0.91016 z m 170.23633,-78.54101 c -0.58302,0.0179 -1.16854,0.0638 -1.75781,0.14453 h -6.18945 -7.74024 -19.66797 c -6.56719,0 -13.13397,4e-5 -19.70117,0 -0.47919,0 -0.95832,-1e-5 -1.4375,0 0.23319,1.11589 0.36328,2.35812 0.36328,3.72851 v 14.8125 10.58789 11.15821 13.27344 c 0.29698,3.32277 -1.28426,6.47321 -1.67578,9.70312 -0.4928,4.06617 -0.1927,8.31643 -0.008,12.39258 0.7923,5.79878 -0.0228,9.63162 -1.45703,15.54492 -0.46629,1.92242 -1.29996,3.75772 -1.61328,5.71094 -0.39924,2.4887 -0.3425,5.03017 -0.51368,7.54492 0.033,6.73489 0.30933,6.09665 -1.17187,13.73047 -0.31254,1.6108 -0.92873,3.1504 -1.30273,4.74805 -1.1951,5.1047 -1.91392,10.30576 -2.67579,15.48632 -0.1516,1.1359 -0.1577,2.30152 -0.45507,3.40821 -2.98731,11.11717 -8.38097,21.52301 -14.04102,31.47265 -6.21473,10.38369 -13.55409,20.02917 -20.95117,29.58203 -2.27622,2.93957 -4.47104,5.94622 -6.89453,8.76563 -2.57017,2.99002 -5.38176,5.76624 -8.07227,8.64844 -1.56002,1.41698 -3.36358,2.60397 -4.67969,4.25 -5.31976,0.71043 -0.22528,2.60085 -0.81445,3.72851 -1.49039,2.85264 -3.10938,5.6445 -4.87305,8.33789 a 307.09039,291.4377 0 0 0 154.33008,60.91407 c -0.0714,-1.12218 -0.0959,-2.25003 0.0684,-3.16211 0.30888,-1.71527 0.85394,-3.38011 1.34375,-5.05274 0.0541,-0.18459 0.39163,0.57337 0.42969,0.38477 0.12713,-0.62967 -0.002,-1.28342 -0.002,-1.92578 -10e-4,-3.49595 0.005,-6.99245 0.008,-10.48828 -0.007,-3.2843 -0.0774,-6.57017 0.0391,-9.85352 0.0835,-5.20607 -0.27713,-10.32673 -0.4082,-15.52539 0.15946,-1.87914 0.23677,-3.76638 0.47851,-5.63672 0.50157,-3.88082 1.93771,-7.22601 1.47071,-11.11133 0.0238,-4.83602 -1.45048,-9.72834 1.21484,-14.27148 0.80566,5.23812 -0.24051,-2.98622 0.27344,-3.45117 0.0348,-2.82014 0.096,-5.9289 0.0176,-8.72461 -0.0868,-3.09487 -0.70035,-6.20446 -0.66407,-9.29883 0.0196,-1.6684 0.20433,-3.33068 0.30664,-4.9961 1.09259,-5.79685 2.58594,-11.66086 3.24024,-17.52929 0.1816,-1.63057 -0.29296,-3.29604 -0.0312,-4.92188 -0.0415,-3.44519 0.0767,-6.87148 0.2207,-10.31054 -0.52236,-8.04734 -2.05728,-15.83748 1.43945,-23.51563 0.91076,-2.82542 2.25015,-6.77954 2.85743,-9.60156 1.17439,-5.45741 0.23167,-11.20126 2.00586,-16.56641 0.37797,-1.00539 0.73958,-2.01613 1.13281,-3.01562 0.33451,-0.85028 0.91737,-1.62708 1.04883,-2.53125 0.15802,-1.08707 -0.72578,-2.32393 -0.20118,-3.28907 1.91353,-3.52032 5.91766,-5.82425 7.21485,-9.61523 0.56487,-1.6508 -3.43247,0.67955 -4.80274,2.60742 -0.14319,0.4286 -0.28363,0.85769 -0.43164,1.28711 -0.0898,-0.36055 0.0941,-0.81214 0.43164,-1.28711 1.75707,-5.25907 3.09616,-10.47481 2.51953,-16.125 0.002,-3.27073 -0.004,-6.54177 -0.002,-9.8125 0.009,-2.8656 0.0103,-5.73213 -0.0215,-8.59765 -5.9e-4,-0.0951 0.0309,-5.19449 0.10937,-7.16016 -0.50761,-1.41615 -0.63979,-5.31241 -0.63867,-5.45117 0.0633,-7.83028 0.42699,-10.05889 3.45703,-14.25196 -0.0573,-1.61833 0.13289,-3.81975 0.0781,-5.73632 0,-2.30007 3e-5,-4.60033 0,-6.90039 1.6e-4,-2.21246 8.4e-4,-4.42618 0,-6.63868 -9e-4,-4.35938 3e-5,-8.7187 0.002,-13.07812 -5e-4,-0.29097 -5.5e-4,-0.58208 -0.002,-0.87305 -3.32512,0.0273 -6.65114,0.0498 -9.97461,-0.0566 -6.90285,-0.0804 -13.75124,0.49406 -20.65821,0.41016 -2.83465,-0.16116 -5.67769,-0.21301 -8.5039,-0.48438 -4.04028,-0.38818 -7.98523,-1.64128 -12.06641,-1.51562 z m 66.11133,1.62109 c 8.5e-4,0.29095 5.5e-4,0.58211 0.002,0.87305 -0.001,4.36751 -0.005,8.73405 -0.004,13.10156 8.4e-4,2.21367 1.6e-4,4.42696 0,6.64063 3e-5,2.29972 0,4.60066 0,6.90039 -10e-6,1.88265 0,1.087 0,3.78906 v 2.07617 c 0,0.25126 0.19971,0.60159 0,0.75391 -9.83437,7.50871 -14.35589,6.37925 -8.11524,7.28906 1.76702,-0.33691 3.79537,-1.99445 5.30078,-1.00977 1.14716,0.75035 -0.50509,2.69787 -0.63476,4.0625 -0.0878,0.92493 -0.10015,1.85515 -0.0977,2.78516 0.078,-0.009 0.15325,-0.0185 0.22656,-0.0273 1.03752,-1.44481 4.11819,-0.49614 0,0 -0.0963,0.13408 -0.17429,0.28705 -0.22656,0.46484 0.001,0.13932 -0.002,0.27874 0,0.41797 0.006,0.43139 0.31909,1.68659 0.16602,1.2832 -0.27379,-0.72156 -0.29126,-1.27519 -0.16602,-1.70117 -10e-4,-0.14583 4.6e-4,-0.29162 0,-0.4375 -2.22294,0.24295 -6.29177,0.35826 -13.57617,-0.0391 14.51528,4.41014 14.44785,-0.61627 14.23242,6.46094 -0.0645,2.11789 -0.12764,4.21509 -0.11328,6.33593 0.0317,2.91213 0.0302,5.8242 0.0215,8.73633 -0.002,3.25833 0.003,6.51706 0.002,9.77539 0.61204,7.69459 -1.29817,15.03332 -3.75781,22.24024 0.60694,0.36625 0.0817,1.25466 -0.92579,2.26953 -0.0286,0.27838 -0.0624,0.58029 -0.0898,0.76953 -0.95329,6.56829 -1.14675,6.44193 -3.03516,11.77148 -0.67816,4.3499 -0.31368,8.84995 -1.20898,13.1836 -1.10573,5.35219 -1.92568,7.58659 -3.4668,12.4375 0.42153,2.33495 -1.86288,4.18424 -2,6.42187 -0.0434,0.70798 0.26978,1.39227 0.375,2.09375 0.12824,0.85455 0.23812,1.71242 0.32422,2.57227 0.28395,2.83593 0.36378,4.28371 0.53711,6.91211 -0.0231,3.70794 -0.23586,7.39225 -0.18945,11.10156 0.31654,8.57824 -1.88751,17.01738 -3.4668,25.39648 -0.0218,0.97803 -0.089,1.95561 -0.0644,2.9336 0.063,2.50133 0.57169,5.0616 0.64648,7.58398 0.11577,3.90898 0.0583,6.18179 0.0156,9.91797 -0.0451,1.81405 -0.0536,2.29432 -0.0801,2.91602 0.0287,0.34343 0.0363,0.80149 -0.008,1.02929 -0.0173,0.0937 -0.0418,0.18589 -0.0605,0.2793 v 0.002 c -0.31622,1.57528 -0.82023,3.10845 -1.22461,4.66406 -0.29896,0.64982 -0.68835,1.26686 -0.89648,1.95118 -0.0761,0.25024 0.26942,0.27492 0.31054,0.45898 0.11607,0.51927 0.23048,1.04331 0.26563,1.57422 0.0934,1.40678 0.13239,2.81632 0.19922,4.22461 0.57038,4.92918 -1.12338,9.6032 -1.74219,14.41601 -0.16619,1.2926 -0.16288,2.60166 -0.24414,3.90235 0.2956,4.88175 0.52721,9.73679 0.45117,14.63672 -0.11357,3.19385 -0.0466,6.38919 -0.0391,9.58398 -0.003,3.50559 -0.007,7.01004 -0.006,10.51563 10e-4,2.88121 0.1547,2.83357 -1.13672,6.52148 -0.33497,0.9566 -1.08642,1.73228 -1.41406,2.69141 -0.0721,0.21108 0.39307,-0.3896 0.59765,-0.30078 0.0352,0.0153 0.20305,1.60027 0.2461,1.98242 0.009,0.0675 0.0129,0.13555 0.0215,0.20312 a 307.09039,291.4377 0 0 0 21.06641,0.77149 307.09039,291.4377 0 0 0 75.51953,-8.97852 c -1.60264,-6.0096 -2.90724,-12.08875 -3.5293,-18.30273 -1.10815,-8.40794 -1.97885,-16.86383 -3.2832,-25.24414 -0.22908,-1.47168 -0.6212,-2.91683 -0.82227,-4.39258 -0.33316,-2.44566 -0.51926,-4.90878 -0.77929,-7.36328 0,-10.91154 -0.22473,-21.82168 -0.0156,-32.73242 0.22262,-5.31274 0.93042,-11.55447 0.19141,-16.8418 -0.18187,-1.30125 -0.65875,-2.54741 -0.87305,-3.84375 -0.34972,-2.11714 -0.54428,-4.25629 -0.81641,-6.38477 0,-10.51196 0.004,-21.02319 -0.008,-31.53515 0,-9.09392 0.0556,-18.18936 0.008,-27.28321 -0.11168,-4.08582 0.0332,-8.12565 0.3711,-12.20312 0.0374,-12.94345 -2.70638,-25.73674 -1.86328,-38.71485 -3.4e-4,-8.85369 -9.1e-4,-17.7088 0,-26.5625 0,-4.92305 -0.0185,-9.8465 0.0117,-14.76953 0.0229,-3.66519 -0.11362,-7.32845 -0.004,-10.98828 0.12874,-0.0243 0.26756,-0.0354 0.40039,-0.0547 -2.2e-4,-0.007 0.002,-0.0212 0.002,-0.0273 -0.23402,-3.44428 -0.43115,-3.98543 -1.05273,-7.71484 h -0.002 c -0.16004,-0.96023 -0.24737,-1.8666 -0.27344,-2.71875 -4.03385,-7.2e-4 -8.0677,0.002 -12.10156,-0.004 -4.964,0 -9.9266,0.0722 -14.89063,0.004 -3.71218,-0.0623 -7.26674,-0.34576 -10.89648,0.375 -4.3191,-0.0433 -8.4926,-0.68675 -12.7793,-1.14649 -6.28235,-0.67366 -6.60776,-0.73601 -9.53125,-0.73242 z m 75.10937,1.50781 c 0.0215,0.0896 0.0477,0.17272 0.0684,0.26368 0.23625,1.03789 1.99992,11.42166 0.81055,14.02539 0.18156,2.20943 0.0593,5.08465 0.0469,7.29687 -0.034,4.89275 -0.0134,9.7869 -0.0117,14.67969 -9.1e-4,8.85528 -0.002,17.70921 -0.002,26.56445 -0.22102,6.96 0.0246,13.80524 0.72071,20.73047 0.20379,2.02772 0.55213,4.03938 0.7207,6.07031 0.48473,5.83843 0.41249,6.87043 0.42383,11.91602 -0.29291,3.95221 -0.48543,7.84361 -0.37695,11.79492 0.0585,9.22995 -0.002,18.46135 -0.002,27.69141 0.0113,10.51279 0.01,21.02435 0.008,31.53711 0.22461,1.44328 0.40132,2.89503 0.67382,4.33007 0.15837,0.83456 0.50267,1.63096 0.61719,2.47266 0.94681,6.95142 0.48627,13.91481 0.19336,20.89258 -0.18444,10.70196 0.0292,21.40287 0.0293,32.10547 1.75022,11.65648 3.21633,23.35726 4.75781,35.05078 0.54302,5.57535 1.70349,11.02785 3.13867,16.41601 A 307.09039,291.4377 0 0 0 631.82422,657.06836 c -0.38412,-0.38727 -0.74478,-0.79433 -1.08399,-1.2207 -0.94688,-0.43206 -1.71511,-0.97042 -2.19921,-1.87891 0.0597,0.18237 0.1158,0.36666 0.15429,0.55664 0.35554,1.75457 -3.19324,-4.53159 -2.69336,-4.64648 0.2445,0.43007 0.37495,0.9489 0.73438,1.28906 0.27862,0.26362 -0.2343,-0.74943 -0.47656,-1.04688 -2.18128,-2.67594 -4.93592,-5.02504 -7.49024,-7.33789 -1.06515,-0.96442 -2.13155,-1.9288 -3.19726,-2.89258 -3.41579,-3.10822 -3.36031,-2.85504 -6.76563,-7.13085 -0.24979,-0.31389 -0.33415,-0.73192 -0.53711,-1.07813 -2.10024,-3.58027 -4.5972,-6.89055 -7.23633,-10.08984 -0.81312,-0.81003 -4.11152,-4.13861 -4.94922,-4.78907 -0.79615,-0.61821 -1.75978,-0.99391 -2.58398,-1.57421 -3.05072,-2.14795 -5.34322,-4.21258 -7.49219,-7.22657 0.49633,0.18497 1.89072,0.90127 1.49024,0.55469 -1.14932,-0.99458 -2.73537,-1.47364 -3.73438,-2.61914 -2.88348,-3.30634 -3.14513,-6.79582 -2.8789,-10.66406 -0.96022,-0.99568 -1.88579,-2.02653 -2.72461,-3.125 -2.95113,-3.86457 -3.38104,-6.00982 -5.47071,-10.9336 -0.0353,-1.76231 -0.42754,-3.17014 -0.75976,-4.91796 -0.0529,-0.26589 -0.26267,-0.66857 -0.0332,-0.8125 0.0115,-0.007 0.0233,5.1e-4 0.0352,0 -0.32218,-0.59285 -0.64881,-1.18344 -0.97266,-1.7754 -1.88207,-5.14976 -1.90136,-6.10145 -2.0996,-9.91796 -0.0235,-0.0429 -0.0437,-0.087 -0.0645,-0.13086 -0.64958,-0.37094 -1.50274,-1.04771 -2.19531,-2.41211 -0.8869,-1.74728 -1.10211,-3.76501 -1.50977,-5.68164 -0.005,-0.0249 0.26447,-2.45027 0.47461,-0.72461 0.167,0.21079 0.33535,0.41975 0.50196,0.63086 -0.0319,-0.0496 -0.0889,-0.10703 -0.10157,-0.14454 -0.74713,-2.21859 -1.27267,-4.50755 -2.02929,-6.72265 0.0107,0.17474 0.003,0.40848 -0.0664,0.72461 -0.0669,0.30576 -0.10485,-1.23287 -0.002,-0.9375 0.0246,0.0704 0.0442,0.14229 0.0684,0.21289 -0.0334,-0.5465 -0.24869,-0.47626 0.65429,-0.2168 -2.43325,-4.02129 -0.90869,-1.03511 -1.71875,-7.02929 -0.39552,-0.058 -0.46208,-0.97641 -0.44336,-1.65821 -1.89472,-3.52259 -2.13704,-6.6735 -1.92578,-10.76562 0.0469,-2.08381 0.10241,-0.31186 -0.0254,-2.83008 -0.0462,-1.01551 -0.0496,-1.70304 -0.0137,-2.21289 -1.65416,-1.65018 -1.72945,-3.35295 -1.25586,-6.625 -0.61986,-1.24434 -1.13354,-2.54344 -1.65625,-3.83203 -0.0635,-0.15473 -0.058,-0.32574 -0.0547,-0.4961 -0.74733,-1.04396 -1.15269,-2.26281 -1.41601,-4.64257 -0.48877,-0.53382 -0.9538,-1.08504 -1.33203,-1.70118 -1.2652,-2.06097 -0.13735,-5.26033 0.21679,-7.17968 0.33796,-0.13289 0.67314,-0.27738 1.00782,-0.42188 0.0538,-1.24744 0.10932,-2.59095 0.0703,-4.07226 l -0.002,0.002 c -0.005,-0.19489 0.004,-0.37667 0.004,-0.56641 -3.10806,-0.36876 -6.22045,-0.69467 -9.34375,-0.92383 -8.45582,0 -16.91136,4e-5 -25.36719,0 -11.25913,-3e-5 -22.51824,-1.9e-4 -33.77734,0 -11.76307,0 -23.52791,-7.8e-4 -35.29102,0 z m 110.16211,46.26758 c 0.0767,0.14252 0.17566,0.28977 0.25782,0.4336 -0.0581,-0.37205 -0.0882,-0.63756 -0.16211,-1.06641 -0.0394,-0.22862 -0.0825,0.15282 -0.0957,0.63281 z m 0.25782,0.4336 c 0.0667,0.4272 0.13706,0.86582 0.18554,1.22461 0.11402,0.0167 0.25073,-0.0351 0.42188,-0.19922 -0.2263,-0.34872 -0.41332,-0.6856 -0.60742,-1.02539 z m 6.10937,23.52539 c 0.0205,0.0117 0.0385,0.0221 0.0586,0.0332 -0.048,-0.92009 -0.0918,-1.83217 -0.19141,-3.20313 -0.0673,-0.92568 -0.19773,1.87487 -0.008,2.78321 0.0285,0.13574 0.0819,0.26256 0.14062,0.38672 z m 0.0586,0.0332 c 10e-4,0.0281 0.004,0.0699 0.006,0.0977 0.21427,0.39139 0.52701,0.74473 0.73632,1.14062 0.12201,0.23078 -0.27573,-0.44258 -0.41406,-0.66406 0.99661,-0.18285 0.5412,-0.0944 -0.32812,-0.57422 z m 59.6875,90.27539 c -0.0922,-0.28164 -0.20736,-0.55426 -0.3379,-0.82227 0.0897,0.30649 0.20637,0.57543 0.3379,0.82227 z m -0.3379,-0.82227 c -0.12373,-0.42293 -0.20542,-0.90852 -0.24218,-1.46875 -0.54488,-0.87656 -1.10089,-1.74343 -1.72461,-2.55468 -0.12321,-0.16082 -0.0789,0.4226 0.006,0.60742 0.53946,1.18472 1.39338,2.25059 1.96093,3.41601 z m -0.24218,-1.46875 c 0.88675,1.42656 1.74739,2.87284 2.77929,4.16993 0.46279,0.21116 0.98029,0.39974 1.52149,0.59179 a 307.09039,291.4377 0 0 0 1.70508,-2.45507 c -0.11783,-0.76709 -0.22771,-1.50459 0.004,-1.0918 0.13508,0.24122 0.20486,0.39438 0.32618,0.61719 a 307.09039,291.4377 0 0 0 0.47656,-0.6875 c -1.60341,-1.25173 -3.58782,-2.73464 -6.12305,-4.56055 -0.92515,-0.66641 -0.76297,2.20934 -0.69727,3.34766 10e-4,0.0244 0.006,0.0443 0.008,0.0684 z M 603.42188,496.14258 c -3.90602,-0.12859 -8.29343,1.48942 -11.94336,0.64258 -7.09868,0.17196 -11.10497,0.39553 -18.56836,-0.082 -0.658,-0.0421 -1.31009,-0.13818 -1.96094,-0.24609 v 5.91992 c 0,0.24847 0.23131,0.65381 0,0.74414 -0.14651,0.0573 -0.29614,0.10665 -0.44336,0.16211 0.16003,0.24723 0.31527,0.49724 0.47852,0.74219 0.36412,4.04466 0.6031,3.32503 -0.30665,5.08594 -0.004,0.099 -0.003,0.19785 -0.0117,0.29687 -0.0507,0.59727 -0.33593,1.13417 -0.6504,1.66211 0.75678,2.88258 1.79264,4.71667 2.3086,0.89649 -0.45971,-1.32163 -2.38352,-9.58623 1.50781,0.96093 0.78869,2.13753 0.44273,3.64168 0.22461,5.71875 0.45842,0.24047 0.92058,0.47458 1.37305,0.72461 0.41482,3.1464 0.5285,4.71273 -0.0547,6.09961 0.13702,1.21402 0.0151,2.43612 0.0332,3.65039 0.003,1.13921 0.008,2.27876 0.0117,3.41797 0.0642,0.0785 0.10248,0.12224 0.20508,0.24805 1.15714,2.68316 1.80795,5.19459 1.61328,7.92969 0.96552,3.45345 1.53938,4.52165 1.54492,7.36914 0.33156,0.74287 0.65011,1.49182 0.98633,2.23242 0.4003,2.35231 0.48343,2.36912 0.40039,3.92383 0.43193,0.47107 -0.0207,-0.0174 0.64453,0.70312 1.38796,2.00935 2.15708,2.79683 2.51953,5.73242 0.16464,1.33342 -0.47566,2.67455 -0.36718,4.01368 0.0192,0.23727 0.55861,-0.44068 0.67382,-0.23243 0.3837,0.69298 0.24778,1.57035 0.48438,2.32618 0.15734,0.50252 0.45966,0.94803 0.68945,1.42187 1.87125,2.42808 2.5827,9.22248 2.76367,12.30469 2.5527,1.56132 0.17871,-0.13346 3.06446,3.49023 3.24631,4.07645 3.76822,0.14479 5.38476,9.16407 0.19261,1.07454 -0.16129,2.14354 -0.50976,3.21289 1.43472,1.10772 1.54831,1.46501 2.99219,3.5 0.0667,0.0735 2.06257,2.27817 2.12304,2.32617 0.45774,0.3623 2.65126,1.45206 3.10352,1.80469 3.97489,3.09925 4.55771,3.81903 7.77734,6.98242 3.47728,4.00392 6.67589,8.22721 9.39258,12.7832 0.40244,0.67491 0.61644,1.46777 1.11133,2.07813 0.41832,0.51594 1.0614,0.80165 1.57031,1.22851 0.66561,0.55828 1.30222,1.14925 1.95313,1.72461 4.38277,4.36124 10.87538,8.87206 13.77734,14.36719 0.23576,0.44642 0.41214,0.9195 0.57422,1.39844 a 307.09039,291.4377 0 0 0 41.37109,-145.92383 307.09039,291.4377 0 0 0 -0.0195,-0.73633 c -10.95533,0.0165 -21.9103,0.0199 -32.86523,-0.10547 -4.98327,-0.003 -7.46274,-0.0251 -12.8418,0.0898 -7.95092,0.16971 -15.93417,0.93957 -23.85742,-0.13476 -2.20649,-0.47857 -4.39936,-1.0225 -6.61719,-1.44531 -0.53482,-0.10197 -1.08267,-0.15546 -1.64062,-0.17383 z m -33.40626,14.92773 c -0.0332,-0.12656 -0.0656,-0.25862 -0.0977,-0.38867 -0.21392,0.46621 -0.44366,0.97704 -0.7207,1.64258 -0.0457,0.11036 0.19204,-0.15671 0.24609,-0.26367 0.16812,-0.33405 0.37613,-0.66086 0.57226,-0.99024 z m -0.0977,-0.38867 c 0.31126,-0.67835 0.5649,-1.19313 0.75976,-1.57031 0.0541,-1.46844 -0.38667,-2.92951 -0.55664,-4.39453 -1.50078,-2.35706 -1.0856,2.3841 -0.20312,5.96484 z m -119.8125,-11.33398 c -3.06093,0.0946 -8.19644,1.65902 -10.85938,2.30468 -0.76577,0.1857 -0.55257,1.29259 -0.54101,2.23438 4.72103,-0.67357 11.88718,1.67757 13.68945,-2.60742 0.6374,-1.51548 -0.45251,-1.98843 -2.28906,-1.93164 z m 118.89258,4.47656 c -3.8361,1.2914 -7.8332,2.15632 -11.51953,3.82226 -0.32656,0.14758 0.11608,0.594 0.58984,0.84571 0.18903,-0.49076 0.46564,-1.17841 0.48242,-1.13281 0.18513,0.47147 0.32763,0.81422 0.5,1.24609 3.14973,-0.51319 6.16339,-1.69423 9.24805,-2.52344 0.35626,-0.96704 0.58087,-1.68752 0.69922,-2.25781 z m -3.16407,9.44336 c -0.53292,0.0436 -0.98672,0.213 -0.70898,0.40625 1.69208,1.17776 3.50275,2.16549 5.33789,3.11328 -0.91161,-0.99418 -2.05772,-2.11249 -3.54883,-3.3457 -0.11589,-0.0959 -0.31684,-0.14886 -0.54492,-0.17188 -0.17106,-0.0173 -0.35751,-0.0165 -0.53516,-0.002 z m -0.60156,3.32226 c -0.0142,-0.008 -0.0369,-0.003 -0.0664,0.0117 -0.51196,0.26252 -3.21115,3.9015 -4.20704,5.33203 -0.13496,0.19386 -0.14495,0.4474 -0.11718,0.71094 0.61691,-0.64403 1.96967,-0.38926 4.28125,-5.61719 0.12199,-0.27591 0.15202,-0.41249 0.10937,-0.4375 z m 10.00196,9.17578 c -0.0415,0.0828 -0.082,0.16551 -0.12891,0.24805 0.01,-0.0133 0.0333,-0.0379 0.043,-0.0508 0.0352,-0.0471 0.0637,-0.1156 0.0859,-0.19727 z m -431.12696,42.54102 c -0.0136,0.0559 -0.0267,0.11222 -0.041,0.16992 0.18987,-0.0294 0.38157,-0.0476 0.57031,-0.084 0.33675,-0.0648 0.0159,-0.0879 -0.5293,-0.0859 z m -30.66211,15.17774 c -0.76352,-0.0224 -1.47076,-0.0176 -1.95312,0.0117 -0.89454,0.0544 -1.58961,0.78503 -2.34961,1.29493 0.15989,-0.0363 0.31269,-0.074 0.47656,-0.10938 -0.25004,0.0673 -0.33893,0.0894 -0.50976,0.13281 -0.0804,0.0531 -0.15788,0.11565 -0.24024,0.16211 0.0924,-0.0667 0.12624,-0.0945 0.21094,-0.15625 -0.56812,0.14394 -0.87262,0.22706 -1.08594,0.375 3.04391,-0.4951 6.41751,0.56451 9.21484,-0.72656 1.14585,-0.52896 -0.83602,-0.81188 -2.875,-0.92578 -0.13709,0.17969 -0.26878,0.35931 -0.37695,0.54687 -0.0777,0.13474 0.25994,-0.45739 0.31055,-0.55078 -0.2809,-0.0151 -0.54775,-0.0466 -0.82227,-0.0547 z m -15.984372,7.91601 c -0.09195,0.0339 -0.239183,0.20442 -0.679688,0.66211 0.282679,-0.19783 0.561567,-0.40199 0.841797,-0.60352 -0.02707,-0.0185 -0.05979,-0.0426 -0.08008,-0.0527 -0.02734,-0.0136 -0.05138,-0.0165 -0.08203,-0.006 z m -3.734376,0.51953 c -0.389731,-0.0283 -0.826458,0.061 -1.166015,0.23633 0.427738,-0.0946 0.83036,-0.16966 1.205078,-0.22852 -0.01366,-10e-4 -0.02527,-0.007 -0.03906,-0.008 z m 4.91211,3.72852 c 0.396468,1.99031 0.573708,4.91378 0.664062,9.0664 0.277409,-0.18235 0.709866,-0.5234 1.554686,-1.13086 0.47382,-1.10861 2.01517,-2.27663 1.42188,-3.32617 -0.96186,-1.70156 -2.22448,-3.22644 -3.640628,-4.60937 z m 496.791018,1.00976 c -0.13939,0.43349 -0.27098,0.86679 -0.35742,1.30078 0.60105,-1.32472 0.86566,0.95426 0.82031,0.61524 -0.082,-0.61005 -0.0432,-1.28953 -0.37696,-1.80664 -0.0208,-0.0323 -0.0591,-0.0742 -0.0859,-0.10938 z m 39.24219,46.09961 c 0.92603,0.54612 1.7546,0.95855 2.53515,1.33399 -0.21459,-0.33374 -0.4412,-0.66078 -0.68555,-0.97461 -0.38604,-0.49588 -1.23285,-0.23919 -1.8496,-0.35938 z m 4,0.44336 c -0.0348,0.0182 -0.0386,0.0935 -0.008,0.24024 0.12076,0.55779 0.31087,1.09225 0.53321,1.61718 0.0983,0.0493 0.19938,0.10015 0.29882,0.15039 a 307.09039,291.4377 0 0 0 0.30664,-0.49218 c -0.46333,-0.82927 -0.99911,-1.58477 -1.13085,-1.51563 z" />
  </g>
</svg>
