<?xml version="1.0" encoding="UTF-8" standalone="no"?>
<svg
   width="210mm"
   height="297mm"
   viewBox="0 0 210 297"
   version="1.1"
   id="svg5"
   inkscape:version="1.1-alpha (17bc9184, 2021-03-28)"
   sodipodi:docname="drawing.svg"
   xmlns:inkscape="http://www.inkscape.org/namespaces/inkscape"
   xmlns:sodipodi="http://sodipodi.sourceforge.net/DTD/sodipodi-0.dtd"
   xmlns="http://www.w3.org/2000/svg"
   xmlns:svg="http://www.w3.org/2000/svg">
  <sodipodi:namedview
     id="namedview7"
     pagecolor="#ffffff"
     bordercolor="#666666"
     borderopacity="1.0"
     objecttolerance="10.0"
     gridtolerance="10.0"
     guidetolerance="10.0"
     inkscape:pageshadow="2"
     inkscape:pageopacity="0.0"
     inkscape:pagecheckerboard="0"
     inkscape:document-units="mm"
     showgrid="false"
     inkscape:zoom="0.67081229"
     inkscape:cx="-69.318945"
     inkscape:cy="579.1486"
     inkscape:window-width="1211"
     inkscape:window-height="1003"
     inkscape:window-x="237"
     inkscape:window-y="23"
     inkscape:window-maximized="0"
     inkscape:current-layer="layer1" />
  <defs
     id="defs2" />
  <g
     inkscape:label="Layer 1"
     inkscape:groupmode="layer"
     id="layer1">
    <rect
       style="fill:#0000ff;fill-rule:evenodd;stroke-width:0.264583"
       id="rect31"
       width="83.223114"
       height="68.929688"
       x="93.478088"
       y="45.752987"
       ry="34.070423" />
    <rect
       style="fill:#000080;fill-rule:evenodd;stroke-width:0.264583"
       id="rect33"
       width="98.211159"
       height="78.095627"
       x="17.749002"
       y="123.45418"
       ry="0" />
    <rect
       style="fill:#0000ff;fill-rule:evenodd;stroke-width:0.264583"
       id="rect35"
       width="37.470112"
       height="74.545815"
       x="77.30677"
       y="210.62151" />
    <rect
       style="fill:#0000ff;fill-rule:evenodd;stroke-width:0.264583"
       id="rect37"
       width="56.402393"
       height="160.92429"
       x="121.08764"
       y="123.8486" />
    <rect
       style="fill:#0000ff;fill-rule:evenodd;stroke-width:0.264583"
       id="rect39"
       width="11.438247"
       height="0.78884465"
       x="104.52191"
       y="138.04781"
       ry="0.39442232" />
    <rect
       style="fill:#ff00ff;fill-rule:evenodd;stroke-width:0.264583"
       id="rect41"
       width="64.685257"
       height="50.091629"
       x="13.015937"
       y="53.247009"
       ry="3.1553786" />
    <rect
       style="fill:#0000ff;fill-rule:evenodd;stroke-width:0.264583"
       id="rect46"
       width="61.924297"
       height="55.613541"
       x="52.852589"
       y="229.55379"
       ry="3.1553679" />
    <rect
       style="fill:#0000ff;fill-rule:evenodd;stroke-width:0.264583"
       id="rect48"
       width="0.78884465"
       height="1.9721116"
       x="91.505974"
       y="252.82469" />
    <rect
       style="fill:#0000ff;fill-rule:evenodd;stroke-width:0.264583"
       id="rect50"
       width="24.059763"
       height="10.254988"
       x="77.30677"
       y="210.62151" />
    <rect
       style="fill:#0000ff;fill-rule:evenodd;stroke-width:0.264583"
       id="rect52"
       width="16.960152"
       height="0"
       x="97.816734"
       y="217.32669" />
    <rect
       style="fill:#0000ff;fill-rule:evenodd;stroke-width:0.264583"
       id="rect54"
       width="19.721113"
       height="1.5776879"
       x="81.645416"
       y="220.87648" />
    <rect
       style="fill:#0000ff;fill-rule:evenodd;stroke-width:0.264583"
       id="rect56"
       width="4.3386478"
       height="19.721123"
       x="77.30677"
       y="210.62151" />
    <rect
       style="fill:#0000ff;fill-rule:evenodd;stroke-width:0.264583"
       id="rect58"
       width="5.9163346"
       height="1.5776893"
       x="61.13546"
       y="242.56972" />
    <rect
       style="fill:#0000ff;fill-rule:evenodd;stroke-width:0.264583"
       id="rect60"
       width="23.270918"
       height="37.470127"
       x="37.864544"
       y="247.6972" />
    <rect
       style="fill:#0000ff;fill-rule:evenodd;stroke-width:0.264583"
       id="rect62"
       width="53.247013"
       height="15.38247"
       x="18.537848"
       y="209.43825" />
    <rect
       style="fill:#0000ff;fill-rule:evenodd;stroke-width:0.264583"
       id="rect64"
       width="30.76494"
       height="13.80478"
       x="18.537848"
       y="230.34262" />
    <rect
       style="fill:#000080;fill-rule:evenodd;stroke-width:0.264583"
       id="rect66"
       width="14.988048"
       height="36.28685"
       x="18.143425"
       y="249.66931" />
    <path
       style="fill:none;stroke:#000000;stroke-width:0.264583px;stroke-linecap:butt;stroke-linejoin:miter;stroke-opacity:1"
       d="M 4.7330677,3.9442231 C 208.25498,27.609562 51.2749,42.203187 51.2749,42.203187"
       id="path103" />
    <ellipse
       style="fill:#008080;fill-rule:evenodd;stroke-width:0.264583"
       id="path129"
       cx="63.304779"
       cy="28.398405"
       rx="27.80677"
       ry="28.79283" />
    <path
       style="fill:none;stroke:#000000;stroke-width:0.264583px;stroke-linecap:butt;stroke-linejoin:miter;stroke-opacity:1"
       d="M 203.91633,6.3107569 C 113.98805,26.426295 196.42231,37.470119 196.42231,37.470119"
       id="path183" />
    <rect
       style="fill:#0000ff;fill-rule:evenodd;stroke-width:0.264583"
       id="rect262"
       width="1.9721116"
       height="1.5776893"
       x="67.446213"
       y="26.820717"
       ry="0.78884465" />
    <path
       style="fill:none;stroke:#000000;stroke-width:0.264583px;stroke-linecap:butt;stroke-linejoin:miter;stroke-opacity:1"
       d="M 69.418326,28.398406 H 84.011952 L 35.498008,28.792829"
       id="path300" />
    <rect
       style="fill:#0000ff;fill-rule:evenodd;stroke-width:0.264583"
       id="rect324"
       width="0.39442295"
       height="3.9442229"
       x="69.023903"
       y="22.876493"
       ry="0.19721147" />
    <rect
       style="fill:#0000ff;fill-rule:evenodd;stroke-width:0.264583"
       id="rect329"
       width="78.884453"
       height="11.438245"
       x="5.1274915"
       y="16.960159"
       ry="0.19721141" />
    <path
       style="fill:#000080;stroke-width:0.264583"
       id="path851"
       d="m 171.38907,20.160475 c 0.0159,0.898398 0.0112,1.797162 0.002,2.695633 -0.001,0.540903 -0.005,1.08178 -0.0105,1.622652 -8e-5,0.418894 8e-4,0.837779 0.002,1.256672 -0.0359,0.441515 0.007,0.842149 0.13876,1.26259 0.14379,0.385525 0.20596,0.790271 0.23699,1.19834 0.0156,0.244377 0.0178,0.489223 0.0172,0.733992 0,0 3.54243,-1.811571 3.54243,-1.811571 v 0 c -0.008,-0.252645 -0.0127,-0.505759 -0.037,-0.757502 -0.0447,-0.431436 -0.12856,-0.856886 -0.27621,-1.266004 -0.10586,-0.38318 -0.0883,-0.766199 -0.0859,-1.16169 0.002,-0.419683 0.002,-0.839359 0.002,-1.259043 -0.005,-0.537304 -0.009,-1.074614 -0.0105,-1.61195 -0.009,-0.899263 -0.0134,-1.798818 0.002,-2.698012 0,0 -3.52463,1.795893 -3.52463,1.795893 z" />
    <path
       style="fill:#000080;stroke-width:0.264583"
       id="path853"
       d="m 176.12214,20.554897 c 0.0378,1.003502 0.0357,1.997256 -0.11632,2.989963 -0.11515,0.611104 -0.22377,1.224018 -0.26518,1.84504 -0.0258,0.407871 -0.0257,0.817049 -0.0234,1.225601 0.003,0.445484 0.005,0.891016 0.002,1.336511 -2.5e-4,0.403839 0.002,0.807696 -5.3e-4,1.211532 -0.009,0.411499 -0.0387,0.784828 0.15517,1.156698 0.0263,0.03899 0.0526,0.07797 0.0789,0.116956 0,0 3.43043,-2.02756 3.43043,-2.02756 v 0 c -0.0179,-0.0222 -0.0358,-0.04437 -0.0537,-0.06656 -0.15736,-0.293981 -0.0339,-0.66435 -0.0694,-0.983996 -0.002,-0.403695 -2.6e-4,-0.807407 -0.002,-1.211106 -0.003,-0.445236 -0.004,-0.890528 -0.002,-1.335767 0.003,-0.398733 0.002,-0.797841 0.0333,-1.195692 0.0565,-0.606944 0.15403,-1.207989 0.24802,-1.810077 0.12944,-1.013401 0.0926,-2.027629 0.1083,-3.047433 0,0 -3.52464,1.795892 -3.52464,1.795892 z" />
    <path
       style="fill:#000080;stroke-width:0.264583"
       id="path855"
       d="m 166.75401,24.827917 c 0.99643,-0.01185 1.99297,-0.0075 2.98945,-0.0057 1.17403,-0.0014 2.34806,-0.0063 3.52211,-0.0079 1.04566,0.0074 2.09134,0.0061 3.13702,0.0076 0.81878,6.8e-5 1.63755,0.0034 2.45633,0.0057 0.71611,0.0022 1.43223,-0.0025 2.14836,-0.0019 0.45211,0.0053 0.90435,-2.65e-4 1.35641,0.0082 0,0 3.21664,-2.337028 3.21664,-2.337028 v 0 c -0.45957,0.0082 -0.91929,0.0031 -1.3789,0.0082 -0.71439,6.09e-4 -1.42876,-0.0041 -2.14314,-0.0019 -0.824,0.0023 -1.64801,0.0056 -2.47202,0.0057 -1.05264,0.0015 -2.10528,2.52e-4 -3.15791,0.0076 -1.16678,-0.0016 -2.33355,-0.0065 -3.50033,-0.0079 -0.99123,0.0018 -1.98253,0.0062 -2.97372,-0.0057 0,0 -3.2003,2.325156 -3.2003,2.325156 z" />
    <path
       style="fill:#000080;stroke-width:0.264583"
       id="path857"
       d="m 167.54285,27.588874 c 1.42549,-0.02687 2.85124,-0.0163 4.27687,-0.01442 0.95123,0.007 1.90249,0.01021 2.85375,0.01156 0.70022,2.01e-4 1.40041,0.0035 2.10064,0.0028 0.56971,0.0033 1.13942,0.0021 1.70914,0.0016 0.3953,0.0021 0.7906,0.0013 1.1859,0.0033 0,0 3.21356,-2.33479 3.21356,-2.33479 v 0 c -0.39831,0.0019 -0.79663,0.0011 -1.19495,0.0033 -0.57116,-5.03e-4 -1.1423,-0.0017 -1.71346,0.0016 -0.70281,-6.88e-4 -1.40559,0.0026 -2.10839,0.0028 -0.96186,0.0014 -1.92372,0.0046 -2.88556,0.01156 -1.4124,0.0019 -2.82494,0.0128 -4.23719,-0.01441 0,0 -3.20031,2.325158 -3.20031,2.325158 z" />
    <path
       style="fill:#000080;stroke-width:0.264583"
       id="path859"
       d="m 187.47553,18.904176 c -0.12789,-0.809927 -0.3201,-1.636642 -0.24162,-2.45893 0.0566,-0.5762 0.32239,-1.043033 0.78795,-1.384036 1.18375,-0.750696 1.12886,-0.712684 -2.97858,1.740417 -0.0704,0.04205 0.14635,-0.07518 0.22367,-0.10252 0.28777,-0.101738 0.59548,-0.11721 0.89637,-0.141567 0.58438,0.02303 1.15418,-0.06073 1.73084,-0.118299 0.65803,0.08038 1.21802,0.458356 1.63428,0.959805 0.35273,0.610212 0.37401,1.346965 0.40227,2.035577 0.0857,0.556106 -0.0537,1.035405 -0.20485,1.557062 -0.15202,0.470211 -0.10426,0.980058 -0.25183,1.446035 -0.16395,0.600269 -0.4724,1.181529 -0.85696,1.669126 -0.34565,0.473006 -0.84251,0.786033 -1.2552,1.183828 -0.44288,0.303699 -0.70016,0.75156 -1.06809,1.133569 -0.42208,0.375847 -0.68148,0.864474 -1.11499,1.225427 -0.3538,0.170928 -0.67794,0.429876 -0.93765,0.725879 -0.11893,0.371274 -0.39217,0.60911 -0.50583,0.986986 0.50576,2.089613 3.28429,-1.049912 4.48014,-2.10466 0.10973,-0.09568 0.21451,-0.197356 0.32919,-0.287034 0.10903,-0.08526 0.22596,-0.159969 0.34096,-0.236984 0.10003,-0.06699 0.40801,-0.255606 0.30402,-0.194948 -5.17994,3.021664 -3.77067,1.948953 -2.37667,1.578338 0.5579,-0.128612 1.13193,-0.137562 1.70147,-0.142706 0.43688,0.01495 0.84059,0.200025 1.26083,0.303162 0.31619,0.09251 0.60163,0.284575 0.88456,0.452583 0.43793,0.321247 0.96153,0.366625 1.48563,0.403188 0.78339,0.0094 1.52995,-0.274537 2.25149,-0.552093 1.49972,-0.700698 0.43513,-0.192833 3.84209,-2.258091 0.2856,-0.173129 0.4652,-0.483185 0.58523,-0.782699 0.15163,-0.400181 0.16088,-0.83547 0.16506,-1.258606 0.003,-0.268025 0.0228,-0.1323 -0.0716,-0.405455 0,0 -3.49087,1.907071 -3.49087,1.907071 v 0 c 0.0325,0.16608 0.0211,0.06948 0.0176,0.291258 -0.0192,0.377031 -0.0439,0.758013 -0.24257,1.090835 -0.13557,0.184481 -0.26943,0.331488 -0.44678,0.477808 -0.0647,0.05335 -0.26969,0.19776 -0.19641,0.157052 0.98588,-0.547735 4.42656,-2.522244 2.93819,-1.677728 -0.66089,0.342357 -1.41327,0.575762 -2.14171,0.706442 -0.45582,-0.0199 -0.96322,0.0049 -1.35856,-0.25541 -0.31843,-0.197642 -0.63852,-0.379316 -0.96216,-0.568873 -0.45309,-0.06465 -0.86997,-0.247376 -1.31108,-0.362452 -0.58882,-0.004 -1.18011,-2.34e-4 -1.76462,0.07917 -2.04755,0.397452 -3.82657,1.682047 -5.39381,3.020448 -1.6066,1.402659 -0.38379,0.04947 2.62721,-1.318673 0.36073,-0.16391 0.005,0.542941 0.15405,0.277325 0.17133,-0.291827 0.34754,-0.592918 0.56927,-0.844597 0.29967,-0.253585 0.64333,-0.452981 0.93512,-0.715988 0.37691,-0.405228 0.6844,-0.872456 1.09586,-1.248158 0.34004,-0.39101 0.66869,-0.775919 1.08262,-1.095113 0.45533,-0.371629 0.88235,-0.780865 1.21484,-1.269097 0.34587,-0.565707 0.66887,-1.150665 0.80429,-1.807226 0.0835,-0.477224 0.11215,-0.965192 0.26154,-1.429719 0.15909,-0.551348 0.19224,-1.100987 0.13635,-1.673514 -0.0583,-0.768203 -0.11511,-1.575958 -0.52402,-2.249238 -0.45793,-0.577957 -1.07779,-1.036588 -1.79908,-1.223989 -0.10848,-0.02814 -0.2134,-0.08196 -0.32544,-0.08441 -0.0906,-0.002 -0.40032,0.132357 -0.4934,0.146372 -0.31109,0.04684 -0.64184,-0.03426 -0.9539,0.0091 -1.91484,0.05648 -3.55106,0.779107 -4.99358,2.353999 -0.40223,0.487017 -0.64202,1.007249 -0.65055,1.650222 -0.0128,0.854061 0.15595,1.697062 0.26975,2.541277 0,0 3.49962,-1.856567 3.49962,-1.856567 z" />
    <path
       style="fill:#000080;stroke-width:0.264583"
       id="path861"
       d="m 145.11068,289.80079 c 2.2002,-0.99827 4.26524,-2.30679 6.34528,-3.51266 1.11989,-0.64923 2.16066,-1.34485 3.18616,-2.13283 1.44716,-1.28876 2.25381,-2.52883 2.81648,-4.36039 0.41705,-1.62187 0.44711,-3.302 0.46913,-4.96596 0.0858,-1.58544 -0.18305,-3.14576 -0.4653,-4.69733 -0.21724,-1.24844 -1.06117,-1.76369 -2.20108,-2.08455 -2.18657,-0.45715 -3.03067,0.5733 -5.27156,2.09148 -0.19237,0.13033 -0.36683,1.15427 -0.38982,1.25936 -0.36002,1.89646 -0.068,3.80624 0.255,5.68518 0.47916,2.17535 0.67783,4.36706 0.72582,6.58908 -0.0363,1.92728 -0.45487,3.77219 -1.48255,5.40991 -0.19471,0.20667 -0.37677,0.42601 -0.58414,0.61994 -0.21321,0.19942 -0.43899,0.38619 -0.67515,0.5578 -0.25028,0.18187 -1.04913,0.65587 -0.78149,0.5007 4.38647,-2.54339 2.82274,-1.52588 1.54626,-1.1279 -0.35262,0.10994 -0.71679,0.17868 -1.07519,0.26803 -1.15281,0.22085 -2.32383,0.31739 -3.49416,0.38219 -0.76588,0.0424 -1.38706,0.0748 -2.10513,-0.19124 -0.24657,-0.3968 0.0947,-0.68168 0.40648,-0.93316 0.17309,-0.13962 0.74253,-0.48924 0.55147,-0.37547 -3.04684,1.81456 -3.46779,1.8932 -1.72057,1.2832 2.11863,-0.51755 4.30868,-0.58899 6.45923,-0.93612 2.3611,-0.37764 4.36776,-1.0767 6.47614,-2.18731 2.30541,-1.2088 4.24391,-2.26994 5.87153,-4.17238 0.60273,-0.7045 1.08384,-1.50053 1.61948,-2.25477 0.98226,-1.16261 1.67287,-2.52294 2.74674,-3.60469 1.14381,-0.87617 3.49608,-2.39204 -2.15546,1.17446 -0.0442,0.0279 0.12184,-0.0317 0.15646,0.007 0.0738,0.0833 0.0983,0.20164 0.1244,0.3098 0.0565,0.23389 0.0815,0.47429 0.12218,0.71146 -0.003,2.39427 -0.57739,4.76589 -1.26969,7.04589 -0.64414,1.84734 -1.47121,3.62296 -2.22411,5.42726 -1.32836,3.00159 2.26998,0.0204 3.7817,-1.13985 0.0975,-0.0749 1.06691,-1.90008 1.11663,-1.99218 1.55481,-2.65824 2.74161,-5.49116 3.83441,-8.36253 0.41502,-1.25367 0.81006,-2.5142 1.25132,-3.75906 0.17504,-0.49382 0.51859,-1.47461 0.78979,-1.94027 0.16644,-0.28578 0.39149,-0.53311 0.58723,-0.79968 0.98663,-1.26704 3.56423,-2.82223 -1.76937,0.56232 -0.0427,0.0271 0.14176,-0.0449 0.15177,0.005 0.0359,0.17807 -0.018,0.36325 -0.0411,0.54346 -0.0496,0.38557 -0.1179,0.7685 -0.17685,1.15278 -0.60745,3.08563 -1.67768,6.05592 -2.68987,9.02645 -0.53492,1.44129 -1.20291,2.84086 -1.94911,4.18566 -0.28013,0.63108 -0.48269,1.30069 -0.67674,1.96458 -0.15839,0.47604 -0.18131,0.9752 -0.20162,1.47156 0.11574,0.71914 0.58549,1.04569 1.265,1.15967 0.47839,-0.009 0.95841,-0.10774 1.37729,-0.35002 2.3838,-1.3789 3.41588,-1.294 4.31496,-3.13724 0.37439,-0.9891 0.55036,-2.03563 0.81474,-3.05512 0.23753,-0.82066 0.59398,-1.60499 0.94771,-2.38196 0.63358,-1.79909 0.74629,-1.19071 -3.41967,1.26232 -0.0491,0.0289 -0.16787,0.57354 -0.19257,0.67654 -0.28798,0.95073 -0.5334,1.91537 -0.67304,2.89944 -0.10794,0.58383 0.0182,1.12898 0.35106,1.60724 0.22114,0.35747 0.57271,0.52337 0.96644,0.61618 0.44062,0.0621 0.83131,-0.10914 1.20402,-0.3267 3.8077,-2.22295 2.67466,-1.20751 4.03378,-2.47637 0.52637,-0.62145 0.92967,-1.30765 1.09177,-2.10751 0.0985,-0.81209 0.37443,-1.58835 0.62304,-2.36472 0.57314,-2.4095 0.76609,-1.53974 -3.37257,0.61061 -0.38201,0.64489 -0.4084,1.4098 -0.62251,2.1127 -0.19079,0.63365 -0.3326,1.28145 -0.3964,1.94027 0.0388,0.56739 0.25996,0.99583 0.74378,1.29331 0.57237,0.2677 1.18109,0.16689 1.76922,0.0177 2.44382,-1.18433 4.23577,-1.90338 5.2164,-4.27273 0.4239,-1.19761 0.4475,-2.48306 0.48313,-3.73946 -0.0279,-1.48526 0.13702,-2.96222 0.24404,-4.44174 0.0542,-1.48037 0.12071,-2.94918 0.3835,-4.40894 0.20016,-1.33435 0.72022,-2.58503 1.28724,-3.7996 0.19848,-0.4984 0.45538,-0.96928 0.70952,-1.44045 0,0 -3.5896,1.61716 -3.5896,1.61716 v 0 c -0.23937,0.47787 -0.47681,0.957 -0.68084,1.4514 -0.5452,1.24981 -1.05175,2.52336 -1.23589,3.88451 -0.24515,1.47026 -0.28208,2.95246 -0.35635,4.43891 -0.10627,1.48683 -0.27492,2.97016 -0.2528,4.46312 -0.0457,1.21804 -0.0831,2.46468 -0.56164,3.60532 -0.23146,0.45977 -0.23668,0.52126 -0.54304,0.93081 -0.93774,1.25351 -3.56235,2.52195 2.01913,-0.70792 -0.50752,0.19846 -1.02445,0.33237 -1.56935,0.21852 -0.40071,-0.15071 -0.53449,-0.43831 -0.51381,-0.87019 0.0825,-0.63669 0.22125,-1.26283 0.40838,-1.87735 0.17674,-0.71348 0.30094,-1.43878 0.656,-2.09383 -4.32688,1.83258 -3.12374,0.38729 -3.79551,2.75259 -0.23977,0.78576 -0.48929,1.56977 -0.61553,2.38421 -0.22815,0.72139 -0.62288,1.36806 -1.18635,1.88061 -1.26384,0.94562 -0.39742,0.27651 2.69385,-1.48495 0.41391,-0.23585 -0.48486,0.34203 -0.83417,0.45162 -0.0644,0.0201 -0.12575,0.0489 -0.18863,0.0733 -0.31056,-0.0206 -0.61555,-0.0606 -0.7938,-0.34674 -0.28138,-0.40243 -0.33088,-0.84042 -0.2344,-1.32948 0.1529,-0.97023 0.39128,-1.92307 0.69355,-2.85774 0.0397,-0.12927 0.0785,-0.25881 0.11905,-0.38782 0.0317,-0.10115 0.19752,-0.33848 0.0977,-0.30269 -3.45453,1.23918 -3.10723,0.44323 -3.75837,2.09455 -0.3398,0.79507 -0.70233,1.58874 -0.89941,2.43411 -0.23777,0.99693 -0.42802,2.02113 -0.85923,2.95686 -0.0942,0.14097 -0.17324,0.29329 -0.28251,0.42293 -0.10277,0.1219 -0.49116,0.39971 -0.34942,0.32668 1.01199,-0.52141 1.97866,-1.12654 2.97406,-1.67896 0.15506,-0.0861 -1.16233,0.70045 -1.23586,0.51596 -0.49027,0.0303 -0.90606,-0.0747 -0.93026,-0.6446 0.0241,-0.46784 0.0867,-0.93113 0.23665,-1.37727 0.20662,-0.6374 0.37039,-1.29468 0.68978,-1.8878 0.69153,-1.35707 1.32959,-2.74907 1.81332,-4.19449 0.98157,-3.00194 2.024,-5.99723 2.67835,-9.09169 0.0956,-0.59719 0.36088,-1.52189 0.0918,-2.16022 -0.0679,-0.16108 -0.25226,-0.39772 -0.41133,-0.32528 -2.39767,1.0922 -3.48496,1.71747 -4.83338,3.45528 -0.18528,0.28863 -0.39583,0.56253 -0.55585,0.8659 -0.93613,1.77472 -1.21482,3.84307 -1.97144,5.68737 -1.09403,2.86915 -2.30996,5.68569 -3.88981,8.32716 -0.2114,0.36737 -0.41157,0.74141 -0.63419,1.10209 -0.18362,0.2975 -0.92445,0.95004 -0.58382,0.8713 1.08968,-0.25186 1.98426,-1.0455 3.03184,-1.43716 0.0929,-0.0347 -0.0786,0.31845 0.0182,0.29686 0.30798,-0.0687 -0.3007,-1.06868 0.30533,-0.89606 0.7379,-1.80499 1.55121,-3.58291 2.15362,-5.43955 0.66721,-2.34862 1.25772,-4.77324 1.24402,-7.22788 -0.0733,-0.45429 -0.0861,-0.96838 -0.37339,-1.36364 -1.04605,-1.43933 -3.67322,1.49318 -4.92181,2.49386 -1.00373,1.13636 -1.75328,2.46496 -2.70425,3.64585 -0.72984,1.05008 -1.42609,2.08851 -2.37278,2.96325 -0.27875,0.25757 -1.2304,0.85598 -0.87138,0.73287 0.8237,-0.28244 1.53813,-0.81679 2.3072,-1.2252 -0.7863,0.43336 -1.26169,0.72175 -2.08612,1.07299 -1.38426,0.58975 -2.85356,0.88384 -4.31365,1.21515 -2.14835,0.36772 -4.32413,0.45032 -6.46123,0.86815 -2.27735,0.65558 -1.15642,0.26038 -4.97326,2.54445 -0.49586,0.29673 -1.02477,0.94816 -0.86806,1.5735 0.0435,0.17357 0.1823,0.30797 0.27345,0.46199 0.18561,0.0854 0.35904,0.20486 0.55681,0.25609 0.55274,0.14311 1.15407,0.0745 1.7097,0.0421 1.18105,-0.069 2.3626,-0.15973 3.53318,-0.33594 2.72136,-0.55888 3.13847,-1.08082 6.20086,-2.88705 0.78757,-0.46453 1.44585,-1.1099 1.98478,-1.84187 0.94616,-1.71183 1.36341,-3.63186 1.35624,-5.588 -0.0599,-2.23888 -0.28107,-4.45101 -0.73155,-6.64803 -0.30144,-1.83772 -0.59982,-3.70641 -0.14894,-5.54789 0.0749,-0.21653 0.12042,-0.44558 0.22464,-0.64963 0.0744,-0.14557 0.45219,-0.45355 0.30381,-0.38497 -5.69241,2.63181 -3.23844,1.32678 -1.62603,1.59086 1.12271,0.24614 1.72341,0.4907 1.97963,1.69725 0.29861,1.52048 0.54692,3.05141 0.4613,4.60886 -0.0414,1.63359 -0.0796,3.28723 -0.53361,4.8696 -0.58453,1.69333 -1.4707,2.97569 -2.86748,4.12583 -0.93919,0.6985 -0.94905,0.73512 -1.99164,1.38018 -0.38947,0.24098 -1.58408,0.9199 -1.1837,0.69754 4.40282,-2.44536 1.39662,-0.78134 0.31883,-0.30572 0,0 -3.10051,2.45038 -3.10051,2.45038 z" />
    <path
       style="fill:#000080;stroke-width:0.264583"
       id="path863"
       d="m 178.19226,288.30201 c 1.09493,0.0634 2.10893,-0.20902 3.08643,-0.67665 2.76258,-1.36519 3.85967,-1.70513 4.5672,-4.11702 0.23588,-0.94099 0.58459,-1.84698 0.7708,-2.80069 0.11594,-0.77584 0.12689,-1.56321 0.13334,-2.34633 7.9e-4,-0.86945 -0.009,-1.73873 -0.008,-2.60818 -0.0625,-0.71618 0.11956,-1.40163 0.26094,-2.09651 0.25981,-0.63632 0.49687,-1.28196 0.77106,-1.91251 0.23902,-0.55907 0.49858,-1.11159 0.83968,-1.61782 0.44661,-0.59915 1.01677,-1.08964 1.46868,-1.68267 0.21558,-0.24853 0.44337,-0.45559 0.72143,-0.62752 0,0 -3.68013,1.4667 -3.68013,1.4667 v 0 c -0.2403,0.22143 -0.47053,0.45135 -0.67354,0.7086 -0.49775,0.56925 -1.05225,1.0966 -1.46164,1.73702 -0.30257,0.53866 -0.57668,1.09053 -0.79981,1.6674 -0.26337,0.65739 -0.56969,1.30239 -0.74733,1.98962 -0.13457,0.71543 -0.27704,1.42332 -0.20922,2.15701 0.004,0.86942 0.003,1.73879 -0.003,2.60821 -0.0107,0.76086 -0.0205,1.52704 -0.16508,2.27679 -0.20581,0.93361 -0.51956,1.83677 -0.77681,2.75675 -0.10156,0.28842 -0.17488,0.53385 -0.3128,0.80325 -0.70857,1.38409 -3.02705,2.30299 2.37178,-0.83238 -0.89312,0.54592 -1.89299,0.89625 -2.9531,0.82177 0,0 -3.2003,2.32516 -3.2003,2.32516 z" />
    <path
       style="fill:#000080;stroke-width:0.264583"
       id="path865"
       d="m 184.4175,286.37338 c 0.90819,0.34745 1.81899,0.51612 2.78724,0.44305 2.15581,-0.50909 4.22171,-2.01827 6.03293,-3.06507 0.93664,-0.44609 1.28475,-1.37499 1.75913,-2.22414 0.46498,-1.19806 1.08529,-2.31815 1.66889,-3.45945 0.41446,-0.92798 1.11113,-1.62862 1.84195,-2.30847 1.1417,-0.79573 3.06039,-1.91111 -2.51854,1.42452 -0.30258,0.18092 0.45203,-0.1842 0.7669,-0.25585 0.30003,-0.0438 0.14871,-0.0254 0.45397,-0.055 0,0 3.19652,-2.35159 3.19652,-2.35159 v 0 c -0.32197,0.008 -0.1615,0 -0.4814,0.0246 -1.93648,0.20378 -3.59302,1.49018 -5.06579,2.71544 -0.71976,0.70996 -1.34681,1.48389 -1.7619,2.41673 -0.5851,1.1411 -1.16212,2.28349 -1.68875,3.45308 -0.47155,0.84706 -0.92596,1.61356 -1.84542,2.04092 6.05316,-3.44824 2.31017,-1.19454 0.79579,-0.70522 -0.92403,0.15435 -1.79677,0.0525 -2.66455,-0.31687 0,0 -3.27697,2.2234 -3.27697,2.2234 z" />
    <path
       style="fill:#000080;stroke-width:0.264583"
       id="path867"
       d="m 177.01008,280.49275 c 0.45054,-1.34011 1.35704,-2.46499 2.49044,-3.28546 1.96042,-1.17441 -1.50169,0.84574 -2.21961,1.32106 -0.17068,0.11301 0.38145,-0.15147 0.57951,-0.20322 0.84733,-0.22138 1.73095,-0.24271 2.59961,-0.28888 1.44828,-0.0492 2.89338,0.008 4.33804,-0.11623 2.72729,-0.3552 4.31251,-1.59102 6.83972,-3.03524 1.16726,-0.82527 2.0928,-1.92305 2.90187,-3.0897 0.76939,-0.83172 1.51986,-1.71754 2.4291,-2.39927 1.94578,-1.22701 -4.31233,2.3381 -2.29771,1.36813 0.11125,-0.0535 0.22327,-0.10551 0.33491,-0.15827 0,0 3.09577,-2.45324 3.09577,-2.45324 v 0 c -1.68892,0.70413 -3.3312,1.60118 -4.78269,2.71364 -0.85215,0.76507 -1.66433,1.58237 -2.36982,2.48632 -0.82923,1.12813 -1.75941,2.19445 -2.96384,2.93627 7.05877,-4.00066 3.04054,-1.62515 2.27713,-1.34364 -0.74823,0.27591 -1.54394,0.47908 -2.3213,0.6472 -1.45009,0.14089 -2.89918,0.12713 -4.35571,0.15084 -3.51152,0.14242 -4.18139,0.35129 -7.70413,2.91317 -1.10837,0.94453 -1.97718,2.13304 -2.45573,3.51991 0,0 3.58444,-1.68339 3.58444,-1.68339 z" />
    <text
       xml:space="preserve"
       style="font-style:normal;font-weight:normal;font-size:10.5833px;line-height:1.25;font-family:sans-serif;fill:#000000;fill-opacity:1;stroke:none;stroke-width:0.264583"
       x="31.159363"
       y="69.023903"
       id="text6063"><tspan
         sodipodi:role="line"
         id="tspan6061"
         style="stroke-width:0.264583"
         x="31.159363"
         y="69.023903">Jason</tspan></text>
    <text
       xml:space="preserve"
       style="font-style:normal;font-weight:normal;font-size:10.5833px;line-height:1.25;font-family:sans-serif;fill:#000000;fill-opacity:1;stroke:none;stroke-width:0.264583"
       x="44.175301"
       y="83.617531"
       id="text8707"><tspan
         sodipodi:role="line"
         id="tspan8705"
         style="stroke-width:0.264583"
         x="44.175301"
         y="83.617531">Nutt</tspan></text>
    <text
       xml:space="preserve"
       style="font-style:normal;font-weight:normal;font-size:10.5833px;line-height:1.25;font-family:sans-serif;fill:#ff0000;fill-opacity:1;stroke:none;stroke-width:0.264583"
       x="108.07172"
       y="68.235062"
       id="text10867"><tspan
         sodipodi:role="line"
         id="tspan10865"
         style="stroke-width:0.264583;fill:#ff0000"
         x="108.07172"
         y="68.235062" /></text>
    <text
       xml:space="preserve"
       style="font-style:normal;font-weight:normal;font-size:10.5833px;line-height:1.25;font-family:sans-serif;fill:#ff0000;fill-opacity:1;stroke:none;stroke-width:0.264583"
       x="110.43824"
       y="64.290833"
       id="text14259"><tspan
         sodipodi:role="line"
         id="tspan14257"
         style="fill:#ff0000;stroke-width:0.264583"
         x="110.43824"
         y="64.290833" /></text>
    <path
       style="fill:#ff0000;stroke-width:0.264583"
       id="path17110"
       d="m 100.2844,76.775132 c 0.77217,-0.612492 1.59088,-1.164373 2.36396,-1.776344 0.70416,-0.515123 1.0923,-1.259612 1.48091,-2.012685 0.32208,-0.976593 0.59573,-1.975189 0.7867,-2.987286 0.1262,-0.889217 0.16237,-1.787631 0.18931,-2.684301 0.10014,-0.552937 -0.17673,-1.242862 0.0751,-1.754325 1.3819,0.331597 -0.0701,-0.04415 -3.27351,1.945563 -0.0491,0.03047 0.10006,0.05879 0.14429,0.09592 0.0791,0.06644 0.14828,0.143999 0.22456,0.213714 0.35378,0.323374 0.23009,0.216501 0.6658,0.496798 1.08558,0.607512 2.22177,0.312774 3.29647,-0.138457 2.33557,-1.204187 4.81679,-2.35208 6.40315,-4.498898 1.05428,-1.459511 1.23887,-3.217132 1.39615,-4.956014 0.0339,-1.370383 0.31828,-2.786091 -0.0369,-4.131323 -0.37145,-0.938816 -1.23934,-1.051031 -2.13398,-1.059704 -3.70931,0.668729 -4.81734,1.880682 -3.98726,4.624777 0.82412,1.858864 2.02215,3.529033 3.18323,5.189662 0.91012,1.323369 1.87966,2.626555 2.46141,4.138747 0.361,0.938376 0.4425,1.454168 0.66531,2.428965 0.3731,2.030383 0.5787,3.867015 -0.0779,5.850128 -0.11685,0.226369 -0.21557,0.463052 -0.35053,0.679108 -0.25818,0.413298 -0.64769,0.862796 -1.01461,1.181749 -0.21258,0.184787 -0.92419,0.64023 -0.67609,0.50688 3.88193,-2.086467 3.0495,-1.702257 1.53754,-1.118518 -2.38223,0.653466 -4.87515,0.749322 -7.33208,0.715603 -2.04329,-0.165063 -3.72113,-0.64725 -5.20117,-2.101196 -0.81373,-0.943796 -1.449441,-2.046441 -1.886231,-3.213095 0.02495,-0.01847 0.101264,-0.07169 0.07484,-0.0554 -1.105855,0.681659 -2.284669,1.25844 -3.313419,2.05169 -0.109019,0.08407 0.220985,0.164301 0.329216,0.249378 0.182165,0.143193 0.362579,0.288624 0.541895,0.435369 0.92836,0.75973 0.299829,0.294323 1.348079,1.016088 2.28686,1.339924 4.8564,1.761566 7.44784,2.046816 1.67384,0.142187 3.40286,0.32062 5.05071,-0.127198 1.5479,-0.420653 4.37439,-2.351701 4.83143,-2.615353 0.94781,-0.727247 1.36681,-1.792669 1.78505,-2.862207 0.248,-0.671383 0.36778,-1.372923 0.55021,-2.06212 0.045,-0.111874 0.0786,-0.229011 0.13494,-0.335624 0.25656,-0.485611 1.13376,-0.826191 0.85078,-0.653923 -2.93196,1.784903 -4.14942,2.139095 -2.62843,1.656932 0.93987,-0.270804 1.19869,0.07163 1.58642,0.891894 0.22533,0.887669 -0.10689,1.722313 -0.45181,2.527287 -0.22849,0.702733 -0.31415,1.440442 -0.35412,2.175134 0.0651,0.303054 0.054,0.652439 0.17945,0.942668 0.56379,1.304396 3.19185,-1.180864 4.17846,-1.738249 0.42754,-0.406969 0.95861,-0.730028 1.34831,-1.177192 0.071,-0.08146 0.49034,-0.710615 0.54722,-0.795123 0.68518,-1.177848 1.63891,-2.173663 2.72194,-2.988919 0.20717,-0.141377 0.40904,-0.290835 0.6215,-0.424129 0.19041,-0.11947 0.77918,-0.44867 0.58611,-0.333534 -0.93796,0.559353 -1.89232,1.091451 -2.8209,1.66625 -0.13545,0.08385 0.29066,-0.130622 0.438,-0.191211 0.23147,-0.09519 0.31122,-0.119356 0.51654,-0.188066 0.99512,-0.806855 2.04678,-1.54858 2.98535,-2.420562 0.0791,-0.07353 -0.21181,-0.04405 -0.31912,-0.05651 -0.46514,-0.05398 -0.9566,-0.0013 -1.3733,0.23232 -1.31604,0.737629 -2.60124,1.528961 -3.90186,2.293443 -1.08304,1.051549 -1.55897,2.441898 -1.65644,3.917519 2.4e-4,0.9111 0.10822,2.047208 1.0039,2.548244 0.16665,0.09322 0.35953,0.128757 0.5393,0.193135 2.30715,0.0042 4.61945,-1.516327 5.71231,-3.533568 0.34434,-0.872041 0.43696,-1.809647 0.48734,-2.737851 0.0988,-1.805167 0.28575,-0.8755 -3.52466,1.43477 -0.002,0.0011 -0.001,0.301614 -0.001,0.408789 5.3e-4,0.502597 -0.004,1.005149 -0.002,1.507752 -0.0361,1.079039 0.50064,1.610267 1.38761,2.119172 0.80238,0.361109 1.7172,0.448683 2.50205,-0.02646 3.88731,-2.353323 3.07844,-1.125943 4.12497,-2.999693 0.50564,-1.311648 0.57327,-2.719421 0.65131,-4.106399 0.11893,-1.589992 0.80604,-1.346266 -3.51687,1.710841 -0.12907,0.09127 0.008,0.316055 0.0107,0.474112 0.011,0.677587 0.008,0.739304 0.008,1.438013 -0.014,1.555813 -0.006,3.111603 -0.005,4.66744 0.0562,1.438961 -0.11208,2.867139 -0.26018,4.29545 -0.13602,0.94692 -0.005,1.925034 -0.38668,2.815021 -0.26446,0.449829 -0.60155,0.78463 -1.03076,1.076497 -0.17952,0.122079 -0.73895,0.455999 -0.55159,0.346316 3.07428,-1.799812 3.64281,-2.01335 2.07935,-1.337966 -1.04223,0.355528 -2.07747,0.817768 -3.1663,1.012798 0,0 -3.17466,2.346817 -3.17466,2.346817 v 0 c 1.12476,-0.0019 2.19585,-0.664916 3.27079,-0.943432 2.02658,-0.765935 0.8141,-0.269129 4.63295,-2.504739 0.66802,-0.39107 1.19174,-0.953887 1.50448,-1.660496 0.28127,-0.943012 0.2273,-1.922246 0.3296,-2.895812 0.12625,-1.43601 0.28725,-2.869994 0.21622,-4.314746 0.003,-1.557096 0.0139,-3.114129 0.0168,-4.671226 0.007,-0.674362 0.005,-0.795578 0.0253,-1.453632 0.005,-0.162832 0.1749,-0.535818 0.019,-0.488352 -4.24012,1.29149 -3.55364,0.310195 -3.53236,1.857283 -0.0385,1.330954 -0.12918,2.695813 -0.72154,3.911851 -1.02875,1.40798 -0.46811,0.486312 2.50927,-1.027464 0.18617,-0.09466 -0.3369,0.252616 -0.52733,0.338383 -0.57936,0.260938 -1.16572,0.22682 -1.74077,-0.009 -0.89549,-0.446008 -1.17742,-0.742691 -1.14145,-1.770216 0.003,-0.502288 -1.5e-4,-1.00462 0.009,-1.506852 0.003,-0.136594 0.13548,-0.461518 0.009,-0.409776 -3.8133,1.560314 -3.5137,0.397332 -3.5523,2.137645 -0.0546,0.87789 -0.1413,1.770954 -0.55764,2.562818 -0.20109,0.308914 -0.27833,0.4597 -0.53877,0.727749 -0.10451,0.107564 -0.47091,0.366104 -0.33759,0.297424 5.77853,-2.976711 3.29574,-1.614361 2.00393,-1.315334 -0.15211,-0.02506 -0.3116,-0.02209 -0.45632,-0.07517 -0.84296,-0.309219 -0.82306,-1.464519 -0.82622,-2.187305 0.14306,-1.402647 0.66028,-2.70374 1.79948,-3.596482 -0.9395,0.523137 -1.879,1.046277 -2.8185,1.569413 0.16106,-0.08471 0.31613,-0.181935 0.48317,-0.254124 0.12773,-0.0552 0.26049,-0.104031 0.3978,-0.1266 0.20114,-0.03306 0.4386,0.119896 0.6114,0.01177 1.15988,-0.725692 2.26547,-1.53475 3.39821,-2.302124 -0.31066,0.199382 -0.67274,0.23668 -0.99712,0.41303 -1.71363,0.931638 -3.49039,1.813515 -5.063,2.984281 -1.06714,0.887809 -1.99372,1.920316 -2.71927,3.109343 -0.54163,0.732698 -1.21923,1.329399 -1.96638,1.850689 1.05127,-0.570727 2.08265,-1.1797 3.1538,-1.712185 0.0632,-0.03139 -0.0348,0.149651 -0.0924,0.190323 -0.0916,0.06465 -0.10872,-0.199586 -0.13237,-0.309171 -0.0649,-0.300781 -0.0513,-0.278963 -0.0704,-0.592693 0.0533,-0.700246 0.14027,-1.403638 0.40404,-2.060556 0.33946,-0.909595 0.59437,-1.848753 0.29256,-2.811439 -0.38404,-0.80106 -0.87032,-1.609447 -1.88178,-1.348049 -1.80381,0.36907 -0.45633,0.05073 -4.18649,2.160063 -0.48757,0.275712 -0.72632,0.754163 -0.86991,1.273808 -0.17996,0.674817 -0.29159,1.36829 -0.55886,2.017802 -0.39658,1.027168 -0.88714,1.985584 -1.84252,2.609162 0.89225,-0.49965 1.79976,-0.972989 2.67676,-1.498947 0.25224,-0.15127 -0.52119,0.278223 -0.79957,0.373161 -1.61883,0.552085 -3.36377,0.398568 -5.03206,0.265832 -2.524,-0.265814 -5.03422,-0.647404 -7.26858,-1.940018 -0.65212,-0.441158 -1.236,-0.914717 -1.817439,-1.445432 -0.113144,-0.103272 -0.188386,-0.375404 -0.330814,-0.319002 -3.754684,1.486857 -3.884456,0.577275 -3.548896,2.088049 0.543973,1.176486 1.138785,2.346481 2.011193,3.318375 0.196263,0.196501 0.375531,0.411586 0.588788,0.589497 1.350571,1.126723 3.122498,1.535163 4.825948,1.72343 2.47308,0.05764 4.97346,-0.03492 7.39285,-0.591331 2.40072,-0.745694 1.24115,-0.303025 5.11266,-2.70015 0.93589,-0.579477 1.54542,-1.603607 1.95633,-2.586855 0.54456,-2.001136 0.33786,-3.984191 -0.071,-6.000363 -0.22461,-0.945724 -0.34352,-1.58741 -0.69649,-2.499918 -0.59226,-1.531142 -1.5777,-2.854918 -2.48515,-4.206008 -1.14324,-1.617072 -2.29184,-3.273599 -3.07276,-5.100066 -0.13368,-0.531561 -0.33217,-1.123074 -0.0913,-1.664088 0.0518,-0.116258 0.34303,-0.361503 0.22862,-0.305761 -0.94913,0.462463 -4.367,2.355964 -2.76833,1.539137 0.7015,-0.03822 1.53811,-0.166352 1.86112,0.606478 0.3206,1.295678 0.0638,2.663312 0.0357,3.979151 -0.17535,1.698659 -0.42447,3.387227 -1.51864,4.768344 -0.4651,0.553289 -0.93627,1.0229 -1.51699,1.456743 -0.16464,0.122997 -0.68579,0.451297 -0.50481,0.353936 0.98911,-0.532104 4.1432,-2.368995 2.27444,-1.282211 -0.95727,0.463656 -2.01103,0.930439 -3.05291,0.432274 -0.34004,-0.191987 -0.5639,-0.384305 -0.83131,-0.665771 -0.0651,-0.06854 -0.11013,-0.240731 -0.19719,-0.203862 -3.63239,1.538489 -3.48928,0.487278 -3.62753,1.977409 -0.0495,0.605478 0.007,1.216874 -0.0213,1.823908 -0.0113,0.874104 -0.047,1.751348 -0.19982,2.613824 -0.19945,0.981091 -0.44509,1.96869 -0.84419,2.888218 -0.38748,0.726953 -0.860473,1.376873 -1.544939,1.856899 -0.788485,0.601408 -1.599591,1.172757 -2.377562,1.787781 0,0 3.674701,-1.474687 3.674701,-1.474687 z" />
    <path
       style="fill:#ff0000;stroke-width:0.264583"
       id="path17112"
       d="m 128.50275,72.090544 c 0.99896,-0.507707 2.08366,-0.795597 3.18472,-0.970696 1.02034,-0.104113 2.05237,-0.190108 3.07794,-0.125624 0.85989,0.05244 1.22288,0.68571 1.32335,1.474941 -0.12327,0.72427 -0.70568,1.174126 -1.28757,1.560632 -0.18143,0.120515 -0.74992,0.443492 -0.56181,0.333684 0.91367,-0.533342 1.82567,-1.06953 2.7385,-1.604298 -0.59955,0.305046 -1.22169,0.561708 -1.8359,0.835094 0,0 -3.0628,2.430798 -3.0628,2.430798 v 0 c 0.61403,-0.283136 1.23662,-0.542988 1.85608,-0.813916 0.39089,-0.224248 4.51335,-2.128367 5.36818,-3.550333 0.26111,-0.434351 0.21942,-0.553328 0.26824,-1.039707 -0.17736,-0.883422 -0.60045,-1.788017 -1.59398,-1.911202 -1.04318,-0.144703 -2.10408,0.0081 -3.15035,0.06198 -1.11307,0.131733 -2.20483,0.392133 -3.23407,0.846508 0,0 -3.09053,2.472137 -3.09053,2.472137 z" />
    <path
       style="fill:#ff0000;stroke-width:0.264583"
       id="path17114"
       d="m 133.59153,58.797118 c 1.77241,0.459703 3.30627,1.40966 4.67913,2.593417 1.51712,1.440619 1.97647,3.389354 2.25302,5.383641 0.17748,1.593937 0.16001,3.199 0.14714,4.799875 0.0328,0.92275 -0.21777,1.817999 -0.33804,2.72633 -0.11841,0.814181 -0.39598,1.576612 -0.62731,2.360258 -0.17934,0.495726 -0.14561,1.02608 -0.41214,1.483532 3.27863,-2.019081 3.80326,-3.161107 3.22988,-1.944992 0,0 -3.34579,2.154891 -3.34579,2.154891 v 0 c 1.1969,1.175946 0.13619,0.277976 3.73033,-1.862185 0.17164,-0.493805 0.18752,-1.026888 0.36877,-1.520037 0.2484,-0.79434 0.46802,-1.592768 0.60041,-2.416447 0.13176,-0.914842 0.32932,-1.826956 0.28303,-2.757369 1.4e-4,-1.611074 -0.0326,-3.22585 -0.21813,-4.827756 -0.31243,-2.078861 -0.82669,-4.105609 -2.38802,-5.623153 -1.39056,-1.220097 -2.93218,-2.19878 -4.69997,-2.78421 0,0 -3.26231,2.234205 -3.26231,2.234205 z" />
    <path
       style="fill:#ff0000;stroke-width:0.264583"
       id="path17116"
       d="m 144.79018,69.982293 c 0.69657,-0.591796 1.33335,-1.494448 2.17326,-1.861865 -6.27593,3.792871 -2.45041,0.344189 -2.18367,2.734993 0.057,0.810485 -0.14386,1.572705 -0.35091,2.344587 -0.10612,0.607978 -0.4273,1.138962 -0.55282,1.740982 -0.0998,0.485015 -0.0977,0.983829 -0.10727,1.476933 0.0285,0.403331 -0.0803,0.834123 0.0781,1.211945 0.16875,0.307099 0.48804,0.438227 0.7944,0.574077 1.71376,0.625626 1.42026,-0.333573 4.09554,-1.996665 0,0 -3.64709,1.580941 -3.64709,1.580941 v 0 c 1.0927,-0.623234 2.16695,-1.279982 3.27809,-1.869707 0.0523,-0.02774 -0.0131,0.137919 -0.0658,0.164851 -0.1122,0.05735 -0.25639,-0.157638 -0.3655,-0.09643 -0.22817,-0.06819 -0.44218,-0.168151 -0.60947,-0.291991 -0.0876,-0.341882 0.0207,-0.724856 -0.0176,-1.073 0.008,-0.467487 0.0242,-0.93859 0.14294,-1.393539 0.17377,-0.57921 0.43485,-1.132025 0.54224,-1.731393 0.20958,-0.816076 0.35539,-1.643981 0.27335,-2.490926 -0.11471,-0.561972 -0.28661,-1.0049 -0.82091,-1.287729 -0.1236,-0.06543 -0.25875,-0.218107 -0.38693,-0.162177 -1.30375,0.568892 -2.52001,1.320284 -3.78001,1.980425 -0.77764,0.582996 -1.4675,1.294141 -2.13111,2.001338 0,0 3.64117,-1.555645 3.64117,-1.555645 z" />
    <path
       style="fill:#ff0000;stroke-width:0.264583"
       id="path17118"
       d="m 148.69683,71.469366 c 0.45619,0.714816 0.67912,1.431149 0.69248,2.271312 0.0451,0.626428 -0.1662,1.207006 -0.33162,1.800096 -0.11306,0.456279 -0.14566,0.922941 -0.15408,1.391023 -0.0625,0.06576 0.0184,0.845145 -0.009,0.86324 -0.0436,0.02872 -0.0808,-0.06611 -0.12119,-0.09917 0,0 3.69153,-1.51768 3.69153,-1.51768 v 0 c -0.0502,-0.342929 -0.0254,-0.689313 -0.0194,-1.035031 0.0242,-0.441439 0.0696,-0.881769 0.19084,-1.308796 0.16244,-0.625729 0.32902,-1.248307 0.26714,-1.903124 -0.0595,-0.881848 -0.32233,-1.653707 -0.76749,-2.420107 0,0 -3.43922,1.958235 -3.43922,1.958235 z" />
    <path
       style="fill:#ff0000;stroke-width:0.264583"
       id="path17120"
       d="m 151.95373,63.364773 c 0.10616,-0.08588 0.21749,-0.165737 0.31849,-0.25764 0.34272,-0.311854 0.65292,-0.67019 0.96771,-1.009679 0.0856,-0.09228 0.36543,-0.339204 0.25547,-0.277998 -1.09551,0.609774 -2.15145,1.28806 -3.22717,1.932091 -0.0566,-0.05642 -0.0902,-0.161132 -0.16968,-0.169252 -0.0271,-0.0028 -0.40416,0.982755 -0.43289,1.067872 0,0 3.57828,-1.67118 3.57828,-1.67118 v 0 c 0.23014,-0.60933 0.56736,-1.112687 0.13007,-1.712984 -1.17394,0.693428 -2.36472,1.359114 -3.52182,2.080289 -0.10365,0.0646 -0.16465,0.180443 -0.24827,0.269457 -0.41213,0.43869 -0.83795,0.866868 -1.32489,1.223711 0,0 3.6747,-1.474687 3.6747,-1.474687 z" />
    <path
       style="fill:#ff0000;stroke-width:0.264583"
       id="path17122"
       d="m 161.1733,68.659678 c 0.004,-0.792652 0.36005,-1.639247 0.20261,-2.432272 -0.0297,-0.149645 -0.10607,-0.286102 -0.1591,-0.429154 -0.4625,-0.72504 -1.17725,-1.029779 -1.99709,-0.802156 -2.22809,1.133094 -4.01765,1.784057 -4.81921,4.016132 -0.42796,0.938765 -0.58348,1.955006 -0.68822,2.971913 -0.0928,0.786392 0.11916,1.567416 0.21973,2.344833 0.0797,0.73392 0.0918,1.472634 0.1,2.210091 -0.0219,0.817031 0.25127,1.267428 0.90377,1.740456 0.39791,0.215402 1.01315,0.500472 1.46884,0.240744 3.63327,-2.07083 2.84636,-1.078455 3.92274,-2.570125 0.27566,-0.480042 0.5753,-0.940541 0.84104,-1.427012 0,0 -3.60867,1.614043 -3.60867,1.614043 v 0 c -0.26315,0.466619 -0.54516,0.922883 -0.86041,1.356508 -1.10178,1.163529 -0.39611,0.356907 2.81775,-1.411599 0.0973,-0.05356 -0.18636,0.12366 -0.28926,0.165526 -0.33644,0.136892 -0.65303,0.06858 -0.96392,-0.09548 -0.66213,-0.41356 -0.69963,-0.65047 -0.70695,-1.416953 -0.0181,-0.750064 -0.0546,-1.500266 -0.12792,-2.247095 -0.10345,-0.746734 -0.29593,-1.49424 -0.19148,-2.251983 0.11509,-0.990523 0.30911,-1.964539 0.73838,-2.873192 0.91482,-1.946257 3.2556,-2.863691 -1.85802,0.08244 0.64869,-0.390276 1.15383,-0.373387 1.64527,0.264018 0.28863,0.86057 -0.0567,1.815795 -0.1489,2.690304 0,0 3.55902,-1.739985 3.55902,-1.739985 z" />
    <path
       style="fill:#ff0000;stroke-width:0.264583"
       id="path17124"
       d="m 116.60358,90.352905 c 0.14219,-1.262679 0.21429,-2.531335 0.27111,-3.800237 0.11571,-1.12073 -0.0375,-2.207244 -0.32106,-3.287606 -0.34881,-1.204008 -1.39587,-1.720445 -2.5295,-2.004399 -0.61228,-0.09416 -1.3041,-0.136091 -1.87524,0.17221 -2.93752,1.58569 -3.76795,1.902909 -5.65517,3.805213 -1.53808,1.618226 -2.65747,3.516535 -3.41037,5.606457 -0.43288,1.301864 -0.65114,2.657079 -0.7302,4.02303 -0.074,0.84618 0.1383,1.672984 0.25722,2.505368 0.19431,1.045568 0.51766,2.055839 0.85817,3.060719 0.36301,0.99042 0.78157,1.93408 1.41803,2.77865 0.71187,0.8646 1.75001,1.08354 2.80642,1.21457 0.83451,0.072 1.62341,-0.17973 2.3402,-0.59581 3.95001,-2.2929 2.8501,-1.21467 4.29562,-2.74084 0.69944,-0.92975 0.9144,-1.965617 1.0002,-3.094703 0.0549,-0.960514 0.0388,-1.922875 0.0383,-2.884387 -0.007,-0.643596 -0.009,-1.287309 -0.005,-1.930937 0,0 -3.53433,1.80268 -3.53433,1.80268 v 0 c 0.009,0.641409 0.017,1.282856 0.0231,1.924299 0.0181,0.946322 0.0279,1.894525 -0.0361,2.839421 -0.11031,1.055417 -0.37144,2.029967 -1.10955,2.834757 -1.28704,1.10547 -0.55601,0.42654 2.37691,-1.20791 0.18152,-0.10115 -0.35207,0.22157 -0.53588,0.31849 -0.30815,0.16248 -0.76427,0.36466 -1.11269,0.42956 -0.17729,0.033 -0.36004,0.0214 -0.54006,0.0321 -0.95586,-0.0866 -1.94921,-0.19177 -2.62609,-0.95101 -0.62069,-0.80589 -1.00596,-1.716759 -1.35798,-2.667362 -0.33842,-0.981874 -0.64597,-1.97457 -0.81335,-3.002444 -0.12034,-0.807876 -0.29669,-1.613411 -0.22039,-2.435281 0.0713,-1.320038 0.27257,-2.629394 0.70892,-3.882929 0.78023,-2.040144 1.9235,-3.888513 3.47002,-5.44566 0.26877,-0.252185 0.52553,-0.517805 0.80631,-0.756555 0.25431,-0.216243 1.0998,-0.746754 0.79682,-0.606623 -0.89566,0.414245 -1.73897,0.934458 -2.58909,1.435555 -0.18842,0.111067 0.39278,-0.196318 0.60089,-0.263623 0.51887,-0.167814 0.60802,-0.112763 1.13693,-0.07889 1.01986,0.167193 1.98841,0.56139 2.28801,1.642047 0.2735,1.043929 0.38395,2.093761 0.28473,3.174193 -0.0509,1.263083 -0.11495,2.530882 -0.33462,3.777847 0,0 3.55901,-1.739982 3.55901,-1.739982 z" />
    <path
       style="fill:#ff0000;stroke-width:0.264583"
       id="path17126"
       d="m 112.8718,101.82928 c 0.62783,0.66099 1.33979,1.35382 2.30215,1.31976 3.25038,-1.77401 3.99046,-1.58759 4.43828,-4.467483 0.10759,-0.698746 0.0933,-1.407213 0.0962,-2.111856 0.0148,-0.294074 -0.11487,-0.675331 0.21011,-0.830802 0.0793,-0.03794 0.32035,-0.142873 0.245,-0.0976 -1.03557,0.622199 -2.0856,1.220018 -3.1284,1.830025 1.3972,-0.736846 2.73536,-1.4912 4.10514,-2.342287 0.16514,-0.102603 0.34437,-0.592529 0.44525,-0.761802 0.23895,-0.441124 0.30894,-0.939575 0.60822,-1.340345 1.27465,-0.52856 2.37422,-1.350335 -2.94679,1.756918 -0.0395,0.02307 0.17809,-0.163986 0.33846,0.07895 0.2022,0.903867 -0.11771,1.828581 -0.32006,2.706566 -0.094,0.760831 -0.39269,1.466863 -0.57876,2.204537 -0.105,0.375809 -0.15746,0.762609 -0.16387,1.152239 0.12366,0.35793 0.24136,0.69747 0.52304,0.95862 0.52657,0.31895 1.20624,0.25458 1.7974,0.22149 2.3539,-0.50847 4.56504,-1.9872 6.02351,-3.895547 0.86787,-1.239702 1.3904,-2.649524 1.67522,-4.124883 0.19684,-1.124161 0.21812,-2.265066 0.23312,-3.402629 -0.0349,-0.410765 0.0553,-0.810836 0.12492,-1.212209 0,0 -3.54397,1.736336 -3.54397,1.736336 v 0 c -0.0598,0.417798 -0.11912,0.836578 -0.0903,1.260371 -0.003,1.110237 -0.0387,2.225003 -0.23919,3.319907 -0.31589,1.427544 -0.84862,2.791889 -1.75654,3.955532 -0.43626,0.499592 -0.41962,0.516892 -0.9228,0.948642 -0.15504,0.13303 -0.66186,0.47423 -0.48016,0.38086 5.5797,-2.867213 3.3962,-1.769102 2.14321,-1.31817 -0.52844,0.08309 -1.06115,0.06583 -1.59315,0.01042 -0.21668,-0.130294 -0.29383,-0.38735 -0.34014,-0.628623 0.0292,-0.361143 0.0835,-0.717934 0.18341,-1.067255 0.20652,-0.730033 0.43312,-1.453166 0.54761,-2.205723 0.22026,-0.976048 0.52019,-2.008936 0.20543,-2.996263 -0.0636,-0.103487 -0.10907,-0.220673 -0.19091,-0.310462 -0.94917,-1.041392 -3.48692,0.935643 -4.26365,2.079302 -0.215,0.435798 -0.31894,0.923954 -0.59705,1.330933 -0.078,0.12069 -0.20178,0.331116 -0.31248,0.434483 -0.0629,0.05875 -0.2852,0.192334 -0.21028,0.149932 5.66151,-3.204237 3.90675,-2.164895 2.67654,-1.56976 -1.21236,0.705906 -2.43961,1.386859 -3.63709,2.11772 -0.4214,0.257191 -0.28119,0.869415 -0.29655,1.267798 0.004,0.682578 -0.005,1.367928 -0.11119,2.043808 -0.083,0.43791 -0.17093,0.8736 -0.35486,1.2834 -0.62092,1.38344 -2.85241,2.07362 2.59286,-0.95787 -0.0884,0.0558 -0.16333,0.14381 -0.26515,0.16741 -0.68543,0.15884 -1.35874,-0.70874 -1.77296,-1.105767 0,0 -3.39877,2.031377 -3.39877,2.031377 z" />
    <path
       style="fill:#ff0000;stroke-width:0.264583"
       id="path17128"
       d="m 124.77455,100.24177 c 0.79035,0.7108 1.78773,1.02611 2.7979,1.27879 2.21595,0.26434 4.3046,-1.32576 5.67867,-2.993459 0.55926,-0.552682 0.65004,-1.35696 1.01852,-2.003538 -1.61955,-3.009051 -3.70517,1.74499 -4.06034,3.014469 -0.0983,0.604838 -0.48341,1.115418 -0.47541,1.737648 0.0382,0.53285 0.39284,0.92854 0.79282,1.24629 0.74803,0.44024 1.64194,0.359 2.47219,0.29156 0.75291,-0.0806 1.46574,-0.32565 2.11735,-0.70899 3.91387,-2.302462 2.835,-1.16939 4.18127,-2.691367 0.66583,-0.769337 1.20069,-1.618899 1.52177,-2.585392 0.08,-0.681996 -0.18947,-1.304047 -0.65144,-1.790206 -0.0462,-0.05449 -0.0998,-0.103505 -0.13868,-0.163475 -0.10015,-0.15457 0.371,-0.0847 0.26291,-0.01656 -2.33636,1.473033 -4.39699,2.394008 -2.94111,1.735945 0.63974,-0.262398 1.33325,-0.306142 2.01514,-0.349198 0.7151,-0.0424 0.91054,0.597001 1.07966,1.176867 0.20324,0.766577 0.19521,1.271106 -0.13813,1.983277 -0.15919,0.309981 -0.39527,0.507556 -0.69557,0.672009 -0.11638,0.0637 -0.47047,0.24514 -0.35614,0.17779 2.59113,-1.52646 4.05962,-2.289556 2.55853,-1.502074 -0.58825,0.275747 -1.19987,0.497351 -1.81917,0.691915 -0.11772,0.03698 -0.24571,0.04861 -0.35435,0.107143 -1.19748,0.645176 -2.37126,1.333436 -3.55689,2.000156 0.0586,0.11806 0.0858,0.25797 0.17593,0.35417 0.38696,0.41307 2.65169,0.0811 3.17219,0.0441 1.96824,-0.19332 3.80158,-0.83531 5.53781,-1.75295 2.75876,-1.545844 5.81498,-3.003434 7.58682,-5.761379 0.21043,-0.327538 0.37699,-0.681265 0.56549,-1.021895 0.90255,-1.930852 1.1339,-4.032244 1.24359,-6.132271 0.0679,-1.452333 0.0462,-2.906165 0.0394,-4.359384 2e-4,-0.175165 5.2e-4,-0.350329 5.2e-4,-0.525497 0,0 -3.49996,1.787697 -3.49996,1.787697 v 0 c 0.004,0.173083 0.007,0.346165 0.011,0.519248 0.0196,1.43874 0.0388,2.878484 -0.0102,4.31682 -0.1165,2.047906 -0.35608,4.100523 -1.29748,5.958136 -0.83628,1.397272 -1.70028,2.456963 -3.00714,3.449367 -0.31372,0.238234 -1.32515,0.845048 -0.96935,0.675974 0.81151,-0.385633 1.56314,-0.886365 2.34472,-1.32955 -1.75342,0.981519 -3.41795,1.6139 -5.42612,1.877301 -0.78992,0.0502 -1.58544,0.128995 -2.37673,0.152535 -0.16036,0.0048 -0.46345,-0.08215 -0.47495,0.07787 -0.006,0.08696 0.0656,0.161558 0.0984,0.242338 -1.09446,0.61359 -2.20451,1.20018 -3.28339,1.84079 -0.10975,0.0652 0.24493,-0.072 0.36703,-0.10915 0.47912,-0.14588 0.9494,-0.30353 1.41796,-0.48028 0.14645,-0.0552 0.29307,-0.11004 0.43961,-0.16506 1.71312,-0.80114 0.55947,-0.24687 4.19964,-2.371813 0.44441,-0.259419 0.76501,-0.613855 0.95969,-1.092536 0.26302,-0.749298 0.23134,-1.456793 0.009,-2.21914 -0.22148,-0.707602 -0.52086,-1.518968 -1.35508,-1.623565 -0.69593,0.0295 -1.41129,0.0499 -2.08212,0.248544 -1.21549,0.364725 -4.98608,1.417095 -3.6838,2.953136 0.38172,0.374039 0.60141,0.851948 0.45368,1.392394 -0.3583,0.907978 -0.89203,1.71457 -1.57016,2.41939 -1.24782,1.10935 -0.45301,0.35237 2.49721,-1.282904 0.15989,-0.08862 -0.30544,0.201501 -0.46494,0.290811 -0.32646,0.182793 -0.64846,0.326023 -1.00831,0.430753 -0.17773,0.0517 -0.3612,0.0812 -0.5418,0.12179 -0.75589,0.0796 -1.54487,0.1885 -2.27627,-0.0854 -0.32425,-0.19798 -0.60966,-0.494183 -0.5944,-0.896011 0.0986,-0.566634 0.40548,-1.078581 0.5045,-1.647862 0.0982,-0.291081 0.21249,-0.575812 0.30714,-0.868058 0.0256,-0.07908 0.1497,-0.269393 0.0725,-0.238606 -3.57693,1.426228 -2.93492,2.750148 -3.51295,1.441661 -0.21918,0.689954 -0.54338,1.323835 -1.02436,1.872786 -1.06739,1.14651 -2.70844,1.80282 2.35396,-1.057234 0.11252,-0.06357 -0.2193,0.140271 -0.34015,0.186066 -0.3421,0.129635 -0.47548,0.09593 -0.83554,0.09528 -0.9661,-0.199802 -1.94602,-0.441896 -2.67951,-1.144151 0,0 -3.35298,2.106089 -3.35298,2.106089 z" />
    <path
       style="fill:#ff0000;stroke-width:0.264583"
       id="path17130"
       d="m 149.9475,97.885053 c 0.82524,0.850424 1.82679,1.30416 2.99933,1.36198 2.39728,-0.189291 4.45531,-2.021298 6.33273,-3.47226 1.12043,-0.820443 2.28651,-1.583732 3.34196,-2.489083 0.47096,-0.529857 0.95853,-1.038299 1.36482,-1.620107 0.18676,-0.159774 0.37824,-0.313817 0.57006,-0.467427 0,0 -3.67725,1.487499 -3.67725,1.487499 v 0 c -0.1912,0.17082 -0.38906,0.337645 -0.53219,0.553571 -0.41464,0.540909 -0.87654,1.048954 -1.37165,1.516994 -1.07571,0.85975 -2.20047,1.65086 -3.31433,2.459479 -0.21156,0.156896 -0.42118,0.316458 -0.6347,0.470686 -1.34948,0.974752 -1.33102,0.766009 2.30986,-1.225478 0.1316,-0.07198 -0.24194,0.178556 -0.37232,0.252727 -0.40517,0.230495 -0.37016,0.177811 -0.83423,0.224896 -1.14746,0.04116 -1.97042,-0.236217 -2.78332,-1.084855 0,0 -3.39877,2.031378 -3.39877,2.031378 z" />
    <path
       style="fill:#ff0000;stroke-width:0.264583"
       id="path17132"
       d="m 144.50128,91.319568 c 1.02889,-1.31972 5.85258,-3.940656 0.0633,-0.547325 1.00607,-0.492646 1.51796,-0.8222 2.55451,-0.294571 0.82384,0.717026 1.60921,1.403599 2.60766,1.865048 1.36659,0.490858 2.80669,0.69646 4.2505,0.56025 0.59214,-0.09785 1.14629,-0.310864 1.6623,-0.614725 2.4101,-1.41923 3.17284,-1.526558 4.54319,-3.038398 0.27799,-0.34353 0.49377,-0.715103 0.6777,-1.113981 0,0 -3.6006,1.625098 -3.6006,1.625098 v 0 c -0.2031,0.357121 -0.41961,0.70277 -0.70555,1.002096 -1.10218,1.098928 -2.6325,1.68421 2.13505,-0.943486 0.16581,-0.09139 -0.3152,0.210667 -0.48086,0.302358 -0.48843,0.270354 -0.56161,0.265679 -1.09573,0.440015 -1.39226,0.235104 -2.78858,0.04176 -4.13096,-0.383955 -1.03508,-0.430646 -1.7476,-1.098225 -2.55726,-1.852909 -1.18078,-0.717206 -1.5676,-0.579771 -2.81678,2.65e-4 -2.41117,1.371936 -4.81698,2.503254 -6.77001,4.472895 0,0 3.6635,-1.478706 3.6635,-1.478706 z" />
    <path
       style="fill:#ff0000;stroke-width:0.264583"
       id="path17134"
       d="m 132.44697,92.994926 c 2.32679,-1.188834 4.52721,-2.451756 6.30222,-4.359534 0.54355,-0.554059 0.65634,-1.05114 -0.28257,-1.130425 -0.0927,0.0065 -0.18544,0.01299 -0.27817,0.0195 0,0 -3.15733,2.399903 -3.15733,2.399903 v 0 c 0.0732,-0.02993 0.14637,-0.05987 0.21955,-0.08981 0.0137,-7.94e-4 0.31269,-0.0065 0.34628,-0.05348 0.30665,-0.428601 -0.55866,0.247928 -0.47284,0.363606 -0.44462,0.444193 -0.90799,0.860354 -1.39934,1.253114 -1.1031,0.881764 -3.65144,2.35712 1.81274,-0.875014 0,0 -3.09054,2.472137 -3.09054,2.472137 z" />
    <path
       style="fill:#ff0000;stroke-width:0.264583"
       id="path17136"
       d="m 120.57652,97.382448 c 1.16507,-0.178639 2.33433,-0.305126 3.49101,-0.537104 1.38974,-0.293481 2.78821,-0.54465 4.17833,-0.836139 0.84365,-0.182288 0.43555,-0.09626 1.22411,-0.2589 0,0 3.12431,-2.369794 3.12431,-2.369794 v 0 c -0.79889,0.169095 -0.38672,0.08181 -1.23653,0.261882 -1.38158,0.325861 -2.7873,0.545089 -4.17607,0.838666 -1.13482,0.257675 -2.28311,0.396962 -3.43906,0.520218 0,0 -3.1661,2.381171 -3.1661,2.381171 z" />
    <circle
       id="path17138"
       style="fill:#ff0000;stroke:#000000;stroke-width:0.264583"
       cx="-113.1992"
       cy="112.01593"
       r="0.052536666" />
    <circle
       id="path17140"
       style="fill:#ff0000;stroke:#000000;stroke-width:0.264583"
       cx="-113.1992"
       cy="112.01593"
       r="0.052536666"
       inkscape:export-xdpi="96"
       inkscape:export-ydpi="96" />
  </g>
</svg>
