<?xml version="1.0" encoding="UTF-8" standalone="no"?>
<svg
   width="210mm"
   height="297mm"
   viewBox="0 0 210 297"
   version="1.1"
   id="svg31"
   inkscape:version="1.1-alpha (17bc9184, 2021-03-28)"
   sodipodi:docname="signature.svg"
   xmlns:inkscape="http://www.inkscape.org/namespaces/inkscape"
   xmlns:sodipodi="http://sodipodi.sourceforge.net/DTD/sodipodi-0.dtd"
   xmlns="http://www.w3.org/2000/svg"
   xmlns:svg="http://www.w3.org/2000/svg">
  <sodipodi:namedview
     id="namedview33"
     pagecolor="#ffffff"
     bordercolor="#666666"
     borderopacity="1.0"
     objecttolerance="10.0"
     gridtolerance="10.0"
     guidetolerance="10.0"
     inkscape:pageshadow="2"
     inkscape:pageopacity="0.0"
     inkscape:pagecheckerboard="0"
     inkscape:document-units="mm"
     showgrid="false"
     inkscape:zoom="0.67081229"
     inkscape:cx="397.27954"
     inkscape:cy="579.1486"
     inkscape:window-width="1312"
     inkscape:window-height="1003"
     inkscape:window-x="0"
     inkscape:window-y="23"
     inkscape:window-maximized="0"
     inkscape:current-layer="layer1" />
  <defs
     id="defs28" />
  <g
     inkscape:label="Layer 1"
     inkscape:groupmode="layer"
     id="layer1">
    <path
       style="fill:#000000;fill-opacity:1;fill-rule:nonzero;stroke:none;stroke-width:0.264583"
       id="path101"
       d="m 4.8008383,104.19537 c 1.4864022,1.78948 3.8004419,2.30449 5.9800957,2.70648 4.37147,0.32657 8.373722,-1.5711 12.226379,-3.38372 3.535644,-1.75508 6.932341,-3.78438 10.281109,-5.86867 1.132557,-0.704911 3.078811,-2.091481 4.110834,-2.954684 0.643072,-0.537877 1.236699,-1.13225 1.855049,-1.698376 3.332827,-3.749712 6.583431,-7.618836 9.413748,-11.769603 0.532495,-0.780921 1.022199,-1.590175 1.533297,-2.385264 1.763263,-2.938161 3.259863,-6.055593 4.335074,-9.313691 0.538432,-1.631555 0.623813,-2.17647 0.995172,-3.809148 0.534263,-3.006261 0.751009,-6.076944 0.374711,-9.112159 -0.31401,-1.566707 -0.958937,-2.37575 -2.425494,-3.008154 -0.290189,-0.125135 -0.58461,-0.254849 -0.895604,-0.310976 -0.348215,-0.06284 -0.707125,-0.02805 -1.060685,-0.04208 -0.379656,0.07208 -0.767141,0.110969 -1.138965,0.216223 -0.357265,0.101132 -0.715566,0.218861 -1.039448,0.400426 -1.41773,0.794753 -3.794738,1.656636 -4.807659,3.325577 -0.561295,0.924814 -0.551603,1.429462 -0.777753,2.52412 -0.471001,4.245207 0.05201,8.516995 0.390692,12.751845 0.46791,5.740389 0.628943,11.497746 0.740182,17.253979 0.119542,4.870389 -0.04155,9.736052 -0.60072,14.574815 -0.249566,3.03317 -1.504104,5.47442 -3.254277,7.89199 -1.703748,2.17609 -3.619892,4.16612 -5.796016,5.86816 -0.404384,0.24191 -1.608669,0.98187 -1.213149,0.72573 0.659384,-0.42703 1.423059,-0.7109 2.005039,-1.23857 0.323847,-0.29362 -0.797475,0.35971 -1.206333,0.5144 -0.996336,0.37696 -1.966005,0.643 -3.023494,0.72826 -1.665576,-0.38515 -1.4033,-1.52409 -0.712711,-2.70905 1.10862,-1.45042 2.521953,-2.65841 3.919812,-3.82466 1.505615,-1.21198 2.946628,-2.50166 4.293698,-3.88742 1.296419,-1.3979 2.778633,-2.61781 4.294373,-3.76996 1.645161,-1.08924 3.212341,-2.28921 4.747019,-3.52757 1.424115,-1.206747 2.849756,-2.41149 4.241067,-3.656344 1.441405,-1.258935 2.615197,-2.781263 3.965956,-4.128286 1.188278,-1.259599 2.627262,-2.208189 4.055536,-3.165766 1.239248,-0.808326 2.395479,-1.736111 3.600958,-2.594787 1.275384,-0.761466 -0.08458,0.06493 1.130303,-0.716471 0.168029,-0.108077 0.684405,-0.412488 0.511466,-0.312459 -5.200007,3.007661 -3.331758,1.908153 -2.125546,1.301802 1.258914,-0.608123 5.751954,-2.533927 3.399398,-2.953702 -1.842021,-0.160308 -4.348191,1.934959 -5.373846,2.53936 -0.652026,0.413866 -1.304425,0.818747 -1.909752,1.302668 -0.533421,0.547147 -1.057667,1.094634 -1.554348,1.677384 -0.646869,0.662876 -1.272034,1.342001 -1.832623,2.082128 -0.519435,0.684009 -1.0428,1.360323 -1.558742,2.04728 -0.341445,0.560792 -0.757513,1.074478 -1.064602,1.657278 -0.272497,0.651931 -0.358129,1.354304 -0.232015,2.047052 0.212447,0.521931 0.685966,0.696341 1.201951,0.777148 0.499674,0.04405 1.005327,0.04316 1.505218,0.004 1.803587,-0.617212 3.623505,-1.585704 4.869293,-3.05299 0.353902,-0.393266 0.489913,-0.88949 0.537824,-1.403752 0.207457,-0.458939 0.290325,-0.978631 0.349332,-1.47777 0.05791,-0.457507 0.05178,-0.919276 0.056,-1.37941 0.217225,-0.465183 0.210992,-0.898851 0.130405,-1.395212 0.850342,-1.102071 0.30109,-0.374896 -3.367347,1.96554 -0.03692,0.02355 0.03446,0.08088 0.04533,0.123298 0.04225,0.164875 0.04428,0.34289 0.05245,0.511543 0.07966,0.420335 -0.08672,0.743249 -0.206486,1.127905 -0.159287,0.453393 -0.165508,0.93766 -0.181298,1.41269 -0.02037,0.607793 0.188299,1.199116 0.425116,1.750145 0.217348,0.64611 0.731232,1.11488 1.295641,1.465175 0.368303,0.154538 0.816369,0.231444 1.185252,0.02114 3.629609,-2.069229 2.766324,-1.034264 3.83971,-2.409947 0.250171,-0.417478 0.640109,-0.743807 0.901268,-1.150842 0.235553,-0.468915 0.106858,-0.246663 0.383035,-0.668509 0.377021,-0.472755 0.530291,-1.007647 0.589031,-1.596612 0.04816,-0.528395 0.03776,-1.06003 0.03928,-1.590062 -0.0052,-0.481446 -0.005,-0.962847 -0.0065,-1.444312 0.0051,-0.35315 0.0016,-0.706313 0.0031,-1.059474 0.02334,-0.135964 -0.08009,-0.370319 0.07459,-0.461137 0.04392,-0.0258 0.19198,-0.06221 0.148598,-0.03553 -1.06114,0.652672 -4.375501,2.352246 -3.208094,1.917324 1.294342,-0.482216 2.39644,-1.374227 3.594659,-2.061339 -5.724734,3.05807 -3.322122,1.658546 -1.608918,1.481354 0.845145,-0.09134 1.681048,-0.0444 2.511417,0.128696 0.87926,0.174025 1.52306,0.587854 1.744535,1.476989 0.101555,0.66671 0.01418,1.338165 -0.03655,2.00479 -0.07496,0.183208 -0.153326,0.375322 -0.312304,0.504616 -0.05931,0.04824 -0.261474,0.158557 -0.195683,0.119621 3.270636,-1.935623 4.227999,-2.4101 2.884816,-1.733968 -0.696688,0.247391 -1.405398,0.452951 -2.099662,0.707609 -0.598578,0.252445 -1.202336,0.479994 -1.838291,0.617189 -1.38702,0.241207 -5.265666,1.248624 -4.099475,2.695966 0.447887,0.252167 1.003099,0.179914 1.49693,0.13584 0.709896,-0.135001 1.414024,-0.286046 2.108806,-0.485248 1.911636,-0.534033 3.654867,-1.607717 5.22868,-2.802766 0.77021,-0.604539 1.533554,-1.228421 2.139664,-2.0032 0.349229,-0.497578 0.661567,-1.012833 0.980705,-1.525556 0.185782,-0.352753 0.185317,-0.819965 0.550283,-1.029888 0.414906,-0.202634 0.630449,-0.598281 1.040675,-0.796467 -1.064456,0.619231 -2.131007,1.234874 -3.193367,1.857692 -0.132535,0.0777 0.286112,-0.114593 0.41969,-0.190489 1.195109,-0.679045 2.374535,-1.385438 3.569253,-2.065171 1.02712,-0.584377 -4.113692,2.325788 -3.062648,1.785623 0.364512,-0.192133 0.776124,-0.210333 1.17874,-0.230217 1.420305,0.162108 5.278504,-2.491057 3.01606,-2.32293 -2.876804,0.696301 -3.773633,1.607359 -4.724665,3.656962 -0.351988,0.720024 -0.630621,1.476095 -0.75561,2.269075 0.02726,0.751943 0.783429,0.978458 1.382935,1.206005 0.547243,0.209798 1.122315,0.277691 1.702982,0.301281 0.822579,0.03933 1.633292,-0.136784 2.442845,-0.255969 2.042081,-0.221702 3.845632,-1.72235 5.507215,-2.685576 0.970658,-0.665419 1.520597,-1.675545 1.910064,-2.754744 0.333735,-0.99019 0.403622,-1.978329 0.151633,-2.988902 -0.203039,-1.035781 -0.760032,-1.909927 -1.363771,-2.753199 -0.521962,-0.662241 -1.307174,-0.971132 -2.124721,-1.061892 -1.837216,0.141417 -4.257878,1.030719 -4.586332,2.964625 -0.145039,0.973568 0.365215,1.579715 1.173737,2.025157 0.576791,0.269259 1.202875,0.408358 1.837946,0.408837 1.487496,-0.258233 3.165957,-1.673058 4.072901,-2.20721 0.05918,-0.03485 0.220667,-0.162626 0.161078,-0.128479 -4.909918,2.813675 -4.213736,2.428389 -3.032046,1.777924 0.529199,-0.244158 1.06883,-0.440304 1.62527,-0.612 0.975598,-0.293431 2.000869,-0.336926 3.011942,-0.379164 0.709763,-0.04926 1.37664,-0.04791 1.708441,0.653473 0.194286,0.762887 0.177271,1.55919 0.175017,2.340867 -0.009,0.652071 -0.01916,1.303996 -0.01545,1.956157 -0.0088,0.605917 -0.0076,1.211826 -0.0098,1.817751 0.06367,0.483066 -0.327893,0.919589 -0.156464,1.396823 3.016329,2.607408 3.850915,-2.064996 3.97895,-3.596328 0.0732,-0.951124 0.04166,-1.896904 0.222596,-2.836005 0.182393,-0.667787 0.464955,-1.298895 0.714465,-1.941499 0.16314,-0.607172 0.340561,-1.217536 0.649759,-1.76951 0.435925,-0.523298 0.93473,-1.050684 1.519452,-1.411232 1.390115,-0.76001 -0.292984,0.156917 -2.852066,1.672519 -0.07878,0.04665 0.16642,-0.07649 0.24811,-0.117838 0.219673,-0.111183 0.433531,-0.225875 0.657871,-0.327935 0.56198,-0.174921 1.14178,-0.29782 1.716244,-0.429019 0.572987,-0.141266 1.114234,-0.101113 1.556046,0.309605 0.429485,0.590293 0.718833,1.328253 0.700881,2.063284 -0.09109,0.740902 -0.177186,1.48113 -0.224605,2.226318 -0.03747,0.709866 -0.04994,1.42054 -0.05194,2.131274 -0.0097,0.567984 -0.148132,1.166982 -0.364699,1.694387 -0.217955,0.607075 -0.417068,1.188738 -0.19404,1.813313 0.190056,0.450006 0.556176,0.757431 1.004427,0.927635 0.543384,0.127392 1.113164,0.09487 1.668164,0.09649 0.52001,-0.0019 1.04001,-0.0043 1.56002,-0.0069 1.75137,-0.0093 3.30674,-1.219284 4.62286,-2.293633 0.19992,-0.08149 0.1726,-0.305826 0.28246,-0.449847 0.11101,-0.145508 0.20939,-0.122531 0.29994,-0.30697 0.0858,-0.337793 0.38503,-0.462026 0.58272,-0.700005 4.10344,-2.477601 -10.387748,5.971169 1.21825,-0.736161 1.22005,-0.798978 0.52656,-0.339362 -2.95135,1.699432 -0.0639,0.03743 0.13116,-0.06875 0.19814,-0.100253 0.19438,-0.0914 0.38563,-0.146976 0.59333,-0.198088 0,0 3.17314,-2.386029 3.17314,-2.386029 v 0 c -1.78639,0.16573 -3.18246,1.583055 -4.70946,2.410706 1.05243,-0.604856 4.21281,-2.413987 3.15728,-1.814568 -1.21013,0.687213 -3.13414,1.529517 -4.34882,2.648075 -0.24842,0.210417 -0.37889,0.493207 -0.56737,0.752313 -0.23487,0.196154 -0.32492,0.50873 -0.62401,0.638101 -1.1996,0.716174 -0.82782,0.492527 3.07139,-1.735915 0.0525,-0.03002 -0.10847,0.05364 -0.16368,0.07836 -0.20488,0.09174 -0.39549,0.195263 -0.62788,0.162981 -0.52152,7.94e-4 -1.04302,0.0045 -1.56451,0.0098 -0.52959,0.0054 -1.05985,0.0088 -1.58903,-0.01453 -0.36065,-0.06538 -0.66901,-0.226912 -0.81219,-0.588031 -0.13921,-0.53735 0.15264,-1.076333 0.30681,-1.584431 0.17446,-0.587377 0.32566,-1.191429 0.30139,-1.809043 0.006,-0.70207 0.0106,-1.404716 0.0568,-2.105549 0.0569,-0.756251 0.17126,-1.506469 0.21037,-2.263643 -0.0644,-0.832297 -0.3647,-1.637816 -0.84025,-2.324931 -0.47574,-0.509304 -1.07489,-0.765675 -1.77885,-0.633626 -0.586048,0.10995 -1.154291,0.291914 -1.741441,0.37742 -0.342858,0.09518 -0.623168,0.25392 -0.930264,0.428106 -3.905949,2.215433 -2.49332,1.270035 -3.924033,2.237965 -0.553651,0.453615 -1.105995,0.961578 -1.452343,1.594358 -0.253457,0.584192 -0.434798,1.191115 -0.6326,1.795055 -0.270044,0.653524 -0.513157,1.321377 -0.667025,2.012834 -0.136311,0.947044 -0.110548,1.90111 -0.200171,2.852888 -0.05181,0.421301 -0.0882,0.856935 -0.238241,1.258525 -0.03006,0.08046 -0.191551,0.270113 -0.115388,0.230399 3.42704,-1.786887 2.856032,-3.081766 3.389136,-1.571823 0.06971,-0.304173 0.23564,-0.85515 0.19065,-1.263542 -0.0016,-0.603311 0.0013,-1.20664 -0.0013,-1.809969 0.01077,-0.6535 0.01868,-1.307047 0.01511,-1.96065 -0.01085,-0.836901 -0.01101,-1.69163 -0.253143,-2.499908 -0.407791,-0.820102 -1.065149,-1.11941 -1.981528,-1.018685 -1.021447,0.03448 -2.052775,0.06161 -3.054588,0.282077 -0.554905,0.171979 -1.116703,0.285208 -1.624343,0.579768 -1.559298,0.368629 -0.182184,0.02027 -3.786574,2.130076 -0.05631,0.03296 -0.221689,0.137615 -0.164989,0.105328 5.640163,-3.211745 3.996704,-2.222791 2.798091,-1.607164 -0.550611,0.184023 -1.184169,-0.03422 -1.717463,-0.198599 -0.706864,-0.311837 -1.108673,-0.740539 -0.898851,-1.555485 0.03992,-0.0929 0.06432,-0.194141 0.119753,-0.278707 0.05309,-0.08099 0.285927,-0.255987 0.200663,-0.210076 -6.887705,3.708754 -3.679629,1.813912 -2.503702,1.54927 0.70884,-0.09583 1.466361,0.209764 1.940637,0.737904 0.591902,0.792256 1.10559,1.627373 1.28162,2.618211 0.204785,0.942999 0.09725,1.862312 -0.237813,2.768812 -0.42954,1.034838 -1.043929,1.948479 -2.031081,2.528893 6.232628,-3.558876 2.729116,-1.24614 1.329854,-1.096936 -0.801661,0.08835 -1.591249,0.313568 -2.399858,0.302889 -0.550596,-0.01299 -1.104985,-0.03114 -1.634059,-0.202932 -0.261144,-0.0829 -0.837766,-0.24202 -1.044078,-0.409292 -0.08737,-0.07084 -0.0549,-0.235644 -0.05329,-0.316373 0.155048,-0.752647 0.423846,-1.472105 0.773123,-2.156939 0.188973,-0.366982 0.362862,-0.768422 0.661061,-1.064853 0.07655,-0.07609 0.345257,-0.256894 0.250531,-0.205152 -2.813695,1.536903 -4.134921,2.504498 -2.926111,1.629801 0.07062,-0.0254 0.138128,-0.06222 0.211862,-0.07622 0.05825,-0.01106 0.128511,0.03511 0.177853,0.0021 4.274476,-2.847793 4.605888,-2.345367 2.958923,-2.338774 -0.42481,0.0037 -0.853292,5.29e-4 -1.26899,0.09978 -1.462362,0.588804 0.202415,-0.0906 -3.753876,2.120982 -1.083276,0.605552 2.149657,-1.240874 3.228581,-1.854149 0.06543,-0.03719 -0.118671,0.09544 -0.187616,0.125626 -0.07427,0.03252 -0.164955,0.02027 -0.235765,0.05975 -1.207347,0.673177 -2.394083,1.382667 -3.591126,2.074002 -0.341702,0.289732 -0.677929,0.58836 -1.013148,0.884328 -0.204436,0.349721 -0.281467,0.756356 -0.514808,1.09284 -0.332917,0.486349 -0.577588,1.031367 -0.977961,1.472488 -0.650536,0.719006 -1.3892,1.345814 -2.178407,1.908649 -1.315617,0.854866 -0.642162,0.407731 2.7138,-1.521521 0.605671,-0.348184 -1.63575,0.907225 -1.143585,0.47031 -0.6922,0.18899 -1.373682,0.386856 -2.079297,0.517036 -0.425593,0.106825 -0.856168,0.05229 -1.282801,0.123544 -0.776313,3.729879 -5.156099,2.084851 -2.436693,1.811745 0.648708,-0.112508 1.292918,-0.269936 1.880367,-0.577805 0.701212,-0.231854 1.38244,-0.514051 2.100078,-0.698571 1.692394,-0.42826 3.954888,-1.256324 4.28535,-3.102028 0.04999,-0.703858 0.0957,-1.416592 -0.0512,-2.112915 -0.316357,-1.042553 -0.896271,-1.583296 -1.967074,-1.831909 -0.843333,-0.223374 -1.695733,-0.320222 -2.567651,-0.240641 -2.12348,0.125958 -3.164031,0.863743 -5.274064,2.289329 1.071279,-0.613744 4.216074,-2.562225 3.213835,-1.841231 -2.379347,1.711667 -3.685534,0.916602 -3.661153,2.864679 0.0016,0.352086 -0.0016,0.704183 0.0055,1.05624 0.0011,0.48146 0.0057,0.962866 0.0066,1.444321 0.0045,0.512778 0.006,1.027588 -0.05839,1.537258 -0.09746,0.535125 -0.330547,0.996667 -0.648317,1.438717 -0.380629,0.625353 -0.831865,1.201139 -1.319863,1.746792 -1.206966,0.99817 -0.168381,0.114634 2.892835,-1.590029 0.235006,-0.130863 -0.346601,0.298275 -0.719873,0.309565 -0.07652,0.0024 -0.153037,-0.0049 -0.229555,-0.0074 -0.527502,-0.275016 -0.979268,-0.65948 -1.162979,-1.245968 -0.214532,-0.505852 -0.383034,-1.035786 -0.339156,-1.593715 0.02762,-0.449231 0.07087,-0.895991 0.234889,-1.319776 0.143315,-0.415372 0.194252,-0.827368 0.140341,-1.266519 -0.183412,-2.060522 -1.108705,-0.486925 -3.784957,0.927206 -0.04625,0.02445 0.01103,0.104032 0.01656,0.156046 0.06403,0.47031 -0.08892,0.876308 -0.155577,1.338109 -0.0028,0.444506 -0.01535,0.890056 -0.07578,1.331034 -0.08232,0.503378 -0.220303,0.989116 -0.354931,1.479511 -0.09139,0.456543 -0.28153,0.849265 -0.624403,1.175517 -0.140161,0.132998 -0.330899,0.318529 -0.479473,0.440735 -0.08218,0.0676 -0.347715,0.244147 -0.254757,0.192365 5.631022,-3.136662 3.756208,-2.282917 2.675909,-1.491369 -0.461309,0.144148 -0.953646,0.06731 -1.432825,0.08231 -0.327202,-0.01212 -0.774805,0.0052 -0.935228,-0.334214 -0.09442,-0.621575 0.04389,-1.249535 0.346964,-1.799024 0.343988,-0.543994 0.701546,-1.078333 1.069145,-1.606706 0.515437,-0.683215 1.035661,-1.36276 1.560311,-2.038903 0.584912,-0.71588 1.210585,-1.38875 1.840333,-2.064385 0.499481,-0.563716 1.018881,-1.114859 1.590538,-1.606283 0.621379,-0.455745 1.283475,-0.845357 1.914919,-1.286055 -5.946624,3.368273 -3.362002,1.7354 -2.087034,1.261737 0.260395,-0.09674 0.289717,-0.07072 0.559782,-0.06412 1.733153,0.06599 5.536189,-3.246059 2.905691,-1.805255 -2.117534,1.135618 -4.234066,2.284413 -6.227794,3.631377 -1.195901,0.858854 -2.342107,1.78816 -3.586707,2.577317 -1.424118,0.962885 -2.824168,1.960502 -4.000191,3.227832 -1.321956,1.374381 -2.537597,2.85673 -3.983953,4.108085 -1.389893,1.236371 -2.812735,2.435321 -4.236146,3.632661 -1.541946,1.23127 -3.130565,2.39965 -4.753967,3.52137 -1.507852,1.16935 -2.973752,2.40587 -4.265104,3.81512 -1.369367,1.36604 -2.823104,2.64123 -4.323096,3.86233 -1.400895,1.20504 -2.860307,2.42056 -3.885356,3.97388 -0.109043,0.23428 -0.246639,0.45729 -0.327131,0.70285 -0.295177,0.90053 -0.0771,1.9052 0.76948,2.43307 0.210717,0.13139 0.462701,0.18047 0.694052,0.2707 0.293564,-0.007 0.590336,0.0217 0.880695,-0.0221 0.361286,-0.0546 0.710338,-0.17232 1.062009,-0.27149 2.962222,-0.83536 5.596606,-2.46111 8.153468,-4.14968 2.155076,-1.7474 4.081791,-3.75543 5.75895,-5.96857 1.719572,-2.47163 2.929356,-4.98689 3.127394,-8.04717 0.446405,-4.83094 0.532463,-9.679885 0.413972,-14.529845 -0.07481,-5.768661 -0.244443,-11.536485 -0.719005,-17.288259 -0.17,-2.485194 -0.331682,-4.964086 -0.396359,-7.454482 -0.02935,-1.130001 -0.07681,-2.408854 0.0074,-3.538529 0.04343,-0.582589 0.143587,-1.159555 0.215379,-1.739334 0.28902,-1.052793 0.301955,-1.530202 0.914011,-2.384954 0.19391,-0.270801 1.001027,-0.829405 0.683498,-0.728858 -0.878898,0.278307 -1.647833,0.829228 -2.447761,1.287523 -0.318085,0.18224 0.654031,-0.336407 0.999871,-0.457997 0.349435,-0.122851 0.718219,-0.181525 1.077328,-0.272288 0.326451,-0.01712 0.654574,-0.08852 0.97935,-0.05134 0.301006,0.03446 0.586769,0.155522 0.870018,0.263044 1.389624,0.527499 1.955171,1.203856 2.261156,2.663163 0.393002,2.980965 0.173056,6.000718 -0.35488,8.954452 -0.3628,1.631239 -0.430017,2.108195 -0.962076,3.74145 -1.051713,3.228424 -2.533949,6.309658 -4.297777,9.206502 -3.250142,5.006446 -6.902151,9.760918 -11.024891,14.084604 -1.887003,1.685203 -1.794457,1.696625 -3.850307,3.159691 -0.692989,0.493176 -1.459209,0.88555 -2.116225,1.425721 -0.230984,0.189904 1.073436,-0.521677 0.821227,-0.361027 -1.393354,0.887534 -3.410622,1.891023 -4.873742,2.648973 -3.773856,1.79038 -7.687221,3.69985 -11.974666,3.48185 -2.057319,-0.35232 -4.3504443,-0.7949 -5.6837162,-2.56642 0,0 -3.3972745,2.03049 -3.3972745,2.03049 z" />
    <path
       style="fill:#000000;fill-opacity:1;fill-rule:nonzero;stroke:none;stroke-width:0.264583"
       id="path103"
       d="m 34.967883,132.90101 c 1.737289,-0.11556 3.435755,-0.54437 5.096346,-1.04774 2.630551,-1.05696 5.25413,-2.38184 7.325603,-4.34274 1.183733,-1.15154 2.171277,-2.48301 3.373337,-3.614 0.987044,-1.03177 1.9425,-2.09517 2.946551,-3.1122 0.522513,-0.44002 0.933508,-0.98824 1.401464,-1.48015 0.0753,-0.0792 0.336338,-0.27574 0.241382,-0.22172 -3.393438,1.93071 -2.254195,2.71388 -3.451442,1.79138 -0.225907,1.40224 -0.664377,2.76324 -1.071973,4.1213 -0.702701,1.87722 -1.235456,3.80874 -1.73342,5.74816 -0.442492,1.55962 -0.726774,3.16047 -1.16845,4.71901 -0.404099,1.54718 -0.733476,3.11304 -1.054034,4.67954 -0.312571,1.7431 -1.064363,3.33351 -1.924315,4.86446 -0.923303,1.54566 -2.211038,2.80297 -3.461208,4.07706 -0.853813,0.85879 -1.719495,1.70428 -2.396304,2.71339 -0.588267,0.87331 -1.197269,1.73218 -1.789785,2.60413 -0.650399,0.92228 -1.099595,1.91708 -1.484709,2.97044 -0.05864,0.11936 -0.117274,0.23872 -0.175911,0.35808 0,0 3.585924,-1.64324 3.585924,-1.64324 v 0 c 0.04835,-0.12315 0.0967,-0.24629 0.145045,-0.36944 0.387506,-1.02238 0.896194,-1.97537 1.513022,-2.87983 0.595564,-0.87574 1.232855,-1.72089 1.812457,-2.60709 0.706734,-0.956 1.550752,-1.7888 2.379562,-2.63808 1.254747,-1.29006 2.517476,-2.59581 3.414003,-4.17215 0.838467,-1.57233 1.568008,-3.19919 1.875404,-4.96854 0.328059,-1.56097 0.666094,-3.12124 1.075669,-4.66305 0.411559,-1.56192 0.726233,-3.14845 1.137658,-4.71087 0.498893,-1.93955 1.05782,-3.85792 1.749308,-5.73913 0.420209,-1.41327 0.919909,-2.83086 1.099558,-4.2977 -0.07333,-0.16542 -0.05304,-0.56602 -0.21999,-0.49625 -3.068344,1.28234 -3.274618,1.88316 -5.080905,3.72876 -0.997085,1.02992 -1.973871,2.07885 -2.967625,3.11131 -1.152623,1.17013 -2.165331,2.47225 -3.367767,3.5956 -1.219433,1.05414 -3.348003,2.13494 1.375756,-0.51278 0.222258,-0.12458 -0.431516,0.27182 -0.656007,0.39233 -0.438979,0.23565 -0.92147,0.42497 -1.379578,0.61727 -1.609799,0.53465 -3.263304,0.9673 -4.960532,1.09657 0,0 -3.204094,2.32791 -3.204094,2.32791 z" />
    <path
       style="fill:#000000;fill-opacity:1;fill-rule:nonzero;stroke:none;stroke-width:0.264583"
       id="path105"
       d="m 53.56322,125.73141 c 1.182548,-0.63949 2.399279,-1.21219 3.641072,-1.72625 0.952653,-0.31437 1.916898,-0.85324 2.945789,-0.78156 1.130982,0.31715 0.899816,1.65178 0.77584,2.55339 -0.450157,1.91101 -1.347457,3.69792 -2.286283,5.41213 -1.017183,1.92504 -2.22486,3.73481 -3.295909,5.62888 -0.950908,1.55771 -1.887652,3.12373 -2.836619,4.68244 -0.665293,1.26625 -1.361581,2.51228 -2.19518,3.67581 -0.515471,0.75506 -0.947584,1.56256 -1.451824,2.32485 -0.203867,0.42576 -0.626028,0.61876 -0.916871,0.96089 -0.426114,0.64009 -0.860057,1.28772 -1.272127,1.94428 -0.704279,1.11648 -0.970701,2.3875 -1.361602,3.6242 -0.438623,1.06281 -0.025,1.8145 0.496819,2.74359 0.298963,0.0991 0.587095,0.24047 0.896893,0.2972 0.38209,0.07 0.774453,0.0645 1.162589,0.0799 1.515737,0.0604 2.85772,-0.20194 4.287793,-0.67613 2.891586,-1.36004 4.991891,-2.09348 6.072248,-4.92699 0.193736,-0.8841 0.480505,-1.74927 0.604144,-2.64782 0.258183,-0.46282 0.194548,-1.2856 0.492329,-1.7012 -1.172813,0.64513 -2.381935,1.22826 -3.51844,1.93539 -0.06932,0.0431 0.01103,0.16292 0.01498,0.24446 0.0062,0.12977 0.01172,0.25959 0.01556,0.38946 0.01691,0.57162 0.01749,1.14342 0.01796,1.71522 0.01741,1.04399 -0.08507,2.08431 0.104072,3.11538 0.09097,0.70475 0.472045,1.29098 0.942972,1.80282 0.417965,0.35449 0.890323,0.59499 1.439204,0.51596 3.051865,-1.09515 3.803599,-1.91818 5.161171,-4.03586 0.413883,-0.84523 0.833067,-1.68619 1.226346,-2.54302 0.299046,-0.64429 0.468456,-1.30484 0.526344,-2.00902 0.154466,-0.54055 0.304639,-1.05483 0.563197,-1.55766 0.636178,-1.80037 -0.730295,-0.21494 -3.483448,1.33683 -0.05495,0.031 -0.01931,0.12494 -0.03611,0.18573 -0.02551,0.0923 -0.0604,0.1817 -0.09061,0.27255 -0.330626,1.24428 -0.541821,2.50496 -0.681627,3.78487 -0.136078,1.6696 -0.0558,3.38405 0.549288,4.95625 0.994042,1.53424 2.31171,1.32862 3.863364,0.89543 2.982304,-1.115 4.793165,-2.33737 6.060228,-4.9667 0.855194,-1.78158 1.914813,-3.45067 2.881995,-5.17121 0.988682,-1.89825 2.305727,-3.60151 3.303204,-5.49565 0.239519,-0.45483 0.443317,-0.9276 0.664977,-1.39139 0.975683,-2.14207 1.508829,-4.43504 2.179355,-6.67944 0.388143,-1.6529 1.043768,-3.21295 1.724869,-4.7608 0.592034,-1.69397 1.360815,-3.31751 1.9798,-5.00057 0.482171,-1.34286 1.044451,-2.65797 1.423172,-4.03511 0.294693,-1.23608 0.35015,-2.50767 0.395267,-3.7722 0.0046,-0.14931 0.0092,-0.29862 0.01371,-0.44793 0,0 -3.512537,1.78079 -3.512537,1.78079 v 0 c -0.0013,0.14596 -0.0028,0.29192 -0.0042,0.43787 -0.03516,1.23537 -0.101669,2.47746 -0.421921,3.67776 -0.404074,1.35859 -0.941832,2.6711 -1.425353,4.00258 -0.627911,1.66522 -1.330555,3.30114 -1.960282,4.9658 -0.694671,1.56026 -1.329383,3.14344 -1.715121,4.81326 -0.628772,2.21927 -1.135367,4.48253 -2.124528,6.58201 -1.20097,2.41426 -2.718138,4.55092 -4.03675,6.89121 -0.991294,1.72095 -2.027516,3.4172 -2.90689,5.19989 -0.353931,0.64254 -0.704787,1.24888 -1.212847,1.78539 -0.143185,0.1512 -0.644383,0.51572 -0.45597,0.42704 0.770324,-0.36257 4.249309,-2.32035 2.239277,-1.22856 -0.924086,0.29995 -2.268077,0.8518 -3.14271,0.11039 -0.166783,-0.14138 -0.270936,-0.34324 -0.406405,-0.51486 -0.587696,-1.52424 -0.621274,-3.17692 -0.461849,-4.79075 0.149143,-1.26996 0.383572,-2.52147 0.770435,-3.74271 0.106116,-0.34778 0.148124,-0.48366 0.144351,-0.48207 -3.429058,1.44099 -3.069394,0.51722 -3.723685,2.01851 -0.228486,0.53744 -0.396817,1.10021 -0.500285,1.67504 -0.08196,0.65654 -0.278267,1.27923 -0.556797,1.88058 -0.387043,0.84709 -0.811514,1.67448 -1.253728,2.49396 -0.257029,0.39812 -0.507653,0.80982 -0.819697,1.16854 -0.10518,0.12092 -0.479116,0.41561 -0.335608,0.34428 1.840216,-0.91477 4.155201,-2.40002 2.725025,-1.48795 -0.131762,0.0763 -0.251666,0.232 -0.403,0.21511 -0.119639,-0.0134 -0.655174,-0.29243 -0.781029,-0.36779 -0.447751,-0.44122 -0.762571,-0.95932 -0.838078,-1.59483 -0.177863,-1.00262 -0.08786,-2.02249 -0.103291,-3.03636 0.0011,-0.57986 0.0095,-1.16008 0.0032,-1.73993 -0.0056,-0.50974 -0.02434,-0.7309 -0.0396,-0.72532 -1.236022,0.45214 -2.395718,1.09055 -3.593574,1.63582 -0.09181,0.59602 -0.314584,1.16302 -0.420605,1.75638 -0.159409,0.86092 -0.376473,1.716 -0.619784,2.55566 -0.255939,0.58277 -0.522653,1.11339 -0.976971,1.574 -0.161346,0.16359 -0.729893,0.54904 -0.523097,0.4489 0.641294,-0.31056 4.236767,-2.3843 2.038249,-1.1191 -0.69482,0.26181 -1.161071,0.46252 -1.902269,0.62803 -1.35001,0.30146 -2.717988,0.20121 -4.083421,0.0807 -0.517591,-0.87119 -0.760452,-1.45689 -0.370004,-2.449 0.345242,-1.22787 0.695622,-2.44468 1.40757,-3.52401 0.42449,-0.64496 0.839791,-1.30501 1.351212,-1.88494 0.353996,-0.29397 0.646371,-0.63052 0.867862,-1.03694 0.463415,-0.7687 0.911664,-1.54792 1.417227,-2.29002 0.804921,-1.18504 1.48308,-2.44342 2.175283,-3.6964 0.92348,-1.56289 1.863137,-3.11591 2.794923,-4.67389 1.077357,-1.88621 2.268519,-3.70456 3.278934,-5.62947 0.947645,-1.76076 1.868437,-3.59283 2.271493,-5.56431 0.131318,-1.14479 0.215291,-2.55852 -1.03541,-3.09856 -1.087054,-0.26108 -2.101808,0.2988 -3.118411,0.64218 -1.229802,0.49516 -2.445184,1.03088 -3.610105,1.66359 0,0 -3.089116,2.471 -3.089116,2.471 z" />
    <path
       style="fill:#000000;fill-opacity:1;fill-rule:nonzero;stroke:none;stroke-width:0.264583"
       id="path107"
       d="m 72.660012,152.18815 c -0.177271,1.03486 -0.574509,2.0243 -0.711372,3.06324 -0.136337,1.23112 0.310562,1.59068 1.435502,1.91587 0.606544,0.13177 1.28488,0.20577 1.852321,-0.11787 3.744161,-2.13549 2.803737,-1.19951 4.137417,-2.62753 0.828183,-1.043 1.420233,-2.26969 2.05128,-3.44118 0.671621,-1.29272 1.245232,-2.62637 1.809763,-3.96794 0.532188,-1.25536 1.174896,-2.45872 1.754566,-3.69213 0.447358,-1.05097 0.931394,-2.08683 1.44471,-3.10728 0.530764,-0.98302 0.746709,-2.0489 0.846693,-3.14871 0.204316,-1.56925 0.365172,-3.14268 0.601197,-4.70808 0.300831,-1.72762 0.772922,-3.40713 1.388972,-5.04704 0.481267,-1.25858 1.213236,-2.39889 2.00274,-3.48342 0.648123,-0.96976 0.901687,-2.11876 1.259329,-3.2125 0.317312,-0.82333 0.496774,-1.72838 0.978699,-2.47804 0.271111,-0.54366 0.580922,-1.05924 0.949611,-1.54494 0,0 -3.625199,1.56993 -3.625199,1.56993 v 0 c -0.349959,0.50821 -0.653061,1.04138 -0.931736,1.59177 -0.377655,0.82006 -0.637003,1.68745 -0.933688,2.5386 -0.339299,1.06821 -0.595392,2.17805 -1.283848,3.09196 -0.77483,1.11854 -1.492597,2.28422 -1.947714,3.57432 -0.579628,1.66354 -1.036699,3.3596 -1.323581,5.1 -0.243837,1.5806 -0.432419,3.16779 -0.649507,4.75203 -0.127577,1.05903 -0.380849,2.07617 -0.901123,3.01869 -0.51021,1.02392 -0.98257,2.06664 -1.440191,3.11499 -0.584105,1.22918 -1.19893,2.44456 -1.729332,3.69847 -0.564759,1.33056 -1.150097,2.6509 -1.822435,3.93162 -0.634428,1.15496 -1.217768,2.38327 -2.131972,3.34601 -1.24445,1.07615 -0.397857,0.30018 2.567122,-1.32593 0.1372,-0.0753 -0.252775,0.18847 -0.395084,0.25353 -0.406561,0.18591 -0.862488,0.16462 -1.28878,0.0873 -1.054407,-0.2278 -1.276371,-0.24821 -1.144439,-1.41413 0.182941,-1.0181 0.49585,-2.016 0.762968,-3.01431 0,0 -3.582889,1.68266 -3.582889,1.68266 z" />
    <path
       style="fill:#000000;fill-opacity:1;fill-rule:nonzero;stroke:none;stroke-width:0.264583"
       id="path109"
       d="m 78.697745,153.82352 c 0.01381,0.88226 -0.06827,1.78102 0.320228,2.5939 0.459015,0.74868 1.323274,0.8712 2.131732,0.88642 2.212205,-0.38056 4.456557,-1.65852 5.956194,-3.25851 1.030801,-1.07329 1.92895,-2.25829 2.822287,-3.44507 0.405238,-0.51472 0.809887,-1.06322 1.312087,-1.49205 0.145891,-0.12458 0.636098,-0.428 0.46949,-0.3329 -4.30738,2.45897 -3.586001,2.07291 -2.349924,1.4312 0.827665,-0.39315 1.689095,-0.72345 2.581842,-0.93181 0.473752,-0.0889 0.95419,-0.1261 1.433898,-0.16395 0,0 3.169066,-2.33703 3.169066,-2.33703 v 0 c -0.490252,0.0312 -0.979821,0.0693 -1.467308,0.1318 -0.927611,0.13645 -1.793364,0.48809 -2.655758,0.84659 -2.343012,1.18906 -4.615254,2.19457 -6.069025,4.38811 -0.89366,1.18521 -1.813505,2.35316 -2.866197,3.40355 -1.275392,1.18567 -0.53067,0.42912 2.538851,-1.25093 0.136192,-0.0746 -0.258188,0.17398 -0.396827,0.24387 -0.344564,0.1737 -0.535866,0.20431 -0.899552,0.31432 -0.134551,0.0407 -0.268147,0.0845 -0.402222,0.12673 -0.638008,0.0629 -1.460373,0.0589 -1.874332,-0.50769 -0.36113,-0.75553 -0.211772,-1.6314 -0.225719,-2.44457 0,0 -3.528811,1.79802 -3.528811,1.79802 z" />
    <path
       style="fill:#000000;fill-opacity:1;fill-rule:nonzero;stroke:none;stroke-width:0.264583"
       id="path111"
       d="m 68.47837,137.63407 c 0.07892,-1.57272 0.746511,-2.81904 1.628111,-4.08108 0.59001,-0.68039 1.27716,-1.26629 2.037993,-1.74767 0.218591,-0.1383 0.89867,-0.51272 0.675812,-0.3814 -2.758591,1.62547 -3.702445,2.04887 -2.123541,1.305 0.88618,-0.39031 1.775921,-0.59039 2.732789,-0.4345 0.966933,0.3257 1.840047,0.8655 2.654972,1.46998 1.009629,0.92869 2.132377,1.64413 3.368042,2.22838 1.728595,0.77112 3.608285,0.99319 5.474412,1.14436 1.213511,0.0745 2.428253,0.16513 3.638402,0.0183 0.811543,-0.11332 1.607436,-0.33413 2.392688,-0.56553 1.804516,-0.74651 3.734588,-1.76311 5.059352,-3.27543 0.650049,-0.51114 0.981852,-1.25128 1.415102,-1.92359 0.284883,-0.5093 0.735793,-0.89285 1.055317,-1.37069 0,0 -3.642508,1.56724 -3.642508,1.56724 v 0 c -0.379566,0.43804 -0.724387,0.90505 -1.024421,1.4016 -0.392653,0.68437 -0.849226,1.30974 -1.438468,1.8427 -0.299493,0.29185 -0.604769,0.56577 -0.941208,0.81514 -0.08745,0.0648 -0.362913,0.23972 -0.267698,0.18698 3.674531,-2.03504 4.25059,-2.28837 2.901263,-1.67239 -0.749975,0.30527 -1.574499,0.45787 -2.359954,0.6376 -1.206677,0.19453 -2.417678,0.15318 -3.636907,0.0837 -1.831324,-0.11905 -3.682108,-0.30179 -5.388189,-1.03051 -1.208916,-0.56907 -2.316898,-1.2524 -3.280638,-2.18957 -0.847481,-0.64819 -1.770369,-1.17719 -2.743716,-1.61523 -1.005363,-0.26868 -1.940943,-0.13472 -2.906085,0.25558 -1.994636,0.82506 -0.628042,0.22867 -4.570661,2.52103 -1.013188,0.5891 -1.913353,1.35258 -2.632864,2.2801 -0.854855,1.31053 -1.487892,2.6941 -1.625039,4.27458 0,0 3.547642,-1.74465 3.547642,-1.74465 z" />
    <path
       style="fill:#000000;fill-opacity:1;fill-rule:nonzero;stroke:none;stroke-width:0.264583"
       id="path113"
       d="m 16.629039,174.20205 c -0.569324,-2.5538 -0.592177,-5.18145 -0.507136,-7.78306 0.08747,-3.64861 0.597684,-7.2651 1.348483,-10.83127 0.661569,-2.68339 1.549306,-5.11974 2.957802,-7.4969 1.064424,-1.60554 2.617525,-2.76343 4.20211,-3.81449 -0.836814,0.49944 -1.709313,0.94344 -2.510443,1.49831 -0.273908,0.18972 0.608109,-0.2731 0.918048,-0.39539 1.264429,-0.4989 2.55807,-0.84534 3.888282,-1.11101 1.792087,-0.30624 3.613179,-0.33857 5.426273,-0.3592 1.510192,-0.006 3.02037,0.003 4.530511,0.0147 0.932794,0.0298 1.855867,0.0315 2.776233,-0.13094 0.445873,-0.0807 0.222742,-0.0428 0.669391,-0.11368 0,0 3.1643,-2.36807 3.1643,-2.36807 v 0 c -0.456009,0.0576 -0.228769,0.0242 -0.681717,0.10026 -0.918083,0.18599 -1.822691,0.27819 -2.763674,0.21496 -1.520576,0.001 -3.041171,-0.007 -4.561726,0.001 -1.828752,0.0165 -3.664569,0.0328 -5.476502,0.31166 -3.307971,0.58632 -6.170842,1.81529 -8.985856,3.75169 -1.575158,1.09321 -3.103338,2.29388 -4.104981,3.96307 -1.326346,2.37467 -2.238075,4.92269 -2.839957,7.57704 -0.704438,3.58998 -1.200023,7.21858 -1.305506,10.88044 -0.0873,2.66073 -0.07951,5.33654 0.385363,7.96737 0,0 3.470702,-1.87689 3.470702,-1.87689 z" />
    <path
       style="fill:#000000;fill-opacity:1;fill-rule:nonzero;stroke:none;stroke-width:0.264583"
       id="path115"
       d="m 93.195485,139.95426 c 1.664457,-0.95669 -1.636082,0.93824 -2.402636,1.4257 -0.183144,0.11646 0.396539,-0.17718 0.59948,-0.25414 0.684376,-0.25953 1.37306,-0.39775 2.091531,-0.52261 1.840241,-0.21964 3.683029,-0.40849 5.532924,-0.52201 1.945726,-0.10187 3.891746,-0.0436 5.830216,-0.25387 3.56199,-0.57468 6.27284,-2.47563 9.37362,-4.26691 1.64221,-0.89521 2.82582,-2.25009 3.77248,-3.83144 1.09193,-1.88791 1.50089,-4.02243 1.9463,-6.12817 0.36975,-1.72047 0.39946,-3.48016 0.5619,-5.22373 0.10945,-1.71643 0.3806,-3.41495 0.55473,-5.12477 0.19821,-1.98306 0.91767,-3.83376 1.73402,-5.63231 0.59406,-1.14333 1.1057,-2.35401 1.8428,-3.41781 0.20822,-0.30052 0.94038,-1.19986 1.15754,-1.46986 1.09135,-1.44297 2.35672,-2.68086 3.86985,-3.67094 0.22349,-0.13983 0.89952,-0.54999 0.67046,-0.41948 -5.30867,3.02476 -2.71412,1.48842 -1.50421,0.9819 0.57588,-0.24109 0.64096,-0.23319 1.2599,-0.39286 1.2316,-0.20595 2.46227,-0.41889 3.70225,-0.56834 0.82128,-0.0864 1.64758,-0.10046 2.47257,-0.1113 0,0 3.18123,-2.317071 3.18123,-2.317071 v 0 c -0.83363,0.0088 -1.66774,0.02217 -2.49952,0.0831 -1.25866,0.127119 -2.49584,0.394938 -3.75065,0.549884 -2.64983,0.515966 -4.88145,2.242137 -7.14744,3.613917 -1.47363,1.05451 -2.71597,2.3212 -3.8075,3.76977 -1.22416,1.54682 -2.16328,3.15195 -2.94282,4.96891 -0.81029,1.84215 -1.53331,3.73888 -1.71789,5.76077 -0.17686,1.71166 -0.42855,3.41477 -0.556,5.13155 -0.14403,1.72573 -0.18435,3.46499 -0.54788,5.16584 -0.43171,2.0844 -0.88994,4.17961 -2.02539,6.01508 -0.98825,1.51858 -2.20068,2.78947 -3.82137,3.64918 0.79105,-0.45326 1.58496,-0.90155 2.37314,-1.35977 0.31682,-0.18419 -0.63477,0.36678 -0.95897,0.53763 -1.28747,0.67844 -2.6748,1.09764 -4.09538,1.40072 -1.93078,0.24481 -3.86978,0.19268 -5.81195,0.26948 -1.85154,0.0955 -3.6911,0.30261 -5.536097,0.47785 -2.665704,0.35781 -4.827953,1.52493 -7.097305,3.11204 0,0 3.696067,-1.42593 3.696067,-1.42593 z" />
    <path
       style="fill:#000000;fill-opacity:1;fill-rule:nonzero;stroke:none;stroke-width:0.264583"
       id="path117"
       d="m 13.752607,51.202785 c 1.456222,-0.535072 2.98012,-0.790869 4.513911,-0.973182 1.114513,-0.137692 2.0591,-0.19117 2.94027,0.57146 0.63571,0.711081 0.644208,1.678842 0.700576,2.581579 0.04373,1.375032 0.03421,2.751246 0.03778,4.126833 0.02888,1.832253 -0.06371,3.668316 -0.300098,5.485596 -0.26626,2.019522 -0.537155,4.038166 -0.783746,6.060355 -0.424511,3.106068 -0.643777,6.235523 -0.651544,9.369441 0.06924,2.448028 0.928193,4.677944 2.44224,6.579931 1.184665,1.163272 2.655962,1.567362 4.256917,1.718217 1.554117,0.113633 3.105983,-0.09304 4.637534,-0.337225 0.597279,-0.110889 1.182569,-0.274275 1.769793,-0.427505 0,0 3.114585,-2.387423 3.114585,-2.387423 v 0 c -0.591084,0.156162 -1.178396,0.325435 -1.770999,0.475922 -1.512808,0.247049 -3.042798,0.497996 -4.581181,0.413036 -1.512896,-0.107292 -2.944445,-0.382993 -4.108436,-1.442887 -1.543664,-1.838526 -2.28752,-3.912283 -2.373975,-6.317805 -0.01143,-3.126918 0.200887,-6.245993 0.694664,-9.336691 0.270407,-2.029185 0.57855,-4.053081 0.827205,-6.085115 0.201491,-1.836121 0.313466,-3.682892 0.289423,-5.530681 0.01206,-1.387207 0.03664,-2.775405 -0.02345,-4.161898 -0.05896,-1.01495 -0.120971,-2.06143 -0.826985,-2.859807 -0.978657,-0.919901 -1.861238,-0.977289 -3.170788,-0.817346 -1.521669,0.171191 -3.052345,0.366337 -4.502306,0.884172 0,0 -3.131398,2.411023 -3.131398,2.411023 z" />
    <path
       style="fill:#000000;fill-opacity:1;fill-rule:nonzero;stroke:none;stroke-width:0.264583"
       id="path119"
       d="m 113.49704,84.342982 c 1.13095,-0.354721 2.26591,-0.693451 3.42894,-0.925301 1.13849,-0.269115 2.2834,-0.482287 3.45632,-0.444306 0.79577,0.134651 1.3516,0.728511 1.88546,1.286727 0.56531,0.417412 0.80367,0.904115 0.92985,1.576133 0.0448,0.741751 0.22873,1.461511 0.33894,2.194822 0.0371,0.762947 0.2913,1.401159 0.76644,1.986161 0.42952,0.514461 1.01418,0.796274 1.6503,0.959636 0.66432,0.135472 1.34502,0.08986 2.01653,0.146486 0.68332,0.163791 1.37764,0.251688 2.07716,0.305702 0.35803,0.02294 0.71645,0.03629 1.075,0.04715 0,0 3.20381,-2.316699 3.20381,-2.316699 v 0 c -0.3571,-0.0053 -0.71428,-0.01016 -1.07104,-0.02814 -0.68943,-0.03976 -1.38488,-0.08956 -2.05095,-0.284964 -0.65708,-0.137171 -1.33538,-0.03126 -2.00063,-0.129349 -0.57348,-0.09144 -1.11961,-0.281287 -1.50625,-0.739183 -0.45211,-0.519083 -0.63266,-1.1015 -0.67255,-1.791867 -0.11725,-0.738248 -0.27577,-1.468831 -0.3435,-2.214118 -0.15956,-0.723812 -0.4134,-1.328438 -1.04368,-1.768086 -0.6025,-0.620141 -1.21071,-1.266965 -2.06282,-1.527815 -1.18895,-0.06722 -2.3681,0.06728 -3.51891,0.380714 -1.16825,0.193133 -2.2918,0.552419 -3.43256,0.857827 0,0 -3.12586,2.42847 -3.12586,2.42847 z" />
    <path
       style="fill:#000000;fill-opacity:1;fill-rule:nonzero;stroke:none;stroke-width:0.264583"
       id="path121"
       d="m 78.48456,113.15329 c -0.450215,-0.75743 -0.796293,-1.56743 -1.195155,-2.35022 -0.272497,-0.58375 -0.663324,-1.10161 -0.992606,-1.6531 -0.422396,-0.62949 -0.737539,-1.31009 -0.95777,-2.0339 -0.346916,-0.79123 -0.48161,-1.6282 -0.559038,-2.48122 -0.09501,-1.07087 -0.08158,-2.13205 0.05519,-3.19588 0.02275,-1.10824 0.474265,-2.011076 1.063183,-2.920023 -0.11194,-0.201097 1.220957,-0.901766 1.103328,-0.829612 -4.770914,2.926545 -3.411087,1.890893 -1.949884,1.358908 0.764797,-0.300307 1.573144,-0.257664 2.373413,-0.181332 0.444514,0.0054 0.822738,0.194585 1.195618,0.417282 0.355206,0.301707 0.709922,0.617752 0.961342,1.012957 0.289264,0.62375 0.247412,1.32573 0.36117,1.9897 0.145748,0.65057 0.251722,1.30504 0.301424,1.96968 0.03703,0.58207 0.03267,1.16553 0.03471,1.74845 -0.0016,0.48111 -0.0077,0.9622 -0.0073,1.44331 -7.93e-4,1.77031 -0.352835,0.90729 3.358071,-1.48302 0.03099,-0.02 -0.0274,-0.0686 -0.03682,-0.10427 -0.02164,-0.0819 -0.03749,-0.16528 -0.05623,-0.24793 -0.144177,-0.76611 -0.135324,-1.52487 -0.0088,-2.28888 0.114073,-0.651 0.194337,-1.29049 0.50831,-1.8802 0.625462,-1.419 4.019621,-2.945858 -1.886119,0.53661 1.044215,-0.5356 2.150335,-0.90852 3.292012,-1.16688 0.737039,-0.17621 1.475716,-0.24128 2.209979,-0.0342 0.58378,0.26582 1.024843,0.68596 1.343115,1.23619 0.455205,0.76735 0.60774,1.60687 0.695492,2.48018 0.05683,1.01111 -0.362056,1.77979 -0.987205,2.53148 -0.743747,0.74497 -1.606061,1.35296 -2.400647,2.03671 -0.756864,0.56972 -1.518065,1.12753 -2.347209,1.58934 6.019935,-3.03423 2.863914,-1.73883 1.466001,-1.0609 -0.516459,0.29328 -1.104029,0.38821 -1.672346,0.53027 -0.632548,0.13573 -1.259076,0.25654 -1.867832,0.47874 -0.582252,0.25135 -1.179224,0.46351 -1.762884,0.7113 -0.5045,0.14884 -0.97109,0.39519 -1.469792,0.55881 0,0 -3.143967,2.42322 -3.143967,2.42322 v 0 c 0.522697,-0.13411 0.990383,-0.37802 1.49906,-0.53781 0.600226,-0.21243 1.172655,-0.49635 1.775582,-0.70507 0.582956,-0.2871 1.19394,-0.42049 1.831192,-0.53377 0.577998,-0.13322 1.169455,-0.23145 1.722715,-0.44828 1.75981,-0.96936 3.809087,-1.28002 5.300834,-2.82982 0.810554,-0.49162 1.57303,-1.06068 2.315777,-1.64851 0.821031,-0.66439 1.665557,-1.31555 2.363546,-2.11345 0.611394,-0.84632 0.95217,-1.73733 0.858166,-2.80224 -0.102479,-0.92924 -0.28293,-1.81416 -0.755883,-2.63524 -0.364353,-0.631155 -0.84441,-1.111638 -1.479582,-1.474229 -0.752901,-0.332472 -1.583124,-0.299365 -2.374363,-0.12075 -1.158692,0.230677 -2.266122,0.582104 -3.34773,1.057661 -1.786782,1.045498 -3.923477,1.629338 -4.775703,3.583788 -0.248716,0.63559 -0.350496,1.30266 -0.450821,1.97543 -0.107958,0.81048 -0.07801,1.62511 0.06446,2.43137 0.06959,0.27446 0.146775,0.62274 0.20828,0.59589 3.593033,-1.56884 3.563479,-0.65973 3.548258,-2.44299 0.0021,-0.47995 -0.0011,-0.95992 -0.0028,-1.43986 -5.29e-4,-0.59313 -0.0046,-1.18722 -0.04998,-1.77888 -0.0682,-0.66996 -0.182166,-1.32942 -0.327571,-1.98701 -0.104917,-0.719647 -0.07845,-1.473575 -0.422727,-2.137308 -0.280522,-0.452954 -0.668867,-0.805011 -1.050981,-1.171406 -0.398957,-0.252823 -0.822433,-0.534405 -1.305022,-0.561491 -0.828996,-0.08047 -1.690296,-0.193357 -2.498035,0.06283 -2.147363,0.708422 -4.437597,1.674924 -5.846969,3.472795 -0.563155,0.96201 -0.953137,1.94217 -0.990573,3.07214 -0.129355,1.0891 -0.09452,2.17893 -0.01916,3.27227 0.08248,0.88126 0.2359,1.7427 0.585235,2.56242 0.242694,0.74626 0.562996,1.45989 0.990388,2.12005 0.32285,0.54693 0.718322,1.05171 0.994577,1.62508 0.411461,0.78564 0.772167,1.59864 1.191577,2.38135 0,0 3.4275,-1.98656 3.4275,-1.98656 z" />
  </g>
</svg>
